Lemonada-LightItalic.ufo
<glyph name="exclam" format="2">
  <advance width="350"/>
  <unicode hex="0021"/>
  <outline>
    <contour>
      <point x="190" y="242" type="curve" smooth="yes"/>
      <point x="202" y="242"/>
      <point x="221" y="247"/>
      <point x="234" y="259" type="curve"/>
      <point x="271" y="359"/>
      <point x="347" y="630"/>
      <point x="347" y="693" type="curve" smooth="yes"/>
      <point x="347" y="740"/>
      <point x="328" y="775"/>
      <point x="279" y="775" type="curve" smooth="yes"/>
      <point x="247" y="775"/>
      <point x="218" y="765"/>
      <point x="198" y="747" type="curve"/>
      <point x="213" y="728"/>
      <point x="216" y="692"/>
      <point x="216" y="666" type="curve" smooth="yes"/>
      <point x="216" y="565"/>
      <point x="159" y="347"/>
      <point x="159" y="279" type="curve" smooth="yes"/>
      <point x="159" y="257"/>
      <point x="165" y="242"/>
    </contour>
    <component base="period" xOffset="10"/>
  </outline>
</glyph>
<glyph name="quotedbl" format="2">
  <advance width="436"/>
  <unicode hex="0022"/>
  <outline>
    <contour>
      <point x="334" y="446" type="curve" smooth="yes"/>
      <point x="355" y="446"/>
      <point x="381" y="453"/>
      <point x="403" y="467" type="curve"/>
      <point x="398" y="481"/>
      <point x="396" y="495"/>
      <point x="396" y="510" type="curve" smooth="yes"/>
      <point x="396" y="590"/>
      <point x="448" y="667"/>
      <point x="448" y="730" type="curve" smooth="yes"/>
      <point x="448" y="759"/>
      <point x="440" y="780"/>
      <point x="412" y="780" type="curve" smooth="yes"/>
      <point x="391" y="780"/>
      <point x="365" y="773"/>
      <point x="342" y="759" type="curve"/>
      <point x="347" y="745"/>
      <point x="349" y="731"/>
      <point x="349" y="716" type="curve" smooth="yes"/>
      <point x="349" y="637"/>
      <point x="297" y="560"/>
      <point x="297" y="496" type="curve" smooth="yes"/>
      <point x="297" y="467"/>
      <point x="305" y="446"/>
    </contour>
    <contour>
      <point x="127" y="446" type="curve" smooth="yes"/>
      <point x="148" y="446"/>
      <point x="174" y="453"/>
      <point x="196" y="467" type="curve"/>
      <point x="191" y="481"/>
      <point x="189" y="495"/>
      <point x="189" y="510" type="curve" smooth="yes"/>
      <point x="189" y="590"/>
      <point x="241" y="667"/>
      <point x="241" y="730" type="curve" smooth="yes"/>
      <point x="241" y="759"/>
      <point x="233" y="780"/>
      <point x="205" y="780" type="curve" smooth="yes"/>
      <point x="184" y="780"/>
      <point x="158" y="773"/>
      <point x="135" y="759" type="curve"/>
      <point x="140" y="745"/>
      <point x="142" y="731"/>
      <point x="142" y="716" type="curve" smooth="yes"/>
      <point x="142" y="637"/>
      <point x="90" y="560"/>
      <point x="90" y="496" type="curve" smooth="yes"/>
      <point x="90" y="467"/>
      <point x="98" y="446"/>
    </contour>
  </outline>
</glyph>
<glyph name="dollar" format="2">
  <advance width="673"/>
  <unicode hex="0024"/>
  <outline>
    <contour>
      <point x="299" y="-24" type="curve" smooth="yes"/>
      <point x="496" y="-24"/>
      <point x="584" y="78"/>
      <point x="584" y="178" type="curve" smooth="yes"/>
      <point x="584" y="392"/>
      <point x="224" y="370"/>
      <point x="224" y="498" type="curve" smooth="yes"/>
      <point x="224" y="567"/>
      <point x="300" y="621"/>
      <point x="436" y="639" type="curve"/>
      <point x="453" y="574"/>
      <point x="487" y="535"/>
      <point x="545" y="535" type="curve" smooth="yes"/>
      <point x="598" y="535"/>
      <point x="635" y="561"/>
      <point x="635" y="613" type="curve" smooth="yes"/>
      <point x="635" y="667"/>
      <point x="553" y="702"/>
      <point x="446" y="702" type="curve" smooth="yes"/>
      <point x="246" y="702"/>
      <point x="119" y="604"/>
      <point x="119" y="487" type="curve" smooth="yes"/>
      <point x="119" y="267"/>
      <point x="481" y="300"/>
      <point x="481" y="159" type="curve" smooth="yes"/>
      <point x="481" y="79"/>
      <point x="403" y="39"/>
      <point x="294" y="39" type="curve" smooth="yes"/>
      <point x="222" y="39"/>
      <point x="150" y="79"/>
      <point x="114" y="161" type="curve"/>
      <point x="90" y="148"/>
      <point x="74" y="124"/>
      <point x="74" y="96" type="curve" smooth="yes"/>
      <point x="74" y="18"/>
      <point x="172" y="-24"/>
    </contour>
    <contour>
      <point x="258" y="-195" type="curve" smooth="yes"/>
      <point x="287" y="-195"/>
      <point x="305" y="-178"/>
      <point x="311" y="-143" type="curve" smooth="yes"/>
      <point x="320" y="-96"/>
      <point x="327" y="-50"/>
      <point x="335" y="-5" type="curve"/>
      <point x="257" y="-9" type="line"/>
      <point x="242" y="-73"/>
      <point x="227" y="-130"/>
      <point x="215" y="-183" type="curve"/>
      <point x="228" y="-191"/>
      <point x="243" y="-195"/>
    </contour>
    <contour>
      <point x="380" y="644" type="curve"/>
      <point x="455" y="644" type="line"/>
      <point x="479" y="726"/>
      <point x="501" y="804"/>
      <point x="523" y="873" type="curve"/>
      <point x="509" y="882"/>
      <point x="495" y="886"/>
      <point x="480" y="886" type="curve" smooth="yes"/>
      <point x="450" y="886"/>
      <point x="432" y="870"/>
      <point x="424" y="837" type="curve" smooth="yes"/>
      <point x="408" y="768"/>
      <point x="395" y="704"/>
    </contour>
  </outline>
</glyph>
<glyph name="ampersand" format="2">
  <advance width="762"/>
  <unicode hex="0026"/>
  <outline>
    <contour>
      <point x="365" y="335" type="curve" smooth="yes"/>
      <point x="468" y="335"/>
      <point x="593" y="363"/>
      <point x="662" y="363" type="curve" smooth="yes"/>
      <point x="679" y="363"/>
      <point x="699" y="361"/>
      <point x="735" y="357" type="curve"/>
      <point x="745" y="379"/>
      <point x="749" y="392"/>
      <point x="749" y="406" type="curve" smooth="yes"/>
      <point x="749" y="433"/>
      <point x="731" y="445"/>
      <point x="692" y="445" type="curve" smooth="yes"/>
      <point x="616" y="445"/>
      <point x="527" y="397"/>
      <point x="379" y="397" type="curve" smooth="yes"/>
      <point x="293" y="397"/>
      <point x="230" y="455"/>
      <point x="230" y="534" type="curve" smooth="yes"/>
      <point x="230" y="627"/>
      <point x="301" y="693"/>
      <point x="416" y="713" type="curve"/>
      <point x="434" y="643"/>
      <point x="473" y="598"/>
      <point x="533" y="598" type="curve" smooth="yes"/>
      <point x="582" y="598"/>
      <point x="619" y="625"/>
      <point x="619" y="673" type="curve" smooth="yes"/>
      <point x="619" y="732"/>
      <point x="550" y="775"/>
      <point x="454" y="775" type="curve" smooth="yes"/>
      <point x="254" y="775"/>
      <point x="125" y="677"/>
      <point x="125" y="527" type="curve" smooth="yes"/>
      <point x="125" y="417"/>
      <point x="228" y="335"/>
    </contour>
    <contour>
      <point x="248" y="-92" type="curve" smooth="yes"/>
      <point x="473" y="-92"/>
      <point x="626" y="100"/>
      <point x="618" y="369" type="curve"/>
      <point x="569" y="363" type="line"/>
      <point x="561" y="138"/>
      <point x="430" y="-7"/>
      <point x="294" y="-7" type="curve" smooth="yes"/>
      <point x="207" y="-7"/>
      <point x="165" y="42"/>
      <point x="165" y="128" type="curve" smooth="yes"/>
      <point x="165" y="204"/>
      <point x="213" y="287"/>
      <point x="315" y="371" type="curve"/>
      <point x="271" y="382" type="line"/>
      <point x="140" y="316"/>
      <point x="57" y="200"/>
      <point x="57" y="82" type="curve" smooth="yes"/>
      <point x="57" y="-23"/>
      <point x="133" y="-92"/>
    </contour>
  </outline>
</glyph>
<glyph name="quotesingle" format="2">
  <advance width="228"/>
  <unicode hex="0027"/>
  <outline>
    <contour>
      <point x="127" y="446" type="curve" smooth="yes"/>
      <point x="148" y="446"/>
      <point x="174" y="453"/>
      <point x="196" y="467" type="curve"/>
      <point x="191" y="481"/>
      <point x="189" y="495"/>
      <point x="189" y="510" type="curve" smooth="yes"/>
      <point x="189" y="590"/>
      <point x="241" y="667"/>
      <point x="241" y="730" type="curve" smooth="yes"/>
      <point x="241" y="759"/>
      <point x="233" y="780"/>
      <point x="205" y="780" type="curve" smooth="yes"/>
      <point x="184" y="780"/>
      <point x="158" y="773"/>
      <point x="135" y="759" type="curve"/>
      <point x="140" y="745"/>
      <point x="142" y="731"/>
      <point x="142" y="716" type="curve" smooth="yes"/>
      <point x="142" y="637"/>
      <point x="90" y="560"/>
      <point x="90" y="496" type="curve" smooth="yes"/>
      <point x="90" y="467"/>
      <point x="98" y="446"/>
    </contour>
  </outline>
</glyph>
<glyph name="parenleft" format="2">
  <advance width="415"/>
  <unicode hex="0028"/>
  <outline>
    <contour>
      <point x="240" y="-156" type="curve" smooth="yes"/>
      <point x="267" y="-156"/>
      <point x="296" y="-143"/>
      <point x="312" y="-123" type="curve"/>
      <point x="241" y="-38"/>
      <point x="209" y="70"/>
      <point x="209" y="231" type="curve" smooth="yes"/>
      <point x="209" y="443"/>
      <point x="290" y="682"/>
      <point x="395" y="781" type="curve"/>
      <point x="372" y="798"/>
      <point x="360" y="801"/>
      <point x="341" y="801" type="curve" smooth="yes"/>
      <point x="242" y="801"/>
      <point x="115" y="462"/>
      <point x="115" y="191" type="curve" smooth="yes"/>
      <point x="115" y="-30"/>
      <point x="161" y="-156"/>
    </contour>
  </outline>
</glyph>
<glyph name="asterisk" format="2">
  <advance width="592"/>
  <unicode hex="002A"/>
  <outline>
    <contour>
      <point x="399" y="300" type="curve" smooth="yes"/>
      <point x="418" y="300"/>
      <point x="458" y="332"/>
      <point x="484" y="384" type="curve"/>
      <point x="344" y="523" type="line"/>
      <point x="434" y="502"/>
      <point x="475" y="509"/>
      <point x="513" y="509" type="curve" smooth="yes"/>
      <point x="569" y="509"/>
      <point x="594" y="527"/>
      <point x="594" y="544" type="curve" smooth="yes"/>
      <point x="594" y="567"/>
      <point x="572" y="611"/>
      <point x="538" y="645" type="curve"/>
      <point x="363" y="552" type="line"/>
      <point x="429" y="658"/>
      <point x="437" y="715"/>
      <point x="437" y="759" type="curve" smooth="yes"/>
      <point x="437" y="793"/>
      <point x="429" y="800"/>
      <point x="395" y="800" type="curve" smooth="yes"/>
      <point x="372" y="800"/>
      <point x="338" y="790"/>
      <point x="307" y="776" type="curve"/>
      <point x="340" y="579" type="line"/>
      <point x="288" y="642"/>
      <point x="211" y="720"/>
      <point x="142" y="720" type="curve" smooth="yes"/>
      <point x="124" y="720"/>
      <point x="108" y="697"/>
      <point x="108" y="639" type="curve" smooth="yes"/>
      <point x="108" y="625"/>
      <point x="109" y="611"/>
      <point x="111" y="599" type="curve"/>
      <point x="308" y="566" type="line"/>
      <point x="154" y="507"/>
      <point x="112" y="450"/>
      <point x="112" y="417" type="curve" smooth="yes"/>
      <point x="112" y="397"/>
      <point x="157" y="366"/>
      <point x="220" y="356" type="curve"/>
      <point x="309" y="530" type="line"/>
      <point x="321" y="354"/>
      <point x="368" y="300"/>
    </contour>
  </outline>
</glyph>
<glyph name="plus" format="2">
  <advance width="700"/>
  <unicode hex="002B"/>
  <outline>
    <contour>
      <point x="313" y="151" type="curve" smooth="yes"/>
      <point x="331" y="151"/>
      <point x="354" y="157"/>
      <point x="383" y="167" type="curve"/>
      <point x="442" y="540" type="line" smooth="yes"/>
      <point x="448" y="581"/>
      <point x="443" y="594"/>
      <point x="416" y="594" type="curve" smooth="yes"/>
      <point x="399" y="594"/>
      <point x="376" y="589"/>
      <point x="346" y="578" type="curve"/>
      <point x="287" y="206" type="line" smooth="yes"/>
      <point x="279" y="165"/>
      <point x="286" y="151"/>
    </contour>
    <component base="minus"/>
  </outline>
</glyph>
<glyph name="comma" format="2">
  <advance width="334"/>
  <unicode hex="002C"/>
  <outline>
    <contour>
      <point x="68" y="-172" type="line"/>
      <point x="170" y="-133"/>
      <point x="238" y="-65"/>
      <point x="238" y="33" type="curve" smooth="yes"/>
      <point x="238" y="72"/>
      <point x="212" y="108"/>
      <point x="167" y="108" type="curve" smooth="yes"/>
      <point x="123" y="108"/>
      <point x="84" y="71"/>
      <point x="83" y="30" type="curve"/>
      <point x="129" y="-31" type="line"/>
      <point x="129" y="-66"/>
      <point x="101" y="-120"/>
      <point x="57" y="-143" type="curve"/>
    </contour>
  </outline>
</glyph>
<glyph name="hyphen" format="2">
  <advance width="499"/>
  <unicode hex="002D"/>
  <outline>
    <contour>
      <point x="114" y="243" type="curve" smooth="yes"/>
      <point x="205" y="243"/>
      <point x="278" y="276"/>
      <point x="376" y="276" type="curve" smooth="yes"/>
      <point x="392" y="276"/>
      <point x="404" y="275"/>
      <point x="420" y="272" type="curve"/>
      <point x="431" y="290"/>
      <point x="436" y="308"/>
      <point x="436" y="323" type="curve" smooth="yes"/>
      <point x="436" y="358"/>
      <point x="416" y="367"/>
      <point x="391" y="367" type="curve" smooth="yes"/>
      <point x="300" y="367"/>
      <point x="226" y="335"/>
      <point x="130" y="335" type="curve" smooth="yes"/>
      <point x="114" y="335"/>
      <point x="102" y="336"/>
      <point x="85" y="339" type="curve"/>
      <point x="75" y="321"/>
      <point x="69" y="303"/>
      <point x="69" y="288" type="curve" smooth="yes"/>
      <point x="69" y="253"/>
      <point x="88" y="243"/>
    </contour>
  </outline>
</glyph>
<glyph name="period" format="2">
  <advance width="284"/>
  <unicode hex="002E"/>
  <outline>
    <contour>
      <point x="137" y="-25" type="curve" smooth="yes"/>
      <point x="177" y="-25"/>
      <point x="209" y="10"/>
      <point x="209" y="48" type="curve" smooth="yes"/>
      <point x="209" y="82"/>
      <point x="183" y="108"/>
      <point x="147" y="108" type="curve" smooth="yes"/>
      <point x="103" y="108"/>
      <point x="75" y="74"/>
      <point x="75" y="35" type="curve" smooth="yes"/>
      <point x="75" y="2"/>
      <point x="102" y="-25"/>
    </contour>
  </outline>
</glyph>
<glyph name="slash" format="2">
  <advance width="398"/>
  <unicode hex="002F"/>
  <anchor x="199" y="378" name="_center"/>
  <outline>
    <contour>
      <point x="81" y="-80" type="curve" smooth="yes"/>
      <point x="112" y="-80"/>
      <point x="131" y="-65"/>
      <point x="139" y="-31" type="curve" smooth="yes"/>
      <point x="224" y="349"/>
      <point x="294" y="619"/>
      <point x="360" y="823" type="curve"/>
      <point x="346" y="832"/>
      <point x="331" y="836"/>
      <point x="317" y="836" type="curve" smooth="yes"/>
      <point x="286" y="836"/>
      <point x="267" y="821"/>
      <point x="259" y="787" type="curve" smooth="yes"/>
      <point x="173" y="408"/>
      <point x="103" y="137"/>
      <point x="37" y="-67" type="curve"/>
      <point x="51" y="-76"/>
      <point x="66" y="-80"/>
    </contour>
  </outline>
</glyph>
<glyph name="zero" format="2">
  <advance width="731"/>
  <unicode hex="0030"/>
  <outline>
    <contour>
      <point x="337" y="-25" type="curve" smooth="yes"/>
      <point x="527" y="-25"/>
      <point x="676" y="157"/>
      <point x="676" y="394" type="curve" smooth="yes"/>
      <point x="676" y="527"/>
      <point x="633" y="614"/>
      <point x="554" y="637" type="curve"/>
      <point x="552" y="662"/>
      <point x="550" y="678"/>
      <point x="544" y="685" type="curve"/>
      <point x="524" y="693"/>
      <point x="488" y="700"/>
      <point x="463" y="700" type="curve" smooth="yes"/>
      <point x="239" y="700"/>
      <point x="85" y="532"/>
      <point x="85" y="283" type="curve" smooth="yes"/>
      <point x="85" y="95"/>
      <point x="182" y="-25"/>
    </contour>
    <contour>
      <point x="347" y="35" type="curve" smooth="yes"/>
      <point x="254" y="35"/>
      <point x="193" y="125"/>
      <point x="193" y="270" type="curve" smooth="yes"/>
      <point x="193" y="383"/>
      <point x="228" y="503"/>
      <point x="297" y="604" type="curve"/>
      <point x="329" y="614"/>
      <point x="356" y="621"/>
      <point x="384" y="621" type="curve" smooth="yes"/>
      <point x="509" y="621"/>
      <point x="568" y="543"/>
      <point x="568" y="382" type="curve" smooth="yes"/>
      <point x="568" y="180"/>
      <point x="474" y="35"/>
    </contour>
  </outline>
</glyph>
<glyph name="one" format="2">
  <advance width="443"/>
  <unicode hex="0031"/>
  <outline>
    <contour>
      <point x="218" y="-25" type="curve" smooth="yes"/>
      <point x="236" y="-25"/>
      <point x="256" y="-19"/>
      <point x="277" y="-8" type="curve"/>
      <point x="268" y="16"/>
      <point x="264" y="46"/>
      <point x="264" y="79" type="curve" smooth="yes"/>
      <point x="264" y="305"/>
      <point x="363" y="605"/>
      <point x="363" y="662" type="curve" smooth="yes"/>
      <point x="363" y="687"/>
      <point x="351" y="700"/>
      <point x="330" y="700" type="curve" smooth="yes"/>
      <point x="291" y="700"/>
      <point x="248" y="655"/>
      <point x="120" y="616" type="curve"/>
      <point x="129" y="579"/>
      <point x="172" y="557"/>
      <point x="235" y="557" type="curve"/>
      <point x="184" y="346"/>
      <point x="160" y="193"/>
      <point x="160" y="70" type="curve" smooth="yes"/>
      <point x="160" y="9"/>
      <point x="181" y="-25"/>
    </contour>
  </outline>
</glyph>
<glyph name="two" format="2">
  <advance width="642"/>
  <unicode hex="0032"/>
  <outline>
    <contour>
      <point x="168" y="42" type="line"/>
      <point x="460" y="246"/>
      <point x="571" y="378"/>
      <point x="571" y="515" type="curve" smooth="yes"/>
      <point x="571" y="627"/>
      <point x="486" y="700"/>
      <point x="361" y="700" type="curve" smooth="yes"/>
      <point x="214" y="700"/>
      <point x="118" y="631"/>
      <point x="118" y="527" type="curve" smooth="yes"/>
      <point x="118" y="485"/>
      <point x="144" y="458"/>
      <point x="189" y="452" type="curve"/>
      <point x="193" y="548"/>
      <point x="254" y="625"/>
      <point x="336" y="625" type="curve" smooth="yes"/>
      <point x="419" y="625"/>
      <point x="462" y="581"/>
      <point x="462" y="485" type="curve" smooth="yes"/>
      <point x="462" y="364"/>
      <point x="332" y="236"/>
      <point x="110" y="83" type="curve"/>
    </contour>
    <contour>
      <point x="473" y="-30" type="curve" smooth="yes"/>
      <point x="543" y="-30"/>
      <point x="599" y="6"/>
      <point x="599" y="54" type="curve" smooth="yes"/>
      <point x="599" y="69"/>
      <point x="592" y="84"/>
      <point x="573" y="110" type="curve"/>
      <point x="473" y="51" type="line"/>
      <point x="389" y="51"/>
      <point x="226" y="118"/>
      <point x="148" y="118" type="curve" smooth="yes"/>
      <point x="82" y="118"/>
      <point x="34" y="82"/>
      <point x="34" y="30" type="curve" smooth="yes"/>
      <point x="34" y="1"/>
      <point x="58" y="-22"/>
      <point x="89" y="-22" type="curve" smooth="yes"/>
      <point x="123" y="-22"/>
      <point x="149" y="-7"/>
      <point x="187" y="34" type="curve"/>
      <point x="340" y="-21"/>
      <point x="401" y="-30"/>
    </contour>
  </outline>
</glyph>
<glyph name="three" format="2">
  <advance width="661"/>
  <unicode hex="0033"/>
  <outline>
    <contour>
      <point x="196" y="-156" type="curve" smooth="yes"/>
      <point x="405" y="-156"/>
      <point x="556" y="-48"/>
      <point x="556" y="103" type="curve" smooth="yes"/>
      <point x="556" y="222"/>
      <point x="443" y="311"/>
      <point x="294" y="311" type="curve" smooth="yes"/>
      <point x="234" y="311"/>
      <point x="193" y="281"/>
      <point x="193" y="237" type="curve" smooth="yes"/>
      <point x="193" y="209"/>
      <point x="219" y="185"/>
      <point x="249" y="185" type="curve" smooth="yes"/>
      <point x="281" y="185"/>
      <point x="318" y="202"/>
      <point x="362" y="233" type="curve"/>
      <point x="408" y="220"/>
      <point x="448" y="155"/>
      <point x="448" y="95" type="curve" smooth="yes"/>
      <point x="448" y="-8"/>
      <point x="343" y="-91"/>
      <point x="211" y="-91" type="curve"/>
      <point x="187" y="-41"/>
      <point x="148" y="-10"/>
      <point x="110" y="-10" type="curve" smooth="yes"/>
      <point x="69" y="-10"/>
      <point x="38" y="-36"/>
      <point x="38" y="-69" type="curve" smooth="yes"/>
      <point x="38" y="-129"/>
      <point x="88" y="-156"/>
    </contour>
    <contour>
      <point x="389" y="254" type="line"/>
      <point x="505" y="327"/>
      <point x="570" y="420"/>
      <point x="570" y="514" type="curve" smooth="yes"/>
      <point x="570" y="622"/>
      <point x="484" y="700"/>
      <point x="364" y="700" type="curve" smooth="yes"/>
      <point x="212" y="700"/>
      <point x="112" y="631"/>
      <point x="112" y="527" type="curve" smooth="yes"/>
      <point x="112" y="485"/>
      <point x="138" y="458"/>
      <point x="183" y="452" type="curve"/>
      <point x="187" y="550"/>
      <point x="255" y="625"/>
      <point x="339" y="625" type="curve" smooth="yes"/>
      <point x="422" y="625"/>
      <point x="462" y="580"/>
      <point x="462" y="485" type="curve" smooth="yes"/>
      <point x="462" y="402"/>
      <point x="400" y="322"/>
      <point x="318" y="288" type="curve"/>
    </contour>
  </outline>
</glyph>
<glyph name="four" format="2">
  <advance width="666"/>
  <unicode hex="0034"/>
  <outline>
    <contour>
      <point x="190" y="0" type="curve" smooth="yes"/>
      <point x="270" y="0"/>
      <point x="376" y="8"/>
      <point x="441" y="19" type="curve"/>
      <point x="470" y="85" type="line"/>
      <point x="111" y="85" type="line"/>
      <point x="311" y="322"/>
      <point x="408" y="493"/>
      <point x="408" y="611" type="curve" smooth="yes"/>
      <point x="408" y="671"/>
      <point x="385" y="700"/>
      <point x="340" y="700" type="curve" smooth="yes"/>
      <point x="318" y="700"/>
      <point x="304" y="698"/>
      <point x="278" y="685" type="curve"/>
      <point x="284" y="661"/>
      <point x="286" y="646"/>
      <point x="286" y="630" type="curve" smooth="yes"/>
      <point x="286" y="458"/>
      <point x="49" y="190"/>
      <point x="49" y="85" type="curve" smooth="yes"/>
      <point x="49" y="25"/>
      <point x="90" y="0"/>
    </contour>
    <contour>
      <point x="483" y="-170" type="curve" smooth="yes"/>
      <point x="507" y="-170"/>
      <point x="525" y="-165"/>
      <point x="557" y="-149" type="curve"/>
      <point x="541" y="-125"/>
      <point x="533" y="-87"/>
      <point x="533" y="-41" type="curve" smooth="yes"/>
      <point x="533" y="124"/>
      <point x="602" y="304"/>
      <point x="602" y="356" type="curve" smooth="yes"/>
      <point x="602" y="371"/>
      <point x="594" y="377"/>
      <point x="577" y="377" type="curve" smooth="yes"/>
      <point x="559" y="377"/>
      <point x="537" y="369"/>
      <point x="515" y="354" type="curve"/>
      <point x="448" y="143"/>
      <point x="409" y="-14"/>
      <point x="409" y="-77" type="curve" smooth="yes"/>
      <point x="409" y="-137"/>
      <point x="436" y="-170"/>
    </contour>
  </outline>
</glyph>
<glyph name="five" format="2">
  <advance width="618"/>
  <unicode hex="0035"/>
  <outline>
    <contour>
      <point x="197" y="-155" type="curve" smooth="yes"/>
      <point x="402" y="-155"/>
      <point x="556" y="-47"/>
      <point x="556" y="103" type="curve" smooth="yes"/>
      <point x="556" y="228"/>
      <point x="433" y="320"/>
      <point x="266" y="320" type="curve"/>
      <point x="313" y="600" type="line"/>
      <point x="219" y="629" type="line"/>
      <point x="157" y="272" type="line"/>
      <point x="158" y="262"/>
      <point x="165" y="249"/>
      <point x="177" y="249" type="curve" smooth="yes"/>
      <point x="188" y="249"/>
      <point x="217" y="259"/>
      <point x="254" y="259" type="curve" smooth="yes"/>
      <point x="390" y="259"/>
      <point x="446" y="166"/>
      <point x="446" y="93" type="curve" smooth="yes"/>
      <point x="446" y="-7"/>
      <point x="342" y="-89"/>
      <point x="215" y="-89" type="curve"/>
      <point x="191" y="-40"/>
      <point x="154" y="-9"/>
      <point x="115" y="-9" type="curve" smooth="yes"/>
      <point x="75" y="-9"/>
      <point x="40" y="-34"/>
      <point x="40" y="-66" type="curve" smooth="yes"/>
      <point x="40" y="-127"/>
      <point x="87" y="-155"/>
    </contour>
    <contour>
      <point x="406" y="566" type="curve" smooth="yes"/>
      <point x="493" y="566"/>
      <point x="583" y="589"/>
      <point x="583" y="651" type="curve" smooth="yes"/>
      <point x="583" y="673"/>
      <point x="578" y="695"/>
      <point x="568" y="705" type="curve"/>
      <point x="480" y="665"/>
      <point x="386" y="637"/>
      <point x="305" y="633" type="curve"/>
      <point x="287" y="670"/>
      <point x="258" y="699"/>
      <point x="221" y="699" type="curve" smooth="yes"/>
      <point x="183" y="699"/>
      <point x="165" y="682"/>
      <point x="165" y="648" type="curve" smooth="yes"/>
      <point x="165" y="591"/>
      <point x="237" y="566"/>
    </contour>
  </outline>
</glyph>
<glyph name="six" format="2">
  <advance width="700"/>
  <unicode hex="0036"/>
  <outline>
    <contour>
      <point x="336" y="-25" type="curve" smooth="yes"/>
      <point x="492" y="-25"/>
      <point x="629" y="97"/>
      <point x="629" y="261" type="curve" smooth="yes"/>
      <point x="629" y="396"/>
      <point x="554" y="497"/>
      <point x="416" y="497" type="curve" smooth="yes"/>
      <point x="353" y="497"/>
      <point x="285" y="476"/>
      <point x="223" y="390" type="curve"/>
      <point x="218" y="390" type="line"/>
      <point x="324" y="657"/>
      <point x="495" y="737"/>
      <point x="601" y="780" type="curve"/>
      <point x="585" y="818"/>
      <point x="565" y="827"/>
      <point x="530" y="827" type="curve" smooth="yes"/>
      <point x="375" y="827"/>
      <point x="100" y="557"/>
      <point x="100" y="250" type="curve" smooth="yes"/>
      <point x="100" y="66"/>
      <point x="199" y="-25"/>
    </contour>
    <contour>
      <point x="345" y="39" type="curve" smooth="yes"/>
      <point x="242" y="39"/>
      <point x="208" y="128"/>
      <point x="208" y="215" type="curve" smooth="yes"/>
      <point x="208" y="357"/>
      <point x="305" y="428"/>
      <point x="372" y="428" type="curve" smooth="yes"/>
      <point x="487" y="428"/>
      <point x="521" y="347"/>
      <point x="521" y="268" type="curve" smooth="yes"/>
      <point x="521" y="113"/>
      <point x="418" y="39"/>
    </contour>
  </outline>
</glyph>
<glyph name="seven" format="2">
  <advance width="555"/>
  <unicode hex="0037"/>
  <outline>
    <contour>
      <point x="236" y="-121" type="curve" smooth="yes"/>
      <point x="257" y="-121"/>
      <point x="280" y="-115"/>
      <point x="304" y="-98" type="curve"/>
      <point x="290" y="-68"/>
      <point x="289" y="-43"/>
      <point x="289" y="-6" type="curve" smooth="yes"/>
      <point x="289" y="221"/>
      <point x="422" y="497"/>
      <point x="532" y="661" type="curve"/>
      <point x="420" y="617" type="line"/>
      <point x="269" y="377"/>
      <point x="166" y="127"/>
      <point x="166" y="-30" type="curve" smooth="yes"/>
      <point x="166" y="-96"/>
      <point x="193" y="-121"/>
    </contour>
    <contour>
      <point x="340" y="571" type="curve" smooth="yes"/>
      <point x="499" y="571"/>
      <point x="565" y="593"/>
      <point x="565" y="651" type="curve" smooth="yes"/>
      <point x="565" y="686"/>
      <point x="546" y="704"/>
      <point x="506" y="704" type="curve" smooth="yes"/>
      <point x="471" y="704"/>
      <point x="441" y="676"/>
      <point x="421" y="638" type="curve"/>
      <point x="321" y="643"/>
      <point x="195" y="670"/>
      <point x="97" y="711" type="curve"/>
      <point x="88" y="700"/>
      <point x="80" y="676"/>
      <point x="80" y="653" type="curve" smooth="yes"/>
      <point x="80" y="594"/>
      <point x="154" y="571"/>
    </contour>
  </outline>
</glyph>
<glyph name="eight" format="2">
  <advance width="656"/>
  <unicode hex="0038"/>
  <outline>
    <contour>
      <point x="323" y="-26" type="curve" smooth="yes"/>
      <point x="484" y="-26"/>
      <point x="596" y="61"/>
      <point x="596" y="184" type="curve" smooth="yes"/>
      <point x="596" y="390"/>
      <point x="238" y="436"/>
      <point x="238" y="598" type="curve" smooth="yes"/>
      <point x="238" y="669"/>
      <point x="298" y="705"/>
      <point x="373" y="705" type="curve" smooth="yes"/>
      <point x="447" y="705"/>
      <point x="492" y="666"/>
      <point x="492" y="605" type="curve" smooth="yes"/>
      <point x="492" y="535"/>
      <point x="462" y="468"/>
      <point x="293" y="390" type="curve" smooth="yes"/>
      <point x="124" y="309"/>
      <point x="80" y="231"/>
      <point x="80" y="157" type="curve" smooth="yes"/>
      <point x="80" y="42"/>
      <point x="175" y="-26"/>
    </contour>
    <contour>
      <point x="331" y="52" type="curve" smooth="yes"/>
      <point x="242" y="52"/>
      <point x="175" y="93"/>
      <point x="175" y="156" type="curve" smooth="yes"/>
      <point x="175" y="240"/>
      <point x="257" y="314"/>
      <point x="366" y="363" type="curve" smooth="yes"/>
      <point x="507" y="427"/>
      <point x="587" y="514"/>
      <point x="587" y="605" type="curve" smooth="yes"/>
      <point x="587" y="713"/>
      <point x="505" y="783"/>
      <point x="374" y="783" type="curve" smooth="yes"/>
      <point x="226" y="783"/>
      <point x="128" y="705"/>
      <point x="128" y="588" type="curve" smooth="yes"/>
      <point x="128" y="385"/>
      <point x="487" y="317"/>
      <point x="487" y="178" type="curve" smooth="yes"/>
      <point x="487" y="95"/>
      <point x="415" y="52"/>
    </contour>
  </outline>
</glyph>
<glyph name="nine" format="2">
  <advance width="679"/>
  <unicode hex="0039"/>
  <outline>
    <contour>
      <point x="180" y="-152" type="curve" smooth="yes"/>
      <point x="335" y="-152"/>
      <point x="609" y="118"/>
      <point x="609" y="425" type="curve" smooth="yes"/>
      <point x="609" y="609"/>
      <point x="510" y="700"/>
      <point x="373" y="700" type="curve" smooth="yes"/>
      <point x="217" y="700"/>
      <point x="80" y="579"/>
      <point x="80" y="414" type="curve" smooth="yes"/>
      <point x="80" y="280"/>
      <point x="155" y="179"/>
      <point x="293" y="179" type="curve" smooth="yes"/>
      <point x="357" y="179"/>
      <point x="425" y="199"/>
      <point x="486" y="285" type="curve"/>
      <point x="491" y="285" type="line"/>
      <point x="386" y="19"/>
      <point x="215" y="-62"/>
      <point x="109" y="-105" type="curve"/>
      <point x="125" y="-143"/>
      <point x="145" y="-152"/>
    </contour>
    <contour>
      <point x="337" y="247" type="curve" smooth="yes"/>
      <point x="222" y="247"/>
      <point x="188" y="329"/>
      <point x="188" y="407" type="curve" smooth="yes"/>
      <point x="188" y="562"/>
      <point x="291" y="636"/>
      <point x="364" y="636" type="curve" smooth="yes"/>
      <point x="467" y="636"/>
      <point x="501" y="547"/>
      <point x="501" y="460" type="curve" smooth="yes"/>
      <point x="501" y="318"/>
      <point x="404" y="247"/>
    </contour>
  </outline>
</glyph>
<glyph name="greater" format="2">
  <advance width="751"/>
  <unicode hex="003E"/>
  <outline>
    <contour>
      <point x="586" y="303" type="line"/>
      <point x="608" y="326"/>
      <point x="634" y="357"/>
      <point x="634" y="374" type="curve" smooth="yes"/>
      <point x="634" y="388"/>
      <point x="620" y="398"/>
      <point x="594" y="414" type="curve" smooth="yes"/>
      <point x="220" y="622" type="line"/>
      <point x="198" y="600"/>
      <point x="172" y="567"/>
      <point x="172" y="551" type="curve" smooth="yes"/>
      <point x="172" y="537"/>
      <point x="187" y="527"/>
      <point x="213" y="511" type="curve" smooth="yes"/>
    </contour>
    <contour>
      <point x="160" y="115" type="curve" smooth="yes"/>
      <point x="170" y="115"/>
      <point x="182" y="119"/>
      <point x="198" y="126" type="curve" smooth="yes"/>
      <point x="586" y="303" type="line"/>
      <point x="584" y="333"/>
      <point x="580" y="356"/>
      <point x="572" y="371" type="curve" smooth="yes"/>
      <point x="565" y="385"/>
      <point x="556" y="392"/>
      <point x="543" y="392" type="curve" smooth="yes"/>
      <point x="533" y="392"/>
      <point x="522" y="388"/>
      <point x="507" y="381" type="curve" smooth="yes"/>
      <point x="118" y="204" type="line"/>
      <point x="122" y="157"/>
      <point x="131" y="115"/>
    </contour>
  </outline>
</glyph>
<glyph name="question" format="2">
  <advance width="601"/>
  <unicode hex="003F"/>
  <outline>
    <contour>
      <point x="262" y="235" type="curve" smooth="yes"/>
      <point x="388" y="235"/>
      <point x="541" y="362"/>
      <point x="541" y="542" type="curve" smooth="yes"/>
      <point x="541" y="659"/>
      <point x="481" y="775"/>
      <point x="313" y="775" type="curve" smooth="yes"/>
      <point x="112" y="775"/>
      <point x="60" y="625"/>
      <point x="60" y="568" type="curve" smooth="yes"/>
      <point x="60" y="528"/>
      <point x="77" y="506"/>
      <point x="109" y="506" type="curve"/>
      <point x="134" y="626"/>
      <point x="217" y="684"/>
      <point x="295" y="684" type="curve" smooth="yes"/>
      <point x="378" y="684"/>
      <point x="427" y="626"/>
      <point x="427" y="537" type="curve" smooth="yes"/>
      <point x="427" y="397"/>
      <point x="311" y="297"/>
      <point x="201" y="289" type="curve"/>
      <point x="201" y="258"/>
      <point x="230" y="235"/>
    </contour>
    <component base="period" xOffset="62"/>
  </outline>
</glyph>
<glyph name="at" format="2">
  <advance width="1083"/>
  <unicode hex="0040"/>
  <outline>
    <contour>
      <point x="508" y="-235" type="curve" smooth="yes"/>
      <point x="736" y="-235"/>
      <point x="939" y="-136"/>
      <point x="939" y="-27" type="curve" smooth="yes"/>
      <point x="939" y="-10"/>
      <point x="935" y="8"/>
      <point x="926" y="28" type="curve"/>
      <point x="825" y="-77"/>
      <point x="693" y="-132"/>
      <point x="543" y="-132" type="curve" smooth="yes"/>
      <point x="291" y="-132"/>
      <point x="156" y="1"/>
      <point x="156" y="243" type="curve" smooth="yes"/>
      <point x="156" y="517"/>
      <point x="371" y="738"/>
      <point x="645" y="738" type="curve" smooth="yes"/>
      <point x="885" y="738"/>
      <point x="971" y="609"/>
      <point x="971" y="474" type="curve" smooth="yes"/>
      <point x="971" y="339"/>
      <point x="875" y="189"/>
      <point x="729" y="151" type="curve"/>
      <point x="693" y="90" type="line"/>
      <point x="905" y="90"/>
      <point x="1044" y="296"/>
      <point x="1044" y="482" type="curve" smooth="yes"/>
      <point x="1044" y="646"/>
      <point x="929" y="800"/>
      <point x="650" y="800" type="curve" smooth="yes"/>
      <point x="321" y="800"/>
      <point x="69" y="536"/>
      <point x="69" y="197" type="curve" smooth="yes"/>
      <point x="69" y="-66"/>
      <point x="237" y="-235"/>
    </contour>
    <contour>
      <point x="480" y="90" type="curve" smooth="yes"/>
      <point x="543" y="90"/>
      <point x="600" y="128"/>
      <point x="637" y="193" type="curve"/>
      <point x="645" y="190" type="line"/>
      <point x="642" y="174"/>
      <point x="641" y="161"/>
      <point x="641" y="150" type="curve" smooth="yes"/>
      <point x="641" y="111"/>
      <point x="658" y="90"/>
      <point x="693" y="90" type="curve" smooth="yes"/>
      <point x="710" y="90"/>
      <point x="726" y="96"/>
      <point x="743" y="112" type="curve"/>
      <point x="732" y="118"/>
      <point x="729" y="133"/>
      <point x="729" y="151" type="curve" smooth="yes"/>
      <point x="729" y="283"/>
      <point x="783" y="417"/>
      <point x="783" y="476" type="curve" smooth="yes"/>
      <point x="783" y="498"/>
      <point x="767" y="510"/>
      <point x="743" y="510" type="curve" smooth="yes"/>
      <point x="724" y="510"/>
      <point x="707" y="502"/>
      <point x="694" y="487" type="curve"/>
      <point x="667" y="270"/>
      <point x="611" y="162"/>
      <point x="520" y="162" type="curve" smooth="yes"/>
      <point x="473" y="162"/>
      <point x="445" y="196"/>
      <point x="445" y="257" type="curve" smooth="yes"/>
      <point x="445" y="388"/>
      <point x="529" y="487"/>
      <point x="707" y="487" type="curve"/>
      <point x="707" y="499"/>
      <point x="704" y="511"/>
      <point x="699" y="521" type="curve"/>
      <point x="676" y="525"/>
      <point x="653" y="527"/>
      <point x="631" y="527" type="curve" smooth="yes"/>
      <point x="479" y="527"/>
      <point x="354" y="407"/>
      <point x="354" y="248" type="curve" smooth="yes"/>
      <point x="354" y="152"/>
      <point x="405" y="90"/>
    </contour>
  </outline>
</glyph>
<glyph name="A" format="2">
  <advance width="674"/>
  <unicode hex="0041"/>
  <anchor x="313" y="0" name="bottom"/>
  <anchor x="619" y="-1" name="ogonek"/>
  <anchor x="438" y="710" name="top"/>
  <outline>
    <contour>
      <point x="98" y="-23" type="curve" smooth="yes"/>
      <point x="127" y="-23"/>
      <point x="146" y="-17"/>
      <point x="166" y="-1" type="curve"/>
      <point x="157" y="20"/>
      <point x="153" y="47"/>
      <point x="153" y="83" type="curve" smooth="yes"/>
      <point x="153" y="181"/>
      <point x="234" y="355"/>
      <point x="431" y="644" type="curve"/>
      <point x="443" y="644" type="line"/>
      <point x="443" y="594"/>
      <point x="443" y="512"/>
      <point x="443" y="378" type="curve" smooth="yes"/>
      <point x="443" y="62"/>
      <point x="465" y="-23"/>
      <point x="554" y="-23" type="curve" smooth="yes"/>
      <point x="578" y="-23"/>
      <point x="600" y="-16"/>
      <point x="619" y="-1" type="curve"/>
      <point x="527" y="88"/>
      <point x="546" y="498"/>
      <point x="546" y="665" type="curve" smooth="yes"/>
      <point x="546" y="713"/>
      <point x="530" y="734"/>
      <point x="498" y="734" type="curve" smooth="yes"/>
      <point x="481" y="734"/>
      <point x="467" y="728"/>
      <point x="454" y="715" type="curve"/>
      <point x="449" y="728"/>
      <point x="436" y="734"/>
      <point x="411" y="734" type="curve" smooth="yes"/>
      <point x="379" y="734"/>
      <point x="355" y="726"/>
      <point x="325" y="707" type="curve"/>
      <point x="355" y="676" type="line"/>
      <point x="158" y="391"/>
      <point x="50" y="165"/>
      <point x="50" y="57" type="curve" smooth="yes"/>
      <point x="50" y="5"/>
      <point x="67" y="-23"/>
    </contour>
    <contour>
      <point x="136" y="194" type="line"/>
      <point x="484" y="194" type="line"/>
      <point x="495" y="253" type="line"/>
      <point x="149" y="253" type="line"/>
    </contour>
  </outline>
</glyph>
<glyph name="B" format="2">
  <advance width="790"/>
  <unicode hex="0042"/>
  <outline>
    <contour>
      <point x="393" y="-26" type="curve" smooth="yes"/>
      <point x="560" y="-26"/>
      <point x="682" y="65"/>
      <point x="682" y="190" type="curve" smooth="yes"/>
      <point x="682" y="283"/>
      <point x="619" y="348"/>
      <point x="512" y="368" type="curve"/>
      <point x="618" y="415"/>
      <point x="679" y="490"/>
      <point x="679" y="574" type="curve" smooth="yes"/>
      <point x="679" y="668"/>
      <point x="613" y="727"/>
      <point x="506" y="727" type="curve" smooth="yes"/>
      <point x="443" y="727"/>
      <point x="378" y="710"/>
      <point x="310" y="677" type="curve"/>
      <point x="311" y="709"/>
      <point x="298" y="726"/>
      <point x="272" y="726" type="curve" smooth="yes"/>
      <point x="248" y="726"/>
      <point x="213" y="713"/>
      <point x="175" y="692" type="curve"/>
      <point x="201" y="642" type="line"/>
      <point x="143" y="315"/>
      <point x="122" y="166"/>
      <point x="122" y="85" type="curve" smooth="yes"/>
      <point x="122" y="18"/>
      <point x="225" y="-26"/>
    </contour>
    <contour>
      <point x="383" y="38" type="curve" smooth="yes"/>
      <point x="328" y="38"/>
      <point x="267" y="49"/>
      <point x="222" y="66" type="curve"/>
      <point x="234" y="244"/>
      <point x="259" y="411"/>
      <point x="303" y="617" type="curve"/>
      <point x="359" y="642"/>
      <point x="412" y="653"/>
      <point x="466" y="653" type="curve" smooth="yes"/>
      <point x="536" y="653"/>
      <point x="571" y="622"/>
      <point x="571" y="563" type="curve" smooth="yes"/>
      <point x="571" y="450"/>
      <point x="444" y="372"/>
      <point x="240" y="362" type="curve"/>
      <point x="233" y="300" type="line"/>
      <point x="295" y="315"/>
      <point x="353" y="322"/>
      <point x="402" y="322" type="curve" smooth="yes"/>
      <point x="512" y="322"/>
      <point x="575" y="271"/>
      <point x="575" y="183" type="curve" smooth="yes"/>
      <point x="575" y="96"/>
      <point x="500" y="38"/>
    </contour>
  </outline>
</glyph>
<glyph name="C" format="2">
  <advance width="631"/>
  <unicode hex="0043"/>
  <anchor x="263" y="0" name="bottom"/>
  <anchor x="435" y="696" name="top"/>
  <outline>
    <contour>
      <point x="318" y="-25" type="curve" smooth="yes"/>
      <point x="453" y="-25"/>
      <point x="567" y="65"/>
      <point x="567" y="171" type="curve" smooth="yes"/>
      <point x="567" y="218"/>
      <point x="539" y="234"/>
      <point x="497" y="234" type="curve"/>
      <point x="489" y="122"/>
      <point x="420" y="36"/>
      <point x="311" y="36" type="curve" smooth="yes"/>
      <point x="218" y="36"/>
      <point x="162" y="115"/>
      <point x="162" y="247" type="curve" smooth="yes"/>
      <point x="162" y="440"/>
      <point x="262" y="594"/>
      <point x="399" y="653" type="curve"/>
      <point x="431" y="590"/>
      <point x="481" y="575"/>
      <point x="530" y="575" type="curve" smooth="yes"/>
      <point x="580" y="575"/>
      <point x="619" y="607"/>
      <point x="619" y="649" type="curve" smooth="yes"/>
      <point x="619" y="698"/>
      <point x="566" y="726"/>
      <point x="478" y="726" type="curve" smooth="yes"/>
      <point x="247" y="726"/>
      <point x="56" y="523"/>
      <point x="56" y="256" type="curve" smooth="yes"/>
      <point x="56" y="78"/>
      <point x="155" y="-25"/>
    </contour>
  </outline>
</glyph>
<glyph name="D" format="2">
  <advance width="829"/>
  <unicode hex="0044"/>
  <anchor x="358" y="0" name="bottom"/>
  <anchor x="228" y="355" name="center"/>
  <anchor x="483" y="710" name="top"/>
  <outline>
    <contour>
      <point x="334" y="-25" type="curve" smooth="yes"/>
      <point x="585" y="-25"/>
      <point x="757" y="149"/>
      <point x="757" y="404" type="curve" smooth="yes"/>
      <point x="757" y="602"/>
      <point x="648" y="726"/>
      <point x="476" y="726" type="curve" smooth="yes"/>
      <point x="356" y="726"/>
      <point x="305" y="676"/>
      <point x="241" y="635" type="curve"/>
      <point x="241" y="592" type="line"/>
      <point x="313" y="632"/>
      <point x="340" y="659"/>
      <point x="445" y="659" type="curve" smooth="yes"/>
      <point x="579" y="659"/>
      <point x="650" y="565"/>
      <point x="650" y="387" type="curve" smooth="yes"/>
      <point x="650" y="183"/>
      <point x="525" y="38"/>
      <point x="348" y="38" type="curve" smooth="yes"/>
      <point x="300" y="38"/>
      <point x="265" y="43"/>
      <point x="222" y="55" type="curve"/>
      <point x="222" y="165"/>
      <point x="307" y="654"/>
      <point x="307" y="683" type="curve" smooth="yes"/>
      <point x="307" y="712"/>
      <point x="294" y="726"/>
      <point x="270" y="726" type="curve" smooth="yes"/>
      <point x="250" y="726"/>
      <point x="215" y="713"/>
      <point x="175" y="692" type="curve"/>
      <point x="201" y="642" type="line"/>
      <point x="145" y="313"/>
      <point x="123" y="154"/>
      <point x="123" y="85" type="curve" smooth="yes"/>
      <point x="123" y="8"/>
      <point x="190" y="-25"/>
    </contour>
  </outline>
</glyph>
<glyph name="E" format="2">
  <advance width="568"/>
  <unicode hex="0045"/>
  <anchor x="327" y="0" name="bottom"/>
  <anchor x="526" y="10" name="ogonek"/>
  <anchor x="397" y="710" name="top"/>
  <anchor x="20" y="710" name="topleft"/>
  <outline>
    <contour>
      <point x="178" y="-26" type="curve" smooth="yes"/>
      <point x="207" y="-26"/>
      <point x="237" y="-15"/>
      <point x="273" y="10" type="curve"/>
      <point x="238" y="25"/>
      <point x="221" y="47"/>
      <point x="221" y="74" type="curve" smooth="yes"/>
      <point x="221" y="169"/>
      <point x="308" y="654"/>
      <point x="308" y="683" type="curve" smooth="yes"/>
      <point x="308" y="712"/>
      <point x="296" y="726"/>
      <point x="272" y="726" type="curve" smooth="yes"/>
      <point x="245" y="726"/>
      <point x="210" y="713"/>
      <point x="175" y="692" type="curve"/>
      <point x="201" y="642" type="line"/>
      <point x="138" y="255"/>
      <point x="120" y="123"/>
      <point x="120" y="42" type="curve" smooth="yes"/>
      <point x="120" y="-6"/>
      <point x="138" y="-26"/>
    </contour>
    <contour>
      <point x="387" y="-25" type="curve" smooth="yes"/>
      <point x="494" y="-25"/>
      <point x="539" y="-5"/>
      <point x="539" y="44" type="curve" smooth="yes"/>
      <point x="539" y="55"/>
      <point x="537" y="62"/>
      <point x="531" y="82" type="curve"/>
      <point x="501" y="71"/>
      <point x="472" y="64"/>
      <point x="432" y="60" type="curve"/>
      <point x="204" y="60" type="line"/>
      <point x="163" y="34" type="line"/>
      <point x="212" y="-1"/>
      <point x="304" y="-25"/>
    </contour>
    <contour>
      <point x="357" y="288" type="curve" smooth="yes"/>
      <point x="413" y="288"/>
      <point x="443" y="313"/>
      <point x="443" y="358" type="curve" smooth="yes"/>
      <point x="443" y="363"/>
      <point x="443" y="370"/>
      <point x="443" y="377" type="curve"/>
      <point x="374" y="360" type="line"/>
      <point x="323" y="360"/>
      <point x="278" y="362"/>
      <point x="235" y="367" type="curve"/>
      <point x="222" y="309" type="line"/>
      <point x="277" y="294"/>
      <point x="316" y="288"/>
    </contour>
    <contour>
      <point x="484" y="604" type="curve" smooth="yes"/>
      <point x="535" y="604"/>
      <point x="592" y="621"/>
      <point x="592" y="683" type="curve" smooth="yes"/>
      <point x="592" y="693"/>
      <point x="592" y="704"/>
      <point x="587" y="720" type="curve"/>
      <point x="472" y="698"/>
      <point x="404" y="682"/>
      <point x="270" y="682" type="curve"/>
      <point x="243" y="640" type="line"/>
      <point x="327" y="612"/>
      <point x="399" y="604"/>
    </contour>
  </outline>
</glyph>
<glyph name="F" format="2">
  <advance width="508"/>
  <unicode hex="0046"/>
  <outline>
    <contour>
      <point x="178" y="-26" type="curve" smooth="yes"/>
      <point x="197" y="-26"/>
      <point x="217" y="-20"/>
      <point x="243" y="-5" type="curve"/>
      <point x="229" y="13"/>
      <point x="221" y="41"/>
      <point x="221" y="74" type="curve" smooth="yes"/>
      <point x="221" y="169"/>
      <point x="308" y="654"/>
      <point x="308" y="683" type="curve" smooth="yes"/>
      <point x="308" y="712"/>
      <point x="296" y="726"/>
      <point x="272" y="726" type="curve" smooth="yes"/>
      <point x="245" y="726"/>
      <point x="210" y="713"/>
      <point x="175" y="692" type="curve"/>
      <point x="201" y="642" type="line"/>
      <point x="138" y="255"/>
      <point x="120" y="123"/>
      <point x="120" y="42" type="curve" smooth="yes"/>
      <point x="120" y="-6"/>
      <point x="138" y="-26"/>
    </contour>
    <contour>
      <point x="357" y="288" type="curve" smooth="yes"/>
      <point x="413" y="288"/>
      <point x="443" y="313"/>
      <point x="443" y="358" type="curve" smooth="yes"/>
      <point x="443" y="363"/>
      <point x="443" y="370"/>
      <point x="443" y="377" type="curve"/>
      <point x="374" y="360" type="line"/>
      <point x="323" y="360"/>
      <point x="278" y="362"/>
      <point x="235" y="367" type="curve"/>
      <point x="222" y="309" type="line"/>
      <point x="277" y="294"/>
      <point x="316" y="288"/>
    </contour>
    <contour>
      <point x="474" y="604" type="curve" smooth="yes"/>
      <point x="525" y="604"/>
      <point x="582" y="621"/>
      <point x="582" y="683" type="curve" smooth="yes"/>
      <point x="582" y="693"/>
      <point x="582" y="704"/>
      <point x="577" y="720" type="curve"/>
      <point x="462" y="698"/>
      <point x="394" y="682"/>
      <point x="260" y="682" type="curve"/>
      <point x="233" y="640" type="line"/>
      <point x="317" y="612"/>
      <point x="389" y="604"/>
    </contour>
  </outline>
</glyph>
<glyph name="G" format="2">
  <advance width="725"/>
  <unicode hex="0047"/>
  <anchor x="211" y="0" name="bottom"/>
  <anchor x="557" y="-167" name="ogonek"/>
  <anchor x="418" y="696" name="top"/>
  <outline>
    <contour>
      <point x="328" y="-30" type="curve" smooth="yes"/>
      <point x="455" y="-30"/>
      <point x="562" y="76"/>
      <point x="562" y="201" type="curve" smooth="yes"/>
      <point x="562" y="269"/>
      <point x="554" y="294"/>
      <point x="545" y="294" type="curve"/>
      <point x="537" y="148"/>
      <point x="452" y="36"/>
      <point x="320" y="36" type="curve" smooth="yes"/>
      <point x="221" y="36"/>
      <point x="162" y="115"/>
      <point x="162" y="247" type="curve" smooth="yes"/>
      <point x="162" y="440"/>
      <point x="269" y="594"/>
      <point x="413" y="653" type="curve"/>
      <point x="446" y="590"/>
      <point x="499" y="575"/>
      <point x="548" y="575" type="curve" smooth="yes"/>
      <point x="601" y="575"/>
      <point x="640" y="607"/>
      <point x="640" y="649" type="curve" smooth="yes"/>
      <point x="640" y="698"/>
      <point x="587" y="726"/>
      <point x="495" y="726" type="curve" smooth="yes"/>
      <point x="256" y="726"/>
      <point x="56" y="523"/>
      <point x="56" y="256" type="curve" smooth="yes"/>
      <point x="56" y="75"/>
      <point x="159" y="-30"/>
    </contour>
    <contour>
      <point x="500" y="-185" type="curve" smooth="yes"/>
      <point x="523" y="-185"/>
      <point x="540" y="-179"/>
      <point x="557" y="-167" type="curve"/>
      <point x="548" y="-160"/>
      <point x="543" y="-147"/>
      <point x="543" y="-128" type="curve" smooth="yes"/>
      <point x="543" y="17"/>
      <point x="642" y="313"/>
      <point x="642" y="333" type="curve" smooth="yes"/>
      <point x="642" y="367"/>
      <point x="627" y="377"/>
      <point x="591" y="377" type="curve" smooth="yes"/>
      <point x="560" y="377"/>
      <point x="513" y="361"/>
      <point x="483" y="332" type="curve"/>
      <point x="545" y="294" type="line"/>
      <point x="552" y="221" type="line"/>
      <point x="475" y="40" type="line"/>
      <point x="453" y="-51"/>
      <point x="445" y="-105"/>
      <point x="445" y="-134" type="curve" smooth="yes"/>
      <point x="445" y="-172"/>
      <point x="464" y="-185"/>
    </contour>
  </outline>
</glyph>
<glyph name="H" format="2">
  <advance width="814"/>
  <unicode hex="0048"/>
  <anchor x="384" y="0" name="bottom"/>
  <anchor x="458" y="522" name="center"/>
  <anchor x="484" y="710" name="top"/>
  <anchor x="20" y="710" name="topleft"/>
  <outline>
    <contour>
      <point x="623" y="-26" type="curve" smooth="yes"/>
      <point x="644" y="-26"/>
      <point x="664" y="-20"/>
      <point x="688" y="-5" type="curve"/>
      <point x="674" y="13"/>
      <point x="666" y="41"/>
      <point x="666" y="74" type="curve" smooth="yes"/>
      <point x="666" y="169"/>
      <point x="753" y="654"/>
      <point x="753" y="683" type="curve" smooth="yes"/>
      <point x="753" y="712"/>
      <point x="741" y="726"/>
      <point x="717" y="726" type="curve" smooth="yes"/>
      <point x="690" y="726"/>
      <point x="655" y="713"/>
      <point x="620" y="692" type="curve"/>
      <point x="646" y="642" type="line"/>
      <point x="583" y="259"/>
      <point x="565" y="124"/>
      <point x="565" y="42" type="curve" smooth="yes"/>
      <point x="565" y="-6"/>
      <point x="583" y="-26"/>
    </contour>
    <contour>
      <point x="178" y="-26" type="curve" smooth="yes"/>
      <point x="199" y="-26"/>
      <point x="219" y="-20"/>
      <point x="243" y="-5" type="curve"/>
      <point x="229" y="13"/>
      <point x="221" y="41"/>
      <point x="221" y="74" type="curve" smooth="yes"/>
      <point x="221" y="169"/>
      <point x="308" y="654"/>
      <point x="308" y="683" type="curve" smooth="yes"/>
      <point x="308" y="712"/>
      <point x="296" y="726"/>
      <point x="272" y="726" type="curve" smooth="yes"/>
      <point x="245" y="726"/>
      <point x="210" y="713"/>
      <point x="175" y="692" type="curve"/>
      <point x="201" y="642" type="line"/>
      <point x="138" y="259"/>
      <point x="120" y="124"/>
      <point x="120" y="42" type="curve" smooth="yes"/>
      <point x="120" y="-6"/>
      <point x="138" y="-26"/>
    </contour>
    <contour>
      <point x="191" y="297" type="line"/>
      <point x="629" y="297" type="line"/>
      <point x="640" y="356" type="line"/>
      <point x="204" y="356" type="line"/>
    </contour>
  </outline>
</glyph>
<glyph name="I" format="2">
  <advance width="369"/>
  <unicode hex="0049"/>
  <anchor x="163" y="0" name="bottom"/>
  <anchor x="243" y="-4" name="ogonek"/>
  <anchor x="263" y="710" name="top"/>
  <anchor x="20" y="710" name="topleft"/>
  <outline>
    <contour>
      <point x="178" y="-25" type="curve" smooth="yes"/>
      <point x="199" y="-25"/>
      <point x="219" y="-19"/>
      <point x="243" y="-4" type="curve"/>
      <point x="229" y="14"/>
      <point x="221" y="42"/>
      <point x="221" y="75" type="curve" smooth="yes"/>
      <point x="221" y="170"/>
      <point x="308" y="654"/>
      <point x="308" y="683" type="curve" smooth="yes"/>
      <point x="308" y="712"/>
      <point x="296" y="726"/>
      <point x="272" y="726" type="curve" smooth="yes"/>
      <point x="245" y="726"/>
      <point x="210" y="713"/>
      <point x="175" y="692" type="curve"/>
      <point x="201" y="642" type="line"/>
      <point x="138" y="260"/>
      <point x="120" y="125"/>
      <point x="120" y="43" type="curve" smooth="yes"/>
      <point x="120" y="-5"/>
      <point x="138" y="-25"/>
    </contour>
  </outline>
</glyph>
<glyph name="J" format="2">
  <advance width="523"/>
  <unicode hex="004A"/>
  <anchor x="200" y="0" name="bottom"/>
  <anchor x="325" y="710" name="top"/>
  <outline>
    <contour>
      <point x="139" y="-25" type="curve" smooth="yes"/>
      <point x="325" y="-25"/>
      <point x="395" y="72"/>
      <point x="424" y="269" type="curve" smooth="yes"/>
      <point x="483" y="683" type="line"/>
      <point x="381" y="643" type="line"/>
      <point x="330" y="269" type="line" smooth="yes"/>
      <point x="305" y="84"/>
      <point x="262" y="31"/>
      <point x="157" y="27" type="curve"/>
      <point x="183" y="16" type="line"/>
      <point x="167" y="51"/>
      <point x="145" y="114"/>
      <point x="80" y="114" type="curve" smooth="yes"/>
      <point x="34" y="114"/>
      <point x="15" y="85"/>
      <point x="15" y="58" type="curve" smooth="yes"/>
      <point x="15" y="-1"/>
      <point x="81" y="-25"/>
    </contour>
    <contour>
      <point x="346" y="585" type="curve" smooth="yes"/>
      <point x="467" y="585"/>
      <point x="514" y="609"/>
      <point x="514" y="670" type="curve" smooth="yes"/>
      <point x="514" y="706"/>
      <point x="490" y="726"/>
      <point x="456" y="726" type="curve" smooth="yes"/>
      <point x="417" y="726"/>
      <point x="389" y="700"/>
      <point x="378" y="656" type="curve"/>
      <point x="295" y="660"/>
      <point x="187" y="690"/>
      <point x="105" y="732" type="curve"/>
      <point x="97" y="721"/>
      <point x="90" y="696"/>
      <point x="90" y="673" type="curve" smooth="yes"/>
      <point x="90" y="610"/>
      <point x="162" y="585"/>
    </contour>
  </outline>
</glyph>
<glyph name="K" format="2">
  <advance width="676"/>
  <unicode hex="004B"/>
  <anchor x="321" y="0" name="bottom"/>
  <anchor x="421" y="710" name="top"/>
  <outline>
    <contour>
      <point x="212" y="246" type="line"/>
      <point x="412" y="386" type="line" smooth="yes"/>
      <point x="592" y="510"/>
      <point x="662" y="584"/>
      <point x="662" y="662" type="curve" smooth="yes"/>
      <point x="662" y="698"/>
      <point x="635" y="725"/>
      <point x="601" y="725" type="curve" smooth="yes"/>
      <point x="583" y="725"/>
      <point x="563" y="719"/>
      <point x="550" y="709" type="curve"/>
      <point x="555" y="698"/>
      <point x="558" y="688"/>
      <point x="558" y="678" type="curve" smooth="yes"/>
      <point x="558" y="590"/>
      <point x="496" y="518"/>
      <point x="287" y="362" type="curve" smooth="yes"/>
      <point x="210" y="304" type="line"/>
    </contour>
    <contour>
      <point x="178" y="-26" type="curve" smooth="yes"/>
      <point x="198" y="-26"/>
      <point x="218" y="-20"/>
      <point x="243" y="-5" type="curve"/>
      <point x="229" y="13"/>
      <point x="221" y="41"/>
      <point x="221" y="74" type="curve" smooth="yes"/>
      <point x="221" y="169"/>
      <point x="308" y="654"/>
      <point x="308" y="683" type="curve" smooth="yes"/>
      <point x="308" y="712"/>
      <point x="296" y="726"/>
      <point x="272" y="726" type="curve" smooth="yes"/>
      <point x="248" y="726"/>
      <point x="213" y="713"/>
      <point x="175" y="692" type="curve"/>
      <point x="201" y="642" type="line"/>
      <point x="139" y="264"/>
      <point x="120" y="124"/>
      <point x="120" y="42" type="curve" smooth="yes"/>
      <point x="120" y="-6"/>
      <point x="138" y="-26"/>
    </contour>
    <contour>
      <point x="579" y="-25" type="curve" smooth="yes"/>
      <point x="601" y="-25"/>
      <point x="636" y="-13"/>
      <point x="649" y="2" type="curve"/>
      <point x="589" y="58"/>
      <point x="491" y="237"/>
      <point x="420" y="416" type="curve"/>
      <point x="339" y="362" type="line"/>
      <point x="440" y="148" type="line" smooth="yes"/>
      <point x="507" y="1"/>
      <point x="527" y="-25"/>
    </contour>
  </outline>
</glyph>
<glyph name="L" format="2">
  <advance width="540"/>
  <unicode hex="004C"/>
  <anchor x="270" y="0" name="bottom"/>
  <anchor x="410" y="385" name="center"/>
  <anchor x="240" y="710" name="top"/>
  <anchor x="370" y="610" name="topright"/>
  <outline>
    <contour>
      <point x="178" y="-26" type="curve" smooth="yes"/>
      <point x="208" y="-26"/>
      <point x="238" y="-15"/>
      <point x="273" y="10" type="curve"/>
      <point x="238" y="25"/>
      <point x="221" y="47"/>
      <point x="221" y="74" type="curve" smooth="yes"/>
      <point x="221" y="169"/>
      <point x="308" y="654"/>
      <point x="308" y="683" type="curve" smooth="yes"/>
      <point x="308" y="712"/>
      <point x="296" y="726"/>
      <point x="272" y="726" type="curve" smooth="yes"/>
      <point x="245" y="726"/>
      <point x="210" y="713"/>
      <point x="175" y="692" type="curve"/>
      <point x="201" y="642" type="line"/>
      <point x="137" y="254"/>
      <point x="120" y="123"/>
      <point x="120" y="42" type="curve" smooth="yes"/>
      <point x="120" y="-6"/>
      <point x="138" y="-26"/>
    </contour>
    <contour>
      <point x="363" y="-25" type="curve" smooth="yes"/>
      <point x="459" y="-25"/>
      <point x="500" y="-5"/>
      <point x="500" y="44" type="curve" smooth="yes"/>
      <point x="500" y="54"/>
      <point x="499" y="61"/>
      <point x="492" y="82" type="curve"/>
      <point x="462" y="71"/>
      <point x="433" y="64"/>
      <point x="393" y="60" type="curve"/>
      <point x="188" y="60" type="line"/>
      <point x="157" y="26" type="line"/>
      <point x="198" y="-3"/>
      <point x="282" y="-25"/>
    </contour>
  </outline>
</glyph>
<glyph name="M" format="2">
  <advance width="1031"/>
  <unicode hex="004D"/>
  <outline>
    <contour>
      <point x="181" y="-26" type="curve" smooth="yes"/>
      <point x="201" y="-26"/>
      <point x="222" y="-20"/>
      <point x="245" y="-5" type="curve"/>
      <point x="229" y="12"/>
      <point x="222" y="35"/>
      <point x="222" y="64" type="curve" smooth="yes"/>
      <point x="222" y="137"/>
      <point x="267" y="411"/>
      <point x="292" y="594" type="curve"/>
      <point x="297" y="594" type="line"/>
      <point x="417" y="76"/>
      <point x="417" y="41"/>
      <point x="505" y="41" type="curve" smooth="yes"/>
      <point x="530" y="41"/>
      <point x="558" y="52"/>
      <point x="581" y="72" type="curve"/>
      <point x="600" y="184"/>
      <point x="694" y="471"/>
      <point x="848" y="594" type="curve"/>
      <point x="853" y="594" type="line"/>
      <point x="794" y="222"/>
      <point x="782" y="108"/>
      <point x="782" y="30" type="curve" smooth="yes"/>
      <point x="782" y="-13"/>
      <point x="802" y="-28"/>
      <point x="838" y="-28" type="curve" smooth="yes"/>
      <point x="860" y="-28"/>
      <point x="881" y="-21"/>
      <point x="904" y="-7" type="curve"/>
      <point x="888" y="11"/>
      <point x="881" y="33"/>
      <point x="881" y="62" type="curve" smooth="yes"/>
      <point x="881" y="160"/>
      <point x="966" y="660"/>
      <point x="966" y="692" type="curve" smooth="yes"/>
      <point x="966" y="723"/>
      <point x="951" y="728"/>
      <point x="944" y="728" type="curve" smooth="yes"/>
      <point x="790" y="728"/>
      <point x="580" y="435"/>
      <point x="509" y="131" type="curve"/>
      <point x="498" y="131" type="line"/>
      <point x="385" y="643"/>
      <point x="386" y="726"/>
      <point x="270" y="726" type="curve" smooth="yes"/>
      <point x="249" y="726"/>
      <point x="215" y="717"/>
      <point x="175" y="692" type="curve"/>
      <point x="201" y="642" type="line"/>
      <point x="136" y="223"/>
      <point x="123" y="109"/>
      <point x="123" y="32" type="curve" smooth="yes"/>
      <point x="123" y="-11"/>
      <point x="143" y="-26"/>
    </contour>
  </outline>
</glyph>
<glyph name="N" format="2">
  <advance width="839"/>
  <unicode hex="004E"/>
  <anchor x="373" y="0" name="bottom"/>
  <anchor x="498" y="710" name="top"/>
  <outline>
    <contour>
      <point x="648" y="-27" type="curve"/>
      <point x="652" y="83" type="line"/>
      <point x="584" y="84" type="line"/>
      <point x="399" y="656"/>
      <point x="365" y="726"/>
      <point x="271" y="726" type="curve"/>
      <point x="263" y="624" type="line"/>
      <point x="305" y="624" type="line"/>
      <point x="497" y="29"/>
      <point x="526" y="-26"/>
    </contour>
    <contour>
      <point x="178" y="-26" type="curve" smooth="yes"/>
      <point x="199" y="-26"/>
      <point x="219" y="-20"/>
      <point x="243" y="-5" type="curve"/>
      <point x="229" y="13"/>
      <point x="221" y="41"/>
      <point x="221" y="74" type="curve" smooth="yes"/>
      <point x="221" y="169"/>
      <point x="308" y="654"/>
      <point x="308" y="683" type="curve" smooth="yes"/>
      <point x="308" y="712"/>
      <point x="296" y="726"/>
      <point x="272" y="726" type="curve" smooth="yes"/>
      <point x="245" y="726"/>
      <point x="210" y="713"/>
      <point x="175" y="692" type="curve"/>
      <point x="201" y="642" type="line"/>
      <point x="138" y="259"/>
      <point x="120" y="124"/>
      <point x="120" y="42" type="curve" smooth="yes"/>
      <point x="120" y="-6"/>
      <point x="138" y="-26"/>
    </contour>
    <contour>
      <point x="648" y="-27" type="curve" smooth="yes"/>
      <point x="669" y="-27"/>
      <point x="689" y="-20"/>
      <point x="713" y="-6" type="curve"/>
      <point x="699" y="12"/>
      <point x="691" y="41"/>
      <point x="691" y="73" type="curve" smooth="yes"/>
      <point x="691" y="168"/>
      <point x="778" y="654"/>
      <point x="778" y="683" type="curve" smooth="yes"/>
      <point x="778" y="711"/>
      <point x="766" y="726"/>
      <point x="742" y="726" type="curve" smooth="yes"/>
      <point x="714" y="726"/>
      <point x="677" y="713"/>
      <point x="640" y="692" type="curve"/>
      <point x="671" y="642" type="line"/>
      <point x="608" y="259"/>
      <point x="590" y="123"/>
      <point x="590" y="41" type="curve" smooth="yes"/>
      <point x="590" y="-6"/>
      <point x="608" y="-27"/>
    </contour>
  </outline>
</glyph>
<glyph name="O" format="2">
  <advance width="737"/>
  <unicode hex="004F"/>
  <anchor x="357" y="0" name="bottom"/>
  <anchor x="407" y="355" name="center"/>
  <anchor x="498" y="10" name="ogonek"/>
  <anchor x="485" y="710" name="top"/>
  <anchor x="24" y="710" name="topleft"/>
  <anchor x="610" y="610" name="topright"/>
  <outline>
    <contour>
      <point x="334" y="-25" type="curve" smooth="yes"/>
      <point x="551" y="-25"/>
      <point x="710" y="182"/>
      <point x="710" y="445" type="curve" smooth="yes"/>
      <point x="710" y="547"/>
      <point x="673" y="610"/>
      <point x="610" y="610" type="curve" smooth="yes"/>
      <point x="558" y="610"/>
      <point x="520" y="563"/>
      <point x="520" y="501" type="curve" smooth="yes"/>
      <point x="520" y="441"/>
      <point x="542" y="382"/>
      <point x="626" y="346" type="curve"/>
      <point x="603" y="157"/>
      <point x="466" y="36"/>
      <point x="355" y="36" type="curve" smooth="yes"/>
      <point x="242" y="36"/>
      <point x="167" y="118"/>
      <point x="167" y="286" type="curve" smooth="yes"/>
      <point x="167" y="510"/>
      <point x="301" y="650"/>
      <point x="465" y="650" type="curve" smooth="yes"/>
      <point x="482" y="650"/>
      <point x="509" y="646"/>
      <point x="524" y="642" type="curve"/>
      <point x="529" y="654"/>
      <point x="531" y="662"/>
      <point x="531" y="674" type="curve" smooth="yes"/>
      <point x="531" y="709"/>
      <point x="500" y="725"/>
      <point x="440" y="725" type="curve" smooth="yes"/>
      <point x="236" y="725"/>
      <point x="60" y="556"/>
      <point x="60" y="280" type="curve" smooth="yes"/>
      <point x="60" y="94"/>
      <point x="168" y="-25"/>
    </contour>
  </outline>
</glyph>
<glyph name="P" format="2">
  <advance width="687"/>
  <unicode hex="0050"/>
  <outline>
    <contour>
      <point x="384" y="205" type="curve" smooth="yes"/>
      <point x="582" y="205"/>
      <point x="672" y="345"/>
      <point x="672" y="500" type="curve" smooth="yes"/>
      <point x="672" y="617"/>
      <point x="599" y="724"/>
      <point x="464" y="724" type="curve" smooth="yes"/>
      <point x="351" y="724"/>
      <point x="297" y="674"/>
      <point x="235" y="610" type="curve"/>
      <point x="235" y="583" type="line"/>
      <point x="297" y="629"/>
      <point x="352" y="656"/>
      <point x="408" y="656" type="curve" smooth="yes"/>
      <point x="531" y="656"/>
      <point x="569" y="575"/>
      <point x="569" y="486" type="curve" smooth="yes"/>
      <point x="569" y="362"/>
      <point x="487" y="270"/>
      <point x="345" y="270" type="curve" smooth="yes"/>
      <point x="301" y="270"/>
      <point x="255" y="281"/>
      <point x="220" y="306" type="curve"/>
      <point x="175" y="277" type="line"/>
      <point x="231" y="231"/>
      <point x="299" y="205"/>
    </contour>
    <contour>
      <point x="178" y="-26" type="curve" smooth="yes"/>
      <point x="199" y="-26"/>
      <point x="219" y="-20"/>
      <point x="243" y="-5" type="curve"/>
      <point x="229" y="13"/>
      <point x="221" y="41"/>
      <point x="221" y="74" type="curve" smooth="yes"/>
      <point x="221" y="169"/>
      <point x="308" y="654"/>
      <point x="308" y="683" type="curve" smooth="yes"/>
      <point x="308" y="712"/>
      <point x="296" y="726"/>
      <point x="272" y="726" type="curve" smooth="yes"/>
      <point x="245" y="726"/>
      <point x="210" y="713"/>
      <point x="175" y="692" type="curve"/>
      <point x="201" y="642" type="line"/>
      <point x="138" y="259"/>
      <point x="120" y="124"/>
      <point x="120" y="42" type="curve" smooth="yes"/>
      <point x="120" y="-6"/>
      <point x="138" y="-26"/>
    </contour>
  </outline>
</glyph>
<glyph name="Q" format="2">
  <advance width="755"/>
  <unicode hex="0051"/>
  <anchor x="485" y="710" name="top"/>
  <anchor x="24" y="710" name="topleft"/>
  <anchor x="498" y="10" name="ogonek"/>
  <anchor x="357" y="0" name="bottom"/>
  <anchor x="610" y="610" name="topright"/>
  <anchor x="407" y="355" name="center"/>
  <outline>
    <contour>
      <point x="536" y="-172" type="curve" smooth="yes"/>
      <point x="603" y="-172"/>
      <point x="654" y="-135"/>
      <point x="654" y="-58" type="curve" smooth="yes"/>
      <point x="654" y="-44"/>
      <point x="652" y="-32"/>
      <point x="652" y="-22" type="curve"/>
      <point x="605" y="-36"/>
      <point x="555" y="-45"/>
      <point x="491" y="-45" type="curve" smooth="yes"/>
      <point x="369" y="-45"/>
      <point x="268" y="0"/>
      <point x="188" y="0" type="curve" smooth="yes"/>
      <point x="146" y="0"/>
      <point x="109" y="-20"/>
      <point x="109" y="-62" type="curve" smooth="yes"/>
      <point x="109" y="-97"/>
      <point x="133" y="-115"/>
      <point x="163" y="-115" type="curve" smooth="yes"/>
      <point x="208" y="-115"/>
      <point x="241" y="-87"/>
      <point x="257" y="-58" type="curve"/>
      <point x="318" y="-99"/>
      <point x="422" y="-172"/>
    </contour>
    <component base="O"/>
  </outline>
</glyph>
<glyph name="R" format="2">
  <advance width="720"/>
  <unicode hex="0052"/>
  <anchor x="364" y="0" name="bottom"/>
  <anchor x="439" y="710" name="top"/>
  <outline>
    <contour>
      <point x="384" y="250" type="curve" smooth="yes"/>
      <point x="582" y="250"/>
      <point x="672" y="392"/>
      <point x="672" y="515" type="curve" smooth="yes"/>
      <point x="672" y="626"/>
      <point x="599" y="724"/>
      <point x="464" y="724" type="curve" smooth="yes"/>
      <point x="351" y="724"/>
      <point x="297" y="674"/>
      <point x="235" y="610" type="curve"/>
      <point x="235" y="583" type="line"/>
      <point x="297" y="629"/>
      <point x="352" y="656"/>
      <point x="408" y="656" type="curve" smooth="yes"/>
      <point x="531" y="656"/>
      <point x="569" y="584"/>
      <point x="569" y="501" type="curve" smooth="yes"/>
      <point x="569" y="396"/>
      <point x="487" y="315"/>
      <point x="345" y="315" type="curve" smooth="yes"/>
      <point x="301" y="315"/>
      <point x="255" y="326"/>
      <point x="220" y="351" type="curve"/>
      <point x="190" y="322" type="line"/>
      <point x="253" y="267"/>
      <point x="306" y="250"/>
    </contour>
    <contour>
      <point x="178" y="-26" type="curve" smooth="yes"/>
      <point x="199" y="-26"/>
      <point x="219" y="-20"/>
      <point x="243" y="-5" type="curve"/>
      <point x="229" y="13"/>
      <point x="221" y="41"/>
      <point x="221" y="74" type="curve" smooth="yes"/>
      <point x="221" y="199"/>
      <point x="308" y="654"/>
      <point x="308" y="683" type="curve" smooth="yes"/>
      <point x="308" y="712"/>
      <point x="296" y="726"/>
      <point x="272" y="726" type="curve" smooth="yes"/>
      <point x="245" y="726"/>
      <point x="210" y="713"/>
      <point x="175" y="692" type="curve"/>
      <point x="201" y="642" type="line"/>
      <point x="138" y="259"/>
      <point x="120" y="124"/>
      <point x="120" y="42" type="curve" smooth="yes"/>
      <point x="120" y="-6"/>
      <point x="138" y="-26"/>
    </contour>
    <contour>
      <point x="605" y="-25" type="curve" smooth="yes"/>
      <point x="627" y="-25"/>
      <point x="662" y="-13"/>
      <point x="675" y="2" type="curve"/>
      <point x="626" y="49"/>
      <point x="550" y="178"/>
      <point x="485" y="322" type="curve"/>
      <point x="400" y="286" type="line"/>
      <point x="466" y="148" type="line" smooth="yes"/>
      <point x="533" y="1"/>
      <point x="553" y="-25"/>
    </contour>
  </outline>
</glyph>
<glyph name="S" format="2">
  <advance width="713"/>
  <unicode hex="0053"/>
  <anchor x="309" y="0" name="bottom"/>
  <anchor x="419" y="710" name="top"/>
  <outline>
    <contour>
      <point x="321" y="-25" type="curve" smooth="yes"/>
      <point x="537" y="-25"/>
      <point x="627" y="81"/>
      <point x="627" y="184" type="curve" smooth="yes"/>
      <point x="627" y="405"/>
      <point x="233" y="382"/>
      <point x="233" y="516" type="curve" smooth="yes"/>
      <point x="233" y="587"/>
      <point x="316" y="645"/>
      <point x="467" y="663" type="curve"/>
      <point x="485" y="595"/>
      <point x="521" y="555"/>
      <point x="583" y="555" type="curve" smooth="yes"/>
      <point x="640" y="555"/>
      <point x="678" y="581"/>
      <point x="678" y="636" type="curve" smooth="yes"/>
      <point x="678" y="690"/>
      <point x="590" y="726"/>
      <point x="476" y="726" type="curve" smooth="yes"/>
      <point x="260" y="726"/>
      <point x="126" y="625"/>
      <point x="126" y="505" type="curve" smooth="yes"/>
      <point x="126" y="277"/>
      <point x="520" y="311"/>
      <point x="520" y="164" type="curve" smooth="yes"/>
      <point x="520" y="81"/>
      <point x="437" y="39"/>
      <point x="316" y="39" type="curve" smooth="yes"/>
      <point x="239" y="39"/>
      <point x="161" y="80"/>
      <point x="122" y="165" type="curve"/>
      <point x="97" y="152"/>
      <point x="80" y="128"/>
      <point x="80" y="100" type="curve" smooth="yes"/>
      <point x="80" y="17"/>
      <point x="187" y="-25"/>
    </contour>
  </outline>
</glyph>
<glyph name="T" format="2">
  <advance width="530"/>
  <unicode hex="0054"/>
  <anchor x="184" y="0" name="bottom"/>
  <anchor x="297" y="350" name="center"/>
  <anchor x="359" y="710" name="top"/>
  <outline>
    <contour>
      <point x="255" y="-26" type="curve" smooth="yes"/>
      <point x="277" y="-26"/>
      <point x="297" y="-20"/>
      <point x="320" y="-5" type="curve"/>
      <point x="305" y="12"/>
      <point x="298" y="35"/>
      <point x="298" y="64" type="curve" smooth="yes"/>
      <point x="298" y="133"/>
      <point x="358" y="490"/>
      <point x="383" y="656" type="curve"/>
      <point x="285" y="675" type="line"/>
      <point x="223" y="293"/>
      <point x="197" y="106"/>
      <point x="197" y="32" type="curve" smooth="yes"/>
      <point x="197" y="-11"/>
      <point x="217" y="-26"/>
    </contour>
    <contour>
      <point x="500" y="611" type="curve" smooth="yes"/>
      <point x="554" y="611"/>
      <point x="587" y="634"/>
      <point x="587" y="675" type="curve" smooth="yes"/>
      <point x="587" y="690"/>
      <point x="585" y="704"/>
      <point x="580" y="713" type="curve"/>
      <point x="416" y="691" type="line"/>
      <point x="328" y="692"/>
      <point x="247" y="715"/>
      <point x="165" y="715" type="curve" smooth="yes"/>
      <point x="112" y="715"/>
      <point x="77" y="708"/>
      <point x="77" y="651" type="curve" smooth="yes"/>
      <point x="77" y="635"/>
      <point x="80" y="623"/>
      <point x="85" y="613" type="curve"/>
      <point x="249" y="634" type="line"/>
      <point x="337" y="634"/>
      <point x="417" y="611"/>
    </contour>
  </outline>
</glyph>
<glyph name="U" format="2">
  <advance width="794"/>
  <unicode hex="0055"/>
  <anchor x="359" y="0" name="bottom"/>
  <anchor x="678" y="-5" name="ogonek"/>
  <anchor x="491" y="710" name="top"/>
  <anchor x="760" y="705" name="topright"/>
  <outline>
    <contour>
      <point x="620" y="-26" type="curve" smooth="yes"/>
      <point x="637" y="-26"/>
      <point x="656" y="-20"/>
      <point x="678" y="-5" type="curve"/>
      <point x="668" y="13"/>
      <point x="663" y="35"/>
      <point x="663" y="64" type="curve" smooth="yes"/>
      <point x="663" y="281"/>
      <point x="723" y="573"/>
      <point x="760" y="705" type="curve"/>
      <point x="741" y="720"/>
      <point x="721" y="727"/>
      <point x="706" y="727" type="curve" smooth="yes"/>
      <point x="589" y="727"/>
      <point x="588" y="536"/>
      <point x="588" y="429" type="curve" smooth="yes"/>
      <point x="588" y="380"/>
      <point x="592" y="339"/>
      <point x="592" y="321" type="curve"/>
      <point x="528" y="157"/>
      <point x="398" y="49"/>
      <point x="312" y="49" type="curve" smooth="yes"/>
      <point x="233" y="49"/>
      <point x="217" y="95"/>
      <point x="217" y="167" type="curve" smooth="yes"/>
      <point x="217" y="252"/>
      <point x="307" y="655"/>
      <point x="307" y="683" type="curve" smooth="yes"/>
      <point x="307" y="711"/>
      <point x="293" y="727"/>
      <point x="270" y="727" type="curve" smooth="yes"/>
      <point x="243" y="727"/>
      <point x="201" y="711"/>
      <point x="175" y="692" type="curve"/>
      <point x="201" y="642" type="line"/>
      <point x="141" y="339"/>
      <point x="121" y="214"/>
      <point x="121" y="145" type="curve" smooth="yes"/>
      <point x="121" y="74"/>
      <point x="150" y="-22"/>
      <point x="269" y="-22" type="curve" smooth="yes"/>
      <point x="409" y="-22"/>
      <point x="516" y="90"/>
      <point x="575" y="202" type="curve"/>
      <point x="580" y="201" type="line"/>
      <point x="569" y="158"/>
      <point x="561" y="114"/>
      <point x="561" y="76" type="curve" smooth="yes"/>
      <point x="561" y="25"/>
      <point x="571" y="-26"/>
    </contour>
  </outline>
</glyph>
<glyph name="V" format="2">
  <advance width="589"/>
  <unicode hex="0056"/>
  <outline>
    <contour>
      <point x="209" y="-30" type="curve" smooth="yes"/>
      <point x="245" y="-30"/>
      <point x="290" y="-17"/>
      <point x="306" y="-1" type="curve"/>
      <point x="285" y="27" type="line"/>
      <point x="483" y="314"/>
      <point x="589" y="537"/>
      <point x="589" y="640" type="curve" smooth="yes"/>
      <point x="589" y="692"/>
      <point x="568" y="726"/>
      <point x="537" y="726" type="curve" smooth="yes"/>
      <point x="515" y="726"/>
      <point x="504" y="724"/>
      <point x="463" y="704" type="curve"/>
      <point x="481" y="675"/>
      <point x="487" y="642"/>
      <point x="487" y="599" type="curve" smooth="yes"/>
      <point x="487" y="512"/>
      <point x="411" y="356"/>
      <point x="209" y="59" type="curve"/>
      <point x="197" y="59" type="line"/>
      <point x="197" y="73"/>
      <point x="197" y="75"/>
      <point x="197" y="326" type="curve" smooth="yes"/>
      <point x="197" y="624"/>
      <point x="180" y="726"/>
      <point x="85" y="726" type="curve" smooth="yes"/>
      <point x="61" y="726"/>
      <point x="40" y="719"/>
      <point x="20" y="704" type="curve"/>
      <point x="112" y="605"/>
      <point x="93" y="405"/>
      <point x="93" y="214" type="curve" smooth="yes"/>
      <point x="93" y="24"/>
      <point x="116" y="-30"/>
    </contour>
  </outline>
</glyph>
<glyph name="W" format="2">
  <advance width="960"/>
  <unicode hex="0057"/>
  <anchor x="424" y="0" name="bottom"/>
  <anchor x="549" y="710" name="top"/>
  <outline>
    <contour>
      <point x="161" y="-30" type="curve" smooth="yes"/>
      <point x="234" y="-30"/>
      <point x="299" y="11"/>
      <point x="455" y="288" type="curve" smooth="yes"/>
      <point x="559" y="472"/>
      <point x="603" y="536"/>
      <point x="603" y="611" type="curve" smooth="yes"/>
      <point x="603" y="659"/>
      <point x="575" y="690"/>
      <point x="537" y="690" type="curve" smooth="yes"/>
      <point x="521" y="690"/>
      <point x="511" y="686"/>
      <point x="486" y="661" type="curve"/>
      <point x="485" y="651"/>
      <point x="513" y="608"/>
      <point x="513" y="589" type="curve" smooth="yes"/>
      <point x="513" y="600"/>
      <point x="470" y="372"/>
      <point x="219" y="59" type="curve"/>
      <point x="206" y="59" type="line"/>
      <point x="207" y="73"/>
      <point x="206" y="75"/>
      <point x="206" y="326" type="curve" smooth="yes"/>
      <point x="206" y="624"/>
      <point x="191" y="726"/>
      <point x="89" y="726" type="curve" smooth="yes"/>
      <point x="64" y="726"/>
      <point x="41" y="719"/>
      <point x="20" y="704" type="curve"/>
      <point x="125" y="580"/>
      <point x="105" y="329"/>
      <point x="105" y="86" type="curve" smooth="yes"/>
      <point x="105" y="23"/>
      <point x="113" y="-30"/>
    </contour>
    <contour>
      <point x="593" y="-30" type="curve" smooth="yes"/>
      <point x="631" y="-30"/>
      <point x="674" y="-17"/>
      <point x="690" y="-1" type="curve"/>
      <point x="673" y="27" type="line"/>
      <point x="856" y="314"/>
      <point x="959" y="537"/>
      <point x="959" y="640" type="curve" smooth="yes"/>
      <point x="959" y="692"/>
      <point x="937" y="726"/>
      <point x="905" y="726" type="curve" smooth="yes"/>
      <point x="880" y="726"/>
      <point x="870" y="724"/>
      <point x="829" y="704" type="curve"/>
      <point x="848" y="675"/>
      <point x="856" y="642"/>
      <point x="856" y="599" type="curve" smooth="yes"/>
      <point x="856" y="512"/>
      <point x="784" y="356"/>
      <point x="593" y="59" type="curve"/>
      <point x="581" y="59" type="line"/>
      <point x="564" y="616" type="line"/>
      <point x="537" y="690" type="line"/>
      <point x="497" y="690"/>
      <point x="470" y="677"/>
      <point x="461" y="661" type="curve"/>
      <point x="500" y="108" type="line" smooth="yes"/>
      <point x="504" y="37"/>
      <point x="514" y="-30"/>
    </contour>
  </outline>
</glyph>
<glyph name="X" format="2">
  <advance width="761"/>
  <unicode hex="0058"/>
  <outline>
    <contour>
      <point x="619" y="-30" type="curve" smooth="yes"/>
      <point x="652" y="-30"/>
      <point x="689" y="-8"/>
      <point x="708" y="25" type="curve"/>
      <point x="651" y="46"/>
      <point x="610" y="71"/>
      <point x="556" y="171" type="curve" smooth="yes"/>
      <point x="332" y="588" type="line" smooth="yes"/>
      <point x="278" y="689"/>
      <point x="239" y="727"/>
      <point x="181" y="727" type="curve" smooth="yes"/>
      <point x="147" y="727"/>
      <point x="110" y="705"/>
      <point x="90" y="671" type="curve"/>
      <point x="148" y="651"/>
      <point x="190" y="624"/>
      <point x="244" y="525" type="curve" smooth="yes"/>
      <point x="469" y="108" type="line" smooth="yes"/>
      <point x="524" y="8"/>
      <point x="561" y="-30"/>
    </contour>
    <contour>
      <point x="103" y="-30" type="curve" smooth="yes"/>
      <point x="130" y="-30"/>
      <point x="158" y="-16"/>
      <point x="164" y="-8" type="curve"/>
      <point x="158" y="5"/>
      <point x="154" y="18"/>
      <point x="154" y="35" type="curve" smooth="yes"/>
      <point x="154" y="99"/>
      <point x="220" y="193"/>
      <point x="397" y="316" type="curve"/>
      <point x="370" y="368" type="line"/>
      <point x="204" y="233" type="line" smooth="yes"/>
      <point x="69" y="121"/>
      <point x="46" y="79"/>
      <point x="46" y="39" type="curve" smooth="yes"/>
      <point x="46" y="-2"/>
      <point x="67" y="-30"/>
    </contour>
    <contour>
      <point x="418" y="328" type="line"/>
      <point x="585" y="464" type="line" smooth="yes"/>
      <point x="719" y="575"/>
      <point x="741" y="620"/>
      <point x="741" y="656" type="curve" smooth="yes"/>
      <point x="741" y="698"/>
      <point x="720" y="726"/>
      <point x="685" y="726" type="curve" smooth="yes"/>
      <point x="657" y="726"/>
      <point x="629" y="712"/>
      <point x="624" y="704" type="curve"/>
      <point x="630" y="692"/>
      <point x="633" y="679"/>
      <point x="633" y="661" type="curve" smooth="yes"/>
      <point x="633" y="597"/>
      <point x="568" y="504"/>
      <point x="390" y="381" type="curve"/>
    </contour>
  </outline>
</glyph>
<glyph name="Y" format="2">
  <advance width="781"/>
  <unicode hex="0059"/>
  <anchor x="308" y="-200" name="bottom"/>
  <anchor x="454" y="710" name="top"/>
  <anchor x="20" y="710" name="topleft"/>
  <outline>
    <contour>
      <point x="81" y="-242" type="curve" smooth="yes"/>
      <point x="481" y="-242"/>
      <point x="730" y="237"/>
      <point x="730" y="639" type="curve" smooth="yes"/>
      <point x="730" y="691"/>
      <point x="708" y="726"/>
      <point x="677" y="726" type="curve" smooth="yes"/>
      <point x="655" y="726"/>
      <point x="644" y="724"/>
      <point x="603" y="704" type="curve"/>
      <point x="621" y="675"/>
      <point x="627" y="642"/>
      <point x="627" y="599" type="curve" smooth="yes"/>
      <point x="627" y="20"/>
      <point x="262" y="-165"/>
      <point x="115" y="-165" type="curve" smooth="yes"/>
      <point x="25" y="-165"/>
      <point x="-8" y="-130"/>
      <point x="-32" y="-105" type="curve"/>
      <point x="-39" y="-120"/>
      <point x="-46" y="-141"/>
      <point x="-46" y="-157" type="curve" smooth="yes"/>
      <point x="-46" y="-205"/>
      <point x="-9" y="-242"/>
    </contour>
    <contour>
      <point x="409" y="-30" type="curve"/>
      <point x="468" y="11" type="line"/>
      <point x="155" y="11"/>
      <point x="432" y="726"/>
      <point x="180" y="726" type="curve" smooth="yes"/>
      <point x="157" y="726"/>
      <point x="138" y="719"/>
      <point x="118" y="704" type="curve"/>
      <point x="284" y="545"/>
      <point x="63" y="-30"/>
    </contour>
  </outline>
</glyph>
<glyph name="Z" format="2">
  <advance width="638"/>
  <unicode hex="005A"/>
  <anchor x="272" y="0" name="bottom"/>
  <anchor x="397" y="710" name="top"/>
  <outline>
    <contour>
      <point x="206" y="83" type="line"/>
      <point x="555" y="627" type="line"/>
      <point x="435" y="597" type="line"/>
      <point x="117" y="98" type="line"/>
    </contour>
    <contour>
      <point x="460" y="-30" type="curve" smooth="yes"/>
      <point x="529" y="-30"/>
      <point x="583" y="5"/>
      <point x="583" y="52" type="curve" smooth="yes"/>
      <point x="583" y="67"/>
      <point x="577" y="81"/>
      <point x="558" y="106" type="curve"/>
      <point x="460" y="49" type="line"/>
      <point x="377" y="49"/>
      <point x="218" y="114"/>
      <point x="142" y="114" type="curve" smooth="yes"/>
      <point x="77" y="115"/>
      <point x="30" y="79"/>
      <point x="30" y="29" type="curve" smooth="yes"/>
      <point x="30" y="0"/>
      <point x="53" y="-22"/>
      <point x="84" y="-22" type="curve" smooth="yes"/>
      <point x="117" y="-22"/>
      <point x="142" y="-7"/>
      <point x="179" y="33" type="curve"/>
      <point x="333" y="-23"/>
      <point x="390" y="-30"/>
    </contour>
    <contour>
      <point x="365" y="585" type="curve" smooth="yes"/>
      <point x="548" y="585"/>
      <point x="623" y="611"/>
      <point x="623" y="676" type="curve" smooth="yes"/>
      <point x="623" y="709"/>
      <point x="601" y="726"/>
      <point x="558" y="726" type="curve" smooth="yes"/>
      <point x="524" y="726"/>
      <point x="480" y="695"/>
      <point x="463" y="656" type="curve"/>
      <point x="360" y="660"/>
      <point x="228" y="690"/>
      <point x="126" y="732" type="curve"/>
      <point x="116" y="721"/>
      <point x="108" y="696"/>
      <point x="108" y="673" type="curve" smooth="yes"/>
      <point x="108" y="610"/>
      <point x="181" y="585"/>
    </contour>
  </outline>
</glyph>
<glyph name="bracketleft" format="2">
  <advance width="382"/>
  <unicode hex="005B"/>
  <outline>
    <contour>
      <point x="180" y="-156" type="curve" smooth="yes"/>
      <point x="252" y="-156"/>
      <point x="293" y="-135"/>
      <point x="293" y="-102" type="curve" smooth="yes"/>
      <point x="293" y="-96"/>
      <point x="292" y="-82"/>
      <point x="288" y="-71" type="curve"/>
      <point x="277" y="-75"/>
      <point x="217" y="-81"/>
      <point x="188" y="-81" type="curve"/>
      <point x="188" y="188"/>
      <point x="241" y="529"/>
      <point x="318" y="722" type="curve"/>
      <point x="347" y="722"/>
      <point x="416" y="717"/>
      <point x="430" y="712" type="curve"/>
      <point x="431" y="723"/>
      <point x="432" y="732"/>
      <point x="432" y="740" type="curve" smooth="yes"/>
      <point x="432" y="780"/>
      <point x="386" y="800"/>
      <point x="330" y="800" type="curve" smooth="yes"/>
      <point x="238" y="800"/>
      <point x="201" y="758"/>
      <point x="162" y="584" type="curve" smooth="yes"/>
      <point x="110" y="354"/>
      <point x="84" y="187"/>
      <point x="84" y="15" type="curve" smooth="yes"/>
      <point x="84" y="-127"/>
      <point x="119" y="-156"/>
    </contour>
  </outline>
</glyph>
<glyph name="asciicircum" format="2">
  <advance width="689"/>
  <unicode hex="005E"/>
  <outline>
    <contour>
      <point x="189" y="451" type="curve" smooth="yes"/>
      <point x="201" y="451"/>
      <point x="214" y="463"/>
      <point x="233" y="492" type="curve" smooth="yes"/>
      <point x="434" y="793" type="line"/>
      <point x="411" y="795" type="line"/>
      <point x="518" y="492" type="line" smooth="yes"/>
      <point x="529" y="461"/>
      <point x="536" y="451"/>
      <point x="549" y="451" type="curve" smooth="yes"/>
      <point x="558" y="451"/>
      <point x="591" y="465"/>
      <point x="632" y="499" type="curve"/>
      <point x="490" y="898" type="line" smooth="yes"/>
      <point x="479" y="929"/>
      <point x="472" y="938"/>
      <point x="460" y="938" type="curve" smooth="yes"/>
      <point x="434" y="938" type="line" smooth="yes"/>
      <point x="422" y="938"/>
      <point x="409" y="927"/>
      <point x="391" y="898" type="curve" smooth="yes"/>
      <point x="123" y="499" type="line"/>
      <point x="156" y="463"/>
      <point x="181" y="451"/>
    </contour>
  </outline>
</glyph>
<glyph name="a" format="2">
  <advance width="748"/>
  <unicode hex="0061"/>
  <anchor x="324" y="0" name="bottom"/>
  <anchor x="591" y="-2" name="ogonek"/>
  <anchor x="426" y="575" name="top"/>
  <outline>
    <contour>
      <point x="266" y="-25" type="curve" smooth="yes"/>
      <point x="350" y="-25"/>
      <point x="427" y="28"/>
      <point x="477" y="121" type="curve"/>
      <point x="487" y="116" type="line"/>
      <point x="482" y="91"/>
      <point x="479" y="68"/>
      <point x="479" y="50" type="curve" smooth="yes"/>
      <point x="479" y="1"/>
      <point x="501" y="-25"/>
      <point x="540" y="-25" type="curve" smooth="yes"/>
      <point x="558" y="-25"/>
      <point x="574" y="-19"/>
      <point x="591" y="-2" type="curve"/>
      <point x="582" y="7"/>
      <point x="577" y="21"/>
      <point x="577" y="40" type="curve" smooth="yes"/>
      <point x="577" y="252"/>
      <point x="658" y="447"/>
      <point x="658" y="538" type="curve" smooth="yes"/>
      <point x="658" y="562"/>
      <point x="639" y="575"/>
      <point x="609" y="575" type="curve" smooth="yes"/>
      <point x="593" y="575"/>
      <point x="572" y="566"/>
      <point x="562" y="554" type="curve"/>
      <point x="519" y="218"/>
      <point x="434" y="50"/>
      <point x="304" y="50" type="curve" smooth="yes"/>
      <point x="231" y="50"/>
      <point x="189" y="106"/>
      <point x="189" y="204" type="curve" smooth="yes"/>
      <point x="189" y="403"/>
      <point x="325" y="554"/>
      <point x="575" y="554" type="curve"/>
      <point x="575" y="567"/>
      <point x="571" y="579"/>
      <point x="563" y="592" type="curve"/>
      <point x="531" y="597"/>
      <point x="496" y="600"/>
      <point x="465" y="600" type="curve" smooth="yes"/>
      <point x="255" y="600"/>
      <point x="85" y="427"/>
      <point x="85" y="210" type="curve" smooth="yes"/>
      <point x="85" y="68"/>
      <point x="158" y="-25"/>
    </contour>
  </outline>
</glyph>
<glyph name="b" format="2">
  <advance width="737"/>
  <unicode hex="0062"/>
  <outline>
    <contour>
      <point x="205" y="-25" type="curve" smooth="yes"/>
      <point x="454" y="-25"/>
      <point x="655" y="154"/>
      <point x="655" y="380" type="curve" smooth="yes"/>
      <point x="655" y="513"/>
      <point x="582" y="600"/>
      <point x="474" y="600" type="curve" smooth="yes"/>
      <point x="385" y="600"/>
      <point x="306" y="542"/>
      <point x="253" y="440" type="curve"/>
      <point x="243" y="445" type="line"/>
      <point x="273" y="578"/>
      <point x="306" y="681"/>
      <point x="306" y="723" type="curve" smooth="yes"/>
      <point x="306" y="761"/>
      <point x="293" y="774"/>
      <point x="262" y="774" type="curve" smooth="yes"/>
      <point x="234" y="774"/>
      <point x="192" y="762"/>
      <point x="165" y="739" type="curve"/>
      <point x="206" y="696" type="line"/>
      <point x="151" y="458"/>
      <point x="99" y="195"/>
      <point x="99" y="90" type="curve" smooth="yes"/>
      <point x="99" y="-19"/>
      <point x="157" y="-25"/>
    </contour>
    <contour>
      <point x="178" y="30" type="curve"/>
      <point x="178" y="327"/>
      <point x="306" y="526"/>
      <point x="436" y="526" type="curve" smooth="yes"/>
      <point x="509" y="526"/>
      <point x="551" y="469"/>
      <point x="551" y="371" type="curve" smooth="yes"/>
      <point x="551" y="181"/>
      <point x="391" y="37"/>
    </contour>
  </outline>
</glyph>
<glyph name="c" format="2">
  <advance width="616"/>
  <unicode hex="0063"/>
  <anchor x="273" y="0" name="bottom"/>
  <anchor x="385" y="575" name="top"/>
  <outline>
    <contour>
      <point x="310" y="-25" type="curve" smooth="yes"/>
      <point x="430" y="-25"/>
      <point x="530" y="51"/>
      <point x="530" y="141" type="curve" smooth="yes"/>
      <point x="530" y="181"/>
      <point x="502" y="196"/>
      <point x="459" y="196" type="curve"/>
      <point x="453" y="104"/>
      <point x="395" y="33"/>
      <point x="306" y="33" type="curve" smooth="yes"/>
      <point x="234" y="33"/>
      <point x="191" y="98"/>
      <point x="191" y="206" type="curve" smooth="yes"/>
      <point x="191" y="362"/>
      <point x="270" y="488"/>
      <point x="377" y="536" type="curve"/>
      <point x="404" y="483"/>
      <point x="446" y="469"/>
      <point x="488" y="469" type="curve" smooth="yes"/>
      <point x="531" y="469"/>
      <point x="564" y="497"/>
      <point x="564" y="533" type="curve" smooth="yes"/>
      <point x="564" y="575"/>
      <point x="518" y="600"/>
      <point x="442" y="600" type="curve" smooth="yes"/>
      <point x="246" y="600"/>
      <point x="86" y="433"/>
      <point x="86" y="213" type="curve" smooth="yes"/>
      <point x="86" y="63"/>
      <point x="171" y="-25"/>
    </contour>
  </outline>
</glyph>
<glyph name="d" format="2">
  <advance width="746"/>
  <unicode hex="0064"/>
  <anchor x="308" y="0" name="bottom"/>
  <anchor x="619" y="612" name="center"/>
  <anchor x="409" y="575" name="top"/>
  <anchor x="651" y="575" name="topright"/>
  <outline>
    <contour>
      <point x="265" y="-25" type="curve" smooth="yes"/>
      <point x="349" y="-25"/>
      <point x="426" y="28"/>
      <point x="476" y="121" type="curve"/>
      <point x="496" y="113" type="line"/>
      <point x="506" y="247" type="line"/>
      <point x="464" y="124"/>
      <point x="379" y="50"/>
      <point x="303" y="50" type="curve" smooth="yes"/>
      <point x="230" y="50"/>
      <point x="188" y="106"/>
      <point x="188" y="204" type="curve" smooth="yes"/>
      <point x="188" y="396"/>
      <point x="332" y="529"/>
      <point x="574" y="529" type="curve"/>
      <point x="574" y="544"/>
      <point x="570" y="556"/>
      <point x="562" y="567" type="curve"/>
      <point x="536" y="572"/>
      <point x="501" y="575"/>
      <point x="464" y="575" type="curve" smooth="yes"/>
      <point x="254" y="575"/>
      <point x="84" y="412"/>
      <point x="84" y="210" type="curve" smooth="yes"/>
      <point x="84" y="68"/>
      <point x="157" y="-25"/>
    </contour>
    <contour>
      <point x="531" y="-25" type="curve" smooth="yes"/>
      <point x="559" y="-25"/>
      <point x="579" y="-15"/>
      <point x="594" y="-2" type="curve"/>
      <point x="582" y="7"/>
      <point x="576" y="34"/>
      <point x="576" y="47" type="curve" smooth="yes"/>
      <point x="576" y="345"/>
      <point x="680" y="646"/>
      <point x="680" y="724" type="curve" smooth="yes"/>
      <point x="680" y="762"/>
      <point x="667" y="775"/>
      <point x="636" y="775" type="curve" smooth="yes"/>
      <point x="608" y="775"/>
      <point x="566" y="763"/>
      <point x="539" y="740" type="curve"/>
      <point x="580" y="697" type="line"/>
      <point x="545" y="505"/>
      <point x="481" y="107"/>
      <point x="481" y="38" type="curve" smooth="yes"/>
      <point x="481" y="-5"/>
      <point x="501" y="-25"/>
    </contour>
  </outline>
</glyph>
<glyph name="e" format="2">
  <advance width="647"/>
  <unicode hex="0065"/>
  <anchor x="309" y="0" name="bottom"/>
  <anchor x="429" y="0" name="ogonek"/>
  <anchor x="411" y="575" name="top"/>
  <outline>
    <contour>
      <point x="303" y="-25" type="curve" smooth="yes"/>
      <point x="439" y="-25"/>
      <point x="540" y="53"/>
      <point x="540" y="133" type="curve" smooth="yes"/>
      <point x="540" y="172"/>
      <point x="512" y="187"/>
      <point x="469" y="187" type="curve"/>
      <point x="463" y="93"/>
      <point x="400" y="33"/>
      <point x="310" y="33" type="curve" smooth="yes"/>
      <point x="236" y="33"/>
      <point x="192" y="101"/>
      <point x="192" y="211" type="curve" smooth="yes"/>
      <point x="192" y="400"/>
      <point x="299" y="551"/>
      <point x="428" y="551" type="curve" smooth="yes"/>
      <point x="478" y="551"/>
      <point x="510" y="517"/>
      <point x="510" y="467" type="curve" smooth="yes"/>
      <point x="510" y="348"/>
      <point x="384" y="280"/>
      <point x="173" y="284" type="curve"/>
      <point x="161" y="232" type="line"/>
      <point x="444" y="235"/>
      <point x="602" y="315"/>
      <point x="602" y="458" type="curve" smooth="yes"/>
      <point x="602" y="547"/>
      <point x="542" y="600"/>
      <point x="441" y="600" type="curve" smooth="yes"/>
      <point x="239" y="600"/>
      <point x="87" y="438"/>
      <point x="87" y="218" type="curve" smooth="yes"/>
      <point x="87" y="67"/>
      <point x="167" y="-25"/>
    </contour>
  </outline>
</glyph>
<glyph name="f" format="2">
  <advance width="432"/>
  <unicode hex="0066"/>
  <outline>
    <contour>
      <point x="167" y="-200" type="curve" smooth="yes"/>
      <point x="186" y="-200"/>
      <point x="204" y="-193"/>
      <point x="228" y="-178" type="curve"/>
      <point x="215" y="-170"/>
      <point x="209" y="-155"/>
      <point x="209" y="-135" type="curve" smooth="yes"/>
      <point x="209" y="-37"/>
      <point x="250" y="207"/>
      <point x="310" y="424" type="curve"/>
      <point x="262" y="677" type="line"/>
      <point x="270" y="684" type="line"/>
      <point x="293" y="663"/>
      <point x="321" y="655"/>
      <point x="349" y="655" type="curve" smooth="yes"/>
      <point x="391" y="655"/>
      <point x="419" y="681"/>
      <point x="419" y="719" type="curve" smooth="yes"/>
      <point x="419" y="758"/>
      <point x="384" y="787"/>
      <point x="336" y="787" type="curve" smooth="yes"/>
      <point x="271" y="787"/>
      <point x="208" y="749"/>
      <point x="208" y="615" type="curve" smooth="yes"/>
      <point x="208" y="567"/>
      <point x="211" y="511"/>
      <point x="218" y="445" type="curve"/>
      <point x="151" y="125"/>
      <point x="113" y="-57"/>
      <point x="113" y="-132" type="curve" smooth="yes"/>
      <point x="113" y="-175"/>
      <point x="133" y="-200"/>
    </contour>
    <contour>
      <point x="112" y="370" type="curve"/>
      <point x="172" y="389"/>
      <point x="259" y="400"/>
      <point x="295" y="400" type="curve" smooth="yes"/>
      <point x="352" y="400"/>
      <point x="407" y="416"/>
      <point x="407" y="461" type="curve" smooth="yes"/>
      <point x="407" y="469"/>
      <point x="404" y="482"/>
      <point x="400" y="491" type="curve"/>
      <point x="341" y="471"/>
      <point x="253" y="460"/>
      <point x="217" y="460" type="curve" smooth="yes"/>
      <point x="160" y="460"/>
      <point x="105" y="445"/>
      <point x="105" y="400" type="curve" smooth="yes"/>
      <point x="105" y="391"/>
      <point x="108" y="378"/>
    </contour>
  </outline>
</glyph>
<glyph name="g" format="2">
  <advance width="665"/>
  <unicode hex="0067"/>
  <anchor x="303" y="0" name="bottom"/>
  <anchor x="404" y="575" name="top"/>
  <outline>
    <contour>
      <point x="156" y="-234" type="curve" smooth="yes"/>
      <point x="486" y="-234"/>
      <point x="602" y="131"/>
      <point x="602" y="549" type="curve" smooth="yes"/>
      <point x="602" y="568"/>
      <point x="591" y="578"/>
      <point x="568" y="578" type="curve" smooth="yes"/>
      <point x="559" y="578"/>
      <point x="552" y="576"/>
      <point x="521" y="554" type="curve"/>
      <point x="545" y="-15"/>
      <point x="308" y="-164"/>
      <point x="183" y="-164" type="curve" smooth="yes"/>
      <point x="117" y="-164"/>
      <point x="76" y="-137"/>
      <point x="47" y="-84" type="curve"/>
      <point x="21" y="-104"/>
      <point x="4" y="-131"/>
      <point x="4" y="-154" type="curve" smooth="yes"/>
      <point x="4" y="-200"/>
      <point x="67" y="-234"/>
    </contour>
    <contour>
      <point x="240" y="3" type="curve" smooth="yes"/>
      <point x="322" y="3"/>
      <point x="412" y="54"/>
      <point x="461" y="146" type="curve"/>
      <point x="526" y="146" type="line"/>
      <point x="520" y="554" type="line"/>
      <point x="520" y="168"/>
      <point x="361" y="75"/>
      <point x="278" y="75" type="curve" smooth="yes"/>
      <point x="202" y="75"/>
      <point x="158" y="135"/>
      <point x="158" y="239" type="curve" smooth="yes"/>
      <point x="158" y="425"/>
      <point x="298" y="554"/>
      <point x="534" y="554" type="curve"/>
      <point x="534" y="569"/>
      <point x="530" y="581"/>
      <point x="522" y="592" type="curve"/>
      <point x="496" y="597"/>
      <point x="461" y="600"/>
      <point x="424" y="600" type="curve" smooth="yes"/>
      <point x="191" y="600"/>
      <point x="54" y="437"/>
      <point x="54" y="235" type="curve" smooth="yes"/>
      <point x="54" y="95"/>
      <point x="129" y="3"/>
    </contour>
  </outline>
</glyph>
<glyph name="h" format="2">
  <advance width="730"/>
  <unicode hex="0068"/>
  <anchor x="356" y="0" name="bottom"/>
  <anchor x="242" y="612" name="center"/>
  <anchor x="263" y="725" name="top"/>
  <outline>
    <contour>
      <point x="144" y="-25" type="curve" smooth="yes"/>
      <point x="161" y="-25"/>
      <point x="179" y="-18"/>
      <point x="195" y="-2" type="curve"/>
      <point x="188" y="6"/>
      <point x="185" y="23"/>
      <point x="185" y="40" type="curve" smooth="yes"/>
      <point x="185" y="332"/>
      <point x="347" y="533"/>
      <point x="476" y="533" type="curve" smooth="yes"/>
      <point x="525" y="533"/>
      <point x="544" y="499"/>
      <point x="544" y="442" type="curve" smooth="yes"/>
      <point x="544" y="344"/>
      <point x="480" y="143"/>
      <point x="480" y="33" type="curve" smooth="yes"/>
      <point x="480" y="-5"/>
      <point x="496" y="-25"/>
      <point x="535" y="-25" type="curve" smooth="yes"/>
      <point x="553" y="-25"/>
      <point x="570" y="-18"/>
      <point x="587" y="-2" type="curve"/>
      <point x="580" y="6"/>
      <point x="576" y="23"/>
      <point x="576" y="40" type="curve" smooth="yes"/>
      <point x="576" y="185"/>
      <point x="649" y="338"/>
      <point x="649" y="464" type="curve" smooth="yes"/>
      <point x="649" y="558"/>
      <point x="606" y="600"/>
      <point x="519" y="600" type="curve" smooth="yes"/>
      <point x="436" y="600"/>
      <point x="328" y="555"/>
      <point x="250" y="413" type="curve"/>
      <point x="240" y="418" type="line"/>
      <point x="278" y="595"/>
      <point x="306" y="678"/>
      <point x="306" y="724" type="curve" smooth="yes"/>
      <point x="306" y="762"/>
      <point x="293" y="775"/>
      <point x="262" y="775" type="curve" smooth="yes"/>
      <point x="234" y="775"/>
      <point x="192" y="763"/>
      <point x="165" y="740" type="curve"/>
      <point x="206" y="697" type="line"/>
      <point x="153" y="411"/>
      <point x="88" y="102"/>
      <point x="88" y="33" type="curve" smooth="yes"/>
      <point x="88" y="-5"/>
      <point x="105" y="-25"/>
    </contour>
  </outline>
</glyph>
<glyph name="i" format="2">
  <advance width="388"/>
  <unicode hex="0069"/>
  <anchor x="160" y="0" name="bottom"/>
  <anchor x="224" y="-3" name="ogonek"/>
  <outline>
    <contour>
      <point x="168" y="-25" type="curve" smooth="yes"/>
      <point x="190" y="-25"/>
      <point x="207" y="-18"/>
      <point x="224" y="-3" type="curve"/>
      <point x="215" y="5"/>
      <point x="210" y="18"/>
      <point x="210" y="40" type="curve" smooth="yes"/>
      <point x="210" y="201"/>
      <point x="305" y="529"/>
      <point x="305" y="550" type="curve" smooth="yes"/>
      <point x="305" y="588"/>
      <point x="290" y="600"/>
      <point x="255" y="600" type="curve" smooth="yes"/>
      <point x="229" y="600"/>
      <point x="189" y="588"/>
      <point x="163" y="566" type="curve"/>
      <point x="204" y="525" type="line"/>
      <point x="131" y="197"/>
      <point x="113" y="85"/>
      <point x="113" y="33" type="curve" smooth="yes"/>
      <point x="113" y="-10"/>
      <point x="133" y="-25"/>
    </contour>
    <contour>
      <point x="264" y="693" type="curve" smooth="yes"/>
      <point x="311" y="693"/>
      <point x="342" y="723"/>
      <point x="342" y="760" type="curve" smooth="yes"/>
      <point x="342" y="789"/>
      <point x="320" y="810"/>
      <point x="281" y="810" type="curve" smooth="yes"/>
      <point x="229" y="810"/>
      <point x="203" y="774"/>
      <point x="203" y="743" type="curve" smooth="yes"/>
      <point x="203" y="713"/>
      <point x="226" y="693"/>
    </contour>
  </outline>
</glyph>
<glyph name="j" format="2">
  <advance width="397"/>
  <unicode hex="006A"/>
  <outline>
    <contour>
      <point x="49" y="-210" type="curve" smooth="yes"/>
      <point x="117" y="-210"/>
      <point x="161" y="-161"/>
      <point x="183" y="-58" type="curve" smooth="yes"/>
      <point x="224" y="152"/>
      <point x="301" y="527"/>
      <point x="301" y="550" type="curve" smooth="yes"/>
      <point x="301" y="588"/>
      <point x="287" y="600"/>
      <point x="252" y="600" type="curve" smooth="yes"/>
      <point x="225" y="600"/>
      <point x="185" y="588"/>
      <point x="160" y="566" type="curve"/>
      <point x="201" y="525" type="line"/>
      <point x="165" y="288"/>
      <point x="111" y="50"/>
      <point x="111" y="-21" type="curve" smooth="yes"/>
      <point x="111" y="-60"/>
      <point x="118" y="-86"/>
      <point x="133" y="-102" type="curve"/>
      <point x="124" y="-117" type="line"/>
      <point x="111" y="-107"/>
      <point x="88" y="-89"/>
      <point x="58" y="-89" type="curve" smooth="yes"/>
      <point x="15" y="-89"/>
      <point x="-13" y="-112"/>
      <point x="-13" y="-149" type="curve" smooth="yes"/>
      <point x="-13" y="-182"/>
      <point x="7" y="-210"/>
    </contour>
    <contour>
      <point x="260" y="703" type="curve" smooth="yes"/>
      <point x="307" y="703"/>
      <point x="338" y="728"/>
      <point x="338" y="759" type="curve" smooth="yes"/>
      <point x="338" y="782"/>
      <point x="314" y="800"/>
      <point x="277" y="800" type="curve" smooth="yes"/>
      <point x="225" y="800"/>
      <point x="199" y="769"/>
      <point x="199" y="744" type="curve" smooth="yes"/>
      <point x="199" y="720"/>
      <point x="223" y="703"/>
    </contour>
  </outline>
</glyph>
<glyph name="k" format="2">
  <advance width="626"/>
  <unicode hex="006B"/>
  <anchor x="294" y="0" name="bottom"/>
  <anchor x="397" y="575" name="top"/>
  <outline>
    <contour>
      <point x="172" y="159" type="line"/>
      <point x="388" y="303" type="line" smooth="yes"/>
      <point x="526" y="394"/>
      <point x="589" y="472"/>
      <point x="589" y="540" type="curve" smooth="yes"/>
      <point x="589" y="577"/>
      <point x="568" y="600"/>
      <point x="535" y="600" type="curve" smooth="yes"/>
      <point x="519" y="600"/>
      <point x="497" y="594"/>
      <point x="484" y="581" type="curve"/>
      <point x="486" y="571"/>
      <point x="488" y="561"/>
      <point x="488" y="551" type="curve" smooth="yes"/>
      <point x="488" y="475"/>
      <point x="415" y="395"/>
      <point x="337" y="331" type="curve" smooth="yes"/>
      <point x="184" y="210" type="line"/>
    </contour>
    <contour>
      <point x="157" y="-25" type="curve" smooth="yes"/>
      <point x="185" y="-25"/>
      <point x="205" y="-15"/>
      <point x="220" y="-2" type="curve"/>
      <point x="208" y="7"/>
      <point x="202" y="34"/>
      <point x="202" y="47" type="curve" smooth="yes"/>
      <point x="202" y="345"/>
      <point x="306" y="646"/>
      <point x="306" y="724" type="curve" smooth="yes"/>
      <point x="306" y="762"/>
      <point x="293" y="775"/>
      <point x="262" y="775" type="curve" smooth="yes"/>
      <point x="234" y="775"/>
      <point x="192" y="763"/>
      <point x="165" y="740" type="curve"/>
      <point x="206" y="697" type="line"/>
      <point x="171" y="505"/>
      <point x="107" y="107"/>
      <point x="107" y="38" type="curve" smooth="yes"/>
      <point x="107" y="-5"/>
      <point x="127" y="-25"/>
    </contour>
    <contour>
      <point x="534" y="-25" type="curve" smooth="yes"/>
      <point x="561" y="-25"/>
      <point x="593" y="-9"/>
      <point x="612" y="24" type="curve"/>
      <point x="543" y="50"/>
      <point x="517" y="90"/>
      <point x="483" y="146" type="curve" smooth="yes"/>
      <point x="377" y="339" type="line"/>
      <point x="303" y="278" type="line"/>
      <point x="416" y="75" type="line" smooth="yes"/>
      <point x="459" y="-4"/>
      <point x="488" y="-25"/>
    </contour>
  </outline>
</glyph>
<glyph name="l" format="2">
  <advance width="372"/>
  <unicode hex="006C"/>
  <anchor x="140" y="0" name="bottom"/>
  <anchor x="202" y="391" name="center"/>
  <anchor x="257" y="725" name="top"/>
  <anchor x="279" y="575" name="topright"/>
  <outline>
    <contour>
      <point x="157" y="-25" type="curve" smooth="yes"/>
      <point x="185" y="-25"/>
      <point x="205" y="-15"/>
      <point x="220" y="-2" type="curve"/>
      <point x="208" y="7"/>
      <point x="202" y="34"/>
      <point x="202" y="47" type="curve" smooth="yes"/>
      <point x="202" y="270"/>
      <point x="306" y="676"/>
      <point x="306" y="724" type="curve" smooth="yes"/>
      <point x="306" y="762"/>
      <point x="293" y="775"/>
      <point x="262" y="775" type="curve" smooth="yes"/>
      <point x="234" y="775"/>
      <point x="192" y="763"/>
      <point x="165" y="740" type="curve"/>
      <point x="206" y="697" type="line"/>
      <point x="171" y="505"/>
      <point x="107" y="107"/>
      <point x="107" y="38" type="curve" smooth="yes"/>
      <point x="107" y="-5"/>
      <point x="127" y="-25"/>
    </contour>
  </outline>
</glyph>
<glyph name="m" format="2">
  <advance width="1114"/>
  <unicode hex="006D"/>
  <outline>
    <contour>
      <point x="172" y="-25" type="curve" smooth="yes"/>
      <point x="189" y="-25"/>
      <point x="207" y="-18"/>
      <point x="223" y="-2" type="curve"/>
      <point x="216" y="6"/>
      <point x="213" y="23"/>
      <point x="213" y="40" type="curve" smooth="yes"/>
      <point x="213" y="332"/>
      <point x="366" y="533"/>
      <point x="486" y="533" type="curve" smooth="yes"/>
      <point x="535" y="533"/>
      <point x="555" y="500"/>
      <point x="555" y="443" type="curve" smooth="yes"/>
      <point x="555" y="346"/>
      <point x="490" y="142"/>
      <point x="490" y="38" type="curve" smooth="yes"/>
      <point x="490" y="-3"/>
      <point x="507" y="-25"/>
      <point x="546" y="-25" type="curve" smooth="yes"/>
      <point x="563" y="-25"/>
      <point x="581" y="-18"/>
      <point x="597" y="-2" type="curve"/>
      <point x="590" y="6"/>
      <point x="587" y="23"/>
      <point x="587" y="40" type="curve" smooth="yes"/>
      <point x="587" y="332"/>
      <point x="740" y="533"/>
      <point x="860" y="533" type="curve" smooth="yes"/>
      <point x="909" y="533"/>
      <point x="929" y="500"/>
      <point x="929" y="443" type="curve" smooth="yes"/>
      <point x="929" y="346"/>
      <point x="864" y="142"/>
      <point x="864" y="38" type="curve" smooth="yes"/>
      <point x="864" y="-3"/>
      <point x="881" y="-25"/>
      <point x="920" y="-25" type="curve" smooth="yes"/>
      <point x="937" y="-25"/>
      <point x="955" y="-18"/>
      <point x="971" y="-2" type="curve"/>
      <point x="964" y="6"/>
      <point x="961" y="23"/>
      <point x="961" y="40" type="curve" smooth="yes"/>
      <point x="961" y="185"/>
      <point x="1033" y="338"/>
      <point x="1033" y="464" type="curve" smooth="yes"/>
      <point x="1033" y="558"/>
      <point x="990" y="600"/>
      <point x="903" y="600" type="curve" smooth="yes"/>
      <point x="807" y="600"/>
      <point x="725" y="551"/>
      <point x="653" y="417" type="curve"/>
      <point x="643" y="422" type="line"/>
      <point x="647" y="440"/>
      <point x="649" y="456"/>
      <point x="649" y="470" type="curve" smooth="yes"/>
      <point x="649" y="545"/>
      <point x="621" y="600"/>
      <point x="529" y="600" type="curve" smooth="yes"/>
      <point x="436" y="600"/>
      <point x="356" y="551"/>
      <point x="287" y="417" type="curve"/>
      <point x="277" y="422" type="line"/>
      <point x="298" y="463"/>
      <point x="310" y="512"/>
      <point x="310" y="547" type="curve" smooth="yes"/>
      <point x="310" y="586"/>
      <point x="299" y="596"/>
      <point x="264" y="596" type="curve" smooth="yes"/>
      <point x="239" y="596"/>
      <point x="194" y="580"/>
      <point x="166" y="552" type="curve"/>
      <point x="209" y="509" type="line"/>
      <point x="171" y="362"/>
      <point x="116" y="108"/>
      <point x="116" y="33" type="curve" smooth="yes"/>
      <point x="116" y="-5"/>
      <point x="133" y="-25"/>
    </contour>
  </outline>
</glyph>
<glyph name="n" format="2">
  <advance width="758"/>
  <unicode hex="006E"/>
  <anchor x="358" y="0" name="bottom"/>
  <anchor x="460" y="575" name="top"/>
  <outline>
    <contour>
      <point x="172" y="-25" type="curve" smooth="yes"/>
      <point x="191" y="-25"/>
      <point x="208" y="-17"/>
      <point x="223" y="-2" type="curve"/>
      <point x="216" y="6"/>
      <point x="213" y="21"/>
      <point x="213" y="40" type="curve" smooth="yes"/>
      <point x="213" y="273"/>
      <point x="340" y="533"/>
      <point x="504" y="533" type="curve" smooth="yes"/>
      <point x="548" y="533"/>
      <point x="572" y="504"/>
      <point x="572" y="442" type="curve" smooth="yes"/>
      <point x="572" y="344"/>
      <point x="508" y="143"/>
      <point x="508" y="33" type="curve" smooth="yes"/>
      <point x="508" y="-8"/>
      <point x="527" y="-25"/>
      <point x="563" y="-25" type="curve" smooth="yes"/>
      <point x="582" y="-25"/>
      <point x="600" y="-17"/>
      <point x="615" y="-2" type="curve"/>
      <point x="608" y="6"/>
      <point x="604" y="21"/>
      <point x="604" y="40" type="curve" smooth="yes"/>
      <point x="604" y="185"/>
      <point x="677" y="338"/>
      <point x="677" y="464" type="curve" smooth="yes"/>
      <point x="677" y="556"/>
      <point x="635" y="600"/>
      <point x="547" y="600" type="curve" smooth="yes"/>
      <point x="437" y="600"/>
      <point x="351" y="532"/>
      <point x="287" y="417" type="curve"/>
      <point x="277" y="422" type="line"/>
      <point x="298" y="463"/>
      <point x="310" y="512"/>
      <point x="310" y="547" type="curve" smooth="yes"/>
      <point x="310" y="586"/>
      <point x="299" y="596"/>
      <point x="264" y="596" type="curve" smooth="yes"/>
      <point x="239" y="596"/>
      <point x="194" y="580"/>
      <point x="166" y="552" type="curve"/>
      <point x="209" y="509" type="line"/>
      <point x="159" y="315"/>
      <point x="116" y="92"/>
      <point x="116" y="33" type="curve" smooth="yes"/>
      <point x="116" y="-8"/>
      <point x="136" y="-25"/>
    </contour>
  </outline>
</glyph>
<glyph name="o" format="2">
  <advance width="727"/>
  <unicode hex="006F"/>
  <anchor x="317" y="0" name="bottom"/>
  <anchor x="373" y="288" name="center"/>
  <anchor x="655" y="10" name="ogonek"/>
  <anchor x="419" y="575" name="top"/>
  <anchor x="559" y="532" name="topright"/>
  <outline>
    <contour>
      <point x="322" y="-25" type="curve" smooth="yes"/>
      <point x="505" y="-25"/>
      <point x="649" y="154"/>
      <point x="649" y="380" type="curve" smooth="yes"/>
      <point x="649" y="476"/>
      <point x="616" y="532"/>
      <point x="559" y="532" type="curve" smooth="yes"/>
      <point x="519" y="532"/>
      <point x="491" y="500"/>
      <point x="491" y="456" type="curve" smooth="yes"/>
      <point x="491" y="402"/>
      <point x="514" y="363"/>
      <point x="570" y="326" type="curve"/>
      <point x="552" y="150"/>
      <point x="457" y="33"/>
      <point x="327" y="33" type="curve" smooth="yes"/>
      <point x="241" y="33"/>
      <point x="195" y="111"/>
      <point x="195" y="230" type="curve" smooth="yes"/>
      <point x="195" y="419"/>
      <point x="310" y="554"/>
      <point x="525" y="554" type="curve"/>
      <point x="524" y="569"/>
      <point x="520" y="581"/>
      <point x="511" y="592" type="curve"/>
      <point x="486" y="598"/>
      <point x="462" y="600"/>
      <point x="433" y="600" type="curve" smooth="yes"/>
      <point x="231" y="600"/>
      <point x="90" y="452"/>
      <point x="90" y="238" type="curve" smooth="yes"/>
      <point x="90" y="78"/>
      <point x="181" y="-25"/>
    </contour>
  </outline>
</glyph>
<glyph name="p" format="2">
  <advance width="771"/>
  <unicode hex="0070"/>
  <outline>
    <contour>
      <point x="308" y="0" type="curve" smooth="yes"/>
      <point x="518" y="0"/>
      <point x="687" y="163"/>
      <point x="687" y="365" type="curve" smooth="yes"/>
      <point x="687" y="507"/>
      <point x="615" y="600"/>
      <point x="506" y="600" type="curve" smooth="yes"/>
      <point x="422" y="600"/>
      <point x="345" y="540"/>
      <point x="295" y="434" type="curve"/>
      <point x="251" y="474" type="line"/>
      <point x="220" y="89" type="line"/>
      <point x="280" y="374"/>
      <point x="357" y="526"/>
      <point x="468" y="526" type="curve" smooth="yes"/>
      <point x="541" y="526"/>
      <point x="584" y="469"/>
      <point x="584" y="371" type="curve" smooth="yes"/>
      <point x="584" y="174"/>
      <point x="432" y="46"/>
      <point x="197" y="46" type="curve"/>
      <point x="197" y="33"/>
      <point x="201" y="21"/>
      <point x="209" y="8" type="curve"/>
      <point x="238" y="3"/>
      <point x="273" y="0"/>
    </contour>
    <contour>
      <point x="160" y="-200" type="curve" smooth="yes"/>
      <point x="186" y="-200"/>
      <point x="207" y="-192"/>
      <point x="223" y="-177" type="curve"/>
      <point x="214" y="-172"/>
      <point x="205" y="-148"/>
      <point x="205" y="-129" type="curve" smooth="yes"/>
      <point x="205" y="170"/>
      <point x="309" y="471"/>
      <point x="309" y="549" type="curve" smooth="yes"/>
      <point x="309" y="586"/>
      <point x="297" y="600"/>
      <point x="265" y="600" type="curve" smooth="yes"/>
      <point x="234" y="600"/>
      <point x="192" y="585"/>
      <point x="168" y="565" type="curve"/>
      <point x="209" y="522" type="line"/>
      <point x="154" y="214"/>
      <point x="110" y="-75"/>
      <point x="110" y="-127" type="curve" smooth="yes"/>
      <point x="110" y="-176"/>
      <point x="129" y="-200"/>
    </contour>
  </outline>
</glyph>
<glyph name="q" format="2">
  <advance width="737"/>
  <unicode hex="0071"/>
  <outline>
    <contour>
      <point x="478" y="-199" type="curve" smooth="yes"/>
      <point x="506" y="-199"/>
      <point x="548" y="-187"/>
      <point x="575" y="-164" type="curve"/>
      <point x="534" y="-121" type="line"/>
      <point x="588" y="171"/>
      <point x="658" y="470"/>
      <point x="658" y="538" type="curve" smooth="yes"/>
      <point x="658" y="562"/>
      <point x="639" y="575"/>
      <point x="609" y="575" type="curve" smooth="yes"/>
      <point x="599" y="575"/>
      <point x="577" y="571"/>
      <point x="562" y="554" type="curve"/>
      <point x="562" y="252"/>
      <point x="434" y="50"/>
      <point x="304" y="50" type="curve" smooth="yes"/>
      <point x="231" y="50"/>
      <point x="189" y="106"/>
      <point x="189" y="204" type="curve" smooth="yes"/>
      <point x="189" y="403"/>
      <point x="325" y="554"/>
      <point x="575" y="554" type="curve"/>
      <point x="575" y="567"/>
      <point x="571" y="579"/>
      <point x="563" y="592" type="curve"/>
      <point x="534" y="597"/>
      <point x="499" y="600"/>
      <point x="465" y="600" type="curve" smooth="yes"/>
      <point x="255" y="600"/>
      <point x="85" y="427"/>
      <point x="85" y="210" type="curve" smooth="yes"/>
      <point x="85" y="68"/>
      <point x="158" y="-25"/>
      <point x="266" y="-25" type="curve" smooth="yes"/>
      <point x="350" y="-25"/>
      <point x="427" y="28"/>
      <point x="477" y="121" type="curve"/>
      <point x="487" y="116" type="line"/>
      <point x="461" y="-11"/>
      <point x="434" y="-109"/>
      <point x="434" y="-148" type="curve" smooth="yes"/>
      <point x="434" y="-186"/>
      <point x="447" y="-199"/>
    </contour>
  </outline>
</glyph>
<glyph name="r" format="2">
  <advance width="479"/>
  <unicode hex="0072"/>
  <anchor x="125" y="0" name="bottom"/>
  <anchor x="347" y="575" name="top"/>
  <outline>
    <contour>
      <point x="171" y="-25" type="curve" smooth="yes"/>
      <point x="190" y="-25"/>
      <point x="207" y="-17"/>
      <point x="222" y="-2" type="curve"/>
      <point x="215" y="6"/>
      <point x="212" y="21"/>
      <point x="212" y="40" type="curve" smooth="yes"/>
      <point x="212" y="262"/>
      <point x="328" y="491"/>
      <point x="439" y="491" type="curve" smooth="yes"/>
      <point x="487" y="491"/>
      <point x="524" y="513"/>
      <point x="524" y="552" type="curve" smooth="yes"/>
      <point x="524" y="587"/>
      <point x="505" y="601"/>
      <point x="466" y="601" type="curve" smooth="yes"/>
      <point x="408" y="601"/>
      <point x="334" y="538"/>
      <point x="267" y="383" type="curve"/>
      <point x="257" y="388" type="line"/>
      <point x="283" y="450"/>
      <point x="300" y="502"/>
      <point x="300" y="547" type="curve" smooth="yes"/>
      <point x="300" y="571"/>
      <point x="289" y="596"/>
      <point x="254" y="596" type="curve" smooth="yes"/>
      <point x="230" y="596"/>
      <point x="199" y="580"/>
      <point x="166" y="552" type="curve"/>
      <point x="208" y="509" type="line"/>
      <point x="163" y="342"/>
      <point x="115" y="104"/>
      <point x="115" y="48" type="curve" smooth="yes"/>
      <point x="115" y="-4"/>
      <point x="135" y="-25"/>
    </contour>
  </outline>
</glyph>
<glyph name="s" format="2">
  <advance width="611"/>
  <unicode hex="0073"/>
  <anchor x="268" y="0" name="bottom"/>
  <anchor x="360" y="575" name="top"/>
  <outline>
    <contour>
      <point x="263" y="-25" type="curve" smooth="yes"/>
      <point x="441" y="-25"/>
      <point x="523" y="65"/>
      <point x="523" y="160" type="curve" smooth="yes"/>
      <point x="523" y="339"/>
      <point x="189" y="319"/>
      <point x="189" y="426" type="curve" smooth="yes"/>
      <point x="189" y="484"/>
      <point x="258" y="532"/>
      <point x="382" y="546" type="curve"/>
      <point x="398" y="488"/>
      <point x="430" y="454"/>
      <point x="481" y="454" type="curve" smooth="yes"/>
      <point x="529" y="454"/>
      <point x="562" y="476"/>
      <point x="562" y="523" type="curve" smooth="yes"/>
      <point x="562" y="569"/>
      <point x="488" y="600"/>
      <point x="390" y="600" type="curve" smooth="yes"/>
      <point x="211" y="600"/>
      <point x="97" y="518"/>
      <point x="97" y="416" type="curve" smooth="yes"/>
      <point x="97" y="232"/>
      <point x="432" y="260"/>
      <point x="432" y="145" type="curve" smooth="yes"/>
      <point x="432" y="68"/>
      <point x="366" y="28"/>
      <point x="258" y="28" type="curve" smooth="yes"/>
      <point x="196" y="28"/>
      <point x="136" y="63"/>
      <point x="103" y="131" type="curve"/>
      <point x="76" y="118"/>
      <point x="59" y="96"/>
      <point x="59" y="72" type="curve" smooth="yes"/>
      <point x="59" y="8"/>
      <point x="147" y="-25"/>
    </contour>
  </outline>
</glyph>
<glyph name="t" format="2">
  <advance width="442"/>
  <unicode hex="0074"/>
  <anchor x="294" y="488" name="_center"/>
  <anchor x="192" y="0" name="bottom"/>
  <anchor x="246" y="259" name="center"/>
  <anchor x="222" y="575" name="top"/>
  <anchor x="412" y="575" name="topright"/>
  <outline>
    <contour>
      <point x="208" y="-25" type="curve" smooth="yes"/>
      <point x="229" y="-25"/>
      <point x="256" y="-16"/>
      <point x="277" y="4" type="curve"/>
      <point x="251" y="48" type="line"/>
      <point x="248" y="285"/>
      <point x="375" y="547"/>
      <point x="375" y="647" type="curve" smooth="yes"/>
      <point x="375" y="684"/>
      <point x="359" y="698"/>
      <point x="326" y="698" type="curve" smooth="yes"/>
      <point x="298" y="698"/>
      <point x="263" y="687"/>
      <point x="246" y="667" type="curve"/>
      <point x="250" y="642"/>
      <point x="255" y="614"/>
      <point x="255" y="585" type="curve" smooth="yes"/>
      <point x="255" y="451"/>
      <point x="153" y="196"/>
      <point x="153" y="50" type="curve" smooth="yes"/>
      <point x="153" y="-13"/>
      <point x="179" y="-25"/>
    </contour>
    <contour>
      <point x="164" y="442" type="curve" smooth="yes"/>
      <point x="232" y="442"/>
      <point x="301" y="465"/>
      <point x="363" y="465" type="curve" smooth="yes"/>
      <point x="387" y="465"/>
      <point x="428" y="463"/>
      <point x="449" y="457" type="curve"/>
      <point x="462" y="471"/>
      <point x="465" y="486"/>
      <point x="465" y="499" type="curve" smooth="yes"/>
      <point x="465" y="520"/>
      <point x="456" y="535"/>
      <point x="425" y="535" type="curve" smooth="yes"/>
      <point x="358" y="535"/>
      <point x="290" y="513"/>
      <point x="229" y="513" type="curve" smooth="yes"/>
      <point x="203" y="513"/>
      <point x="160" y="515"/>
      <point x="139" y="521" type="curve"/>
      <point x="126" y="506"/>
      <point x="123" y="490"/>
      <point x="123" y="477" type="curve" smooth="yes"/>
      <point x="123" y="456"/>
      <point x="134" y="442"/>
    </contour>
  </outline>
</glyph>
<glyph name="u" format="2">
  <advance width="737"/>
  <unicode hex="0075"/>
  <anchor x="318" y="0" name="bottom"/>
  <anchor x="572" y="-3" name="ogonek"/>
  <anchor x="420" y="575" name="top"/>
  <anchor x="603" y="600" name="topright"/>
  <outline>
    <contour>
      <point x="266" y="-25" type="curve" smooth="yes"/>
      <point x="328" y="-25"/>
      <point x="409" y="17"/>
      <point x="450" y="78" type="curve"/>
      <point x="480" y="62" type="line"/>
      <point x="493" y="212" type="line"/>
      <point x="453" y="103"/>
      <point x="380" y="37"/>
      <point x="297" y="37" type="curve" smooth="yes"/>
      <point x="231" y="37"/>
      <point x="194" y="80"/>
      <point x="194" y="162" type="curve" smooth="yes"/>
      <point x="194" y="231"/>
      <point x="257" y="464"/>
      <point x="257" y="537" type="curve" smooth="yes"/>
      <point x="257" y="582"/>
      <point x="241" y="600"/>
      <point x="206" y="600" type="curve" smooth="yes"/>
      <point x="192" y="600"/>
      <point x="168" y="591"/>
      <point x="148" y="578" type="curve"/>
      <point x="153" y="557"/>
      <point x="157" y="532"/>
      <point x="157" y="505" type="curve" smooth="yes"/>
      <point x="157" y="408"/>
      <point x="105" y="257"/>
      <point x="105" y="137" type="curve" smooth="yes"/>
      <point x="105" y="27"/>
      <point x="156" y="-25"/>
    </contour>
    <contour>
      <point x="515" y="-25" type="curve" smooth="yes"/>
      <point x="537" y="-25"/>
      <point x="554" y="-19"/>
      <point x="571" y="-3" type="curve"/>
      <point x="562" y="5"/>
      <point x="557" y="19"/>
      <point x="557" y="40" type="curve" smooth="yes"/>
      <point x="557" y="201"/>
      <point x="652" y="529"/>
      <point x="652" y="550" type="curve" smooth="yes"/>
      <point x="652" y="587"/>
      <point x="638" y="600"/>
      <point x="602" y="600" type="curve" smooth="yes"/>
      <point x="569" y="600"/>
      <point x="520" y="582"/>
      <point x="510" y="566" type="curve"/>
      <point x="547" y="512" type="line"/>
      <point x="485" y="244"/>
      <point x="460" y="118"/>
      <point x="460" y="63" type="curve" smooth="yes"/>
      <point x="460" y="2"/>
      <point x="478" y="-25"/>
    </contour>
  </outline>
</glyph>
<glyph name="v" format="2">
  <advance width="645"/>
  <unicode hex="0076"/>
  <outline>
    <contour>
      <point x="252" y="-25" type="curve" smooth="yes"/>
      <point x="286" y="-25"/>
      <point x="327" y="-12"/>
      <point x="343" y="5" type="curve"/>
      <point x="329" y="29" type="line"/>
      <point x="496" y="268"/>
      <point x="585" y="445"/>
      <point x="585" y="528" type="curve" smooth="yes"/>
      <point x="585" y="572"/>
      <point x="566" y="600"/>
      <point x="538" y="600" type="curve" smooth="yes"/>
      <point x="517" y="600"/>
      <point x="506" y="597"/>
      <point x="471" y="580" type="curve"/>
      <point x="486" y="556"/>
      <point x="492" y="529"/>
      <point x="492" y="494" type="curve" smooth="yes"/>
      <point x="492" y="423"/>
      <point x="426" y="293"/>
      <point x="253" y="52" type="curve"/>
      <point x="243" y="52" type="line"/>
      <point x="243" y="67"/>
      <point x="242" y="76"/>
      <point x="242" y="275" type="curve" smooth="yes"/>
      <point x="242" y="518"/>
      <point x="227" y="600"/>
      <point x="144" y="600" type="curve" smooth="yes"/>
      <point x="122" y="600"/>
      <point x="103" y="594"/>
      <point x="85" y="580" type="curve"/>
      <point x="164" y="499"/>
      <point x="148" y="336"/>
      <point x="148" y="178" type="curve" smooth="yes"/>
      <point x="148" y="21"/>
      <point x="169" y="-25"/>
    </contour>
  </outline>
</glyph>
<glyph name="w" format="2">
  <advance width="904"/>
  <unicode hex="0077"/>
  <anchor x="402" y="0" name="bottom"/>
  <anchor x="504" y="575" name="top"/>
  <outline>
    <contour>
      <point x="205" y="-25" type="curve" smooth="yes"/>
      <point x="267" y="-25"/>
      <point x="318" y="12"/>
      <point x="438" y="232" type="curve" smooth="yes"/>
      <point x="519" y="380"/>
      <point x="555" y="439"/>
      <point x="555" y="503" type="curve" smooth="yes"/>
      <point x="555" y="544"/>
      <point x="533" y="570"/>
      <point x="500" y="570" type="curve" smooth="yes"/>
      <point x="480" y="570"/>
      <point x="464" y="567"/>
      <point x="436" y="550" type="curve"/>
      <point x="441" y="539"/>
      <point x="478" y="502"/>
      <point x="478" y="483" type="curve" smooth="yes"/>
      <point x="478" y="488"/>
      <point x="443" y="301"/>
      <point x="251" y="52" type="curve"/>
      <point x="241" y="52" type="line"/>
      <point x="243" y="67"/>
      <point x="242" y="76"/>
      <point x="242" y="275" type="curve" smooth="yes"/>
      <point x="242" y="518"/>
      <point x="227" y="600"/>
      <point x="144" y="600" type="curve" smooth="yes"/>
      <point x="122" y="600"/>
      <point x="103" y="594"/>
      <point x="85" y="580" type="curve"/>
      <point x="167" y="480"/>
      <point x="151" y="277"/>
      <point x="151" y="79" type="curve" smooth="yes"/>
      <point x="151" y="-4"/>
      <point x="161" y="-25"/>
    </contour>
    <contour>
      <point x="549" y="-25" type="curve" smooth="yes"/>
      <point x="581" y="-25"/>
      <point x="620" y="-12"/>
      <point x="637" y="5" type="curve"/>
      <point x="623" y="29" type="line"/>
      <point x="766" y="268"/>
      <point x="844" y="445"/>
      <point x="844" y="528" type="curve" smooth="yes"/>
      <point x="844" y="572"/>
      <point x="825" y="600"/>
      <point x="797" y="600" type="curve" smooth="yes"/>
      <point x="774" y="600"/>
      <point x="763" y="597"/>
      <point x="730" y="580" type="curve"/>
      <point x="745" y="556"/>
      <point x="751" y="529"/>
      <point x="751" y="494" type="curve" smooth="yes"/>
      <point x="751" y="423"/>
      <point x="695" y="293"/>
      <point x="547" y="52" type="curve"/>
      <point x="537" y="52" type="line"/>
      <point x="523" y="509" type="line"/>
      <point x="500" y="570" type="line"/>
      <point x="469" y="570"/>
      <point x="447" y="560"/>
      <point x="437" y="546" type="curve"/>
      <point x="468" y="96" type="line" smooth="yes"/>
      <point x="472" y="31"/>
      <point x="483" y="-25"/>
    </contour>
  </outline>
</glyph>
<glyph name="x" format="2">
  <advance width="640"/>
  <unicode hex="0078"/>
  <outline>
    <contour>
      <point x="522" y="-25" type="curve" smooth="yes"/>
      <point x="552" y="-25"/>
      <point x="584" y="-6"/>
      <point x="602" y="24" type="curve"/>
      <point x="553" y="42"/>
      <point x="520" y="66"/>
      <point x="473" y="146" type="curve" smooth="yes"/>
      <point x="287" y="485" type="line" smooth="yes"/>
      <point x="245" y="570"/>
      <point x="212" y="600"/>
      <point x="163" y="600" type="curve" smooth="yes"/>
      <point x="132" y="600"/>
      <point x="100" y="581"/>
      <point x="82" y="550" type="curve"/>
      <point x="132" y="532"/>
      <point x="164" y="509"/>
      <point x="211" y="429" type="curve" smooth="yes"/>
      <point x="398" y="89" type="line" smooth="yes"/>
      <point x="440" y="6"/>
      <point x="473" y="-25"/>
    </contour>
    <contour>
      <point x="95" y="-25" type="curve" smooth="yes"/>
      <point x="119" y="-25"/>
      <point x="144" y="-13"/>
      <point x="151" y="-5" type="curve"/>
      <point x="146" y="6"/>
      <point x="143" y="17"/>
      <point x="143" y="31" type="curve" smooth="yes"/>
      <point x="143" y="84"/>
      <point x="197" y="160"/>
      <point x="341" y="259" type="curve"/>
      <point x="315" y="307" type="line"/>
      <point x="180" y="198" type="line" smooth="yes"/>
      <point x="66" y="108"/>
      <point x="45" y="70"/>
      <point x="45" y="35" type="curve" smooth="yes"/>
      <point x="45" y="-1"/>
      <point x="64" y="-25"/>
    </contour>
    <contour>
      <point x="360" y="269" type="line"/>
      <point x="495" y="378" type="line" smooth="yes"/>
      <point x="609" y="467"/>
      <point x="630" y="507"/>
      <point x="630" y="540" type="curve" smooth="yes"/>
      <point x="630" y="577"/>
      <point x="611" y="601"/>
      <point x="580" y="601" type="curve" smooth="yes"/>
      <point x="556" y="601"/>
      <point x="531" y="589"/>
      <point x="524" y="580" type="curve"/>
      <point x="529" y="570"/>
      <point x="532" y="559"/>
      <point x="532" y="544" type="curve" smooth="yes"/>
      <point x="532" y="491"/>
      <point x="478" y="416"/>
      <point x="334" y="317" type="curve"/>
    </contour>
  </outline>
</glyph>
<glyph name="y" format="2">
  <advance width="654"/>
  <unicode hex="0079"/>
  <anchor x="262" y="-125" name="bottom"/>
  <anchor x="376" y="575" name="top"/>
  <outline>
    <contour>
      <point x="56" y="-200" type="curve" smooth="yes"/>
      <point x="408" y="-200"/>
      <point x="626" y="214"/>
      <point x="626" y="547" type="curve" smooth="yes"/>
      <point x="626" y="590"/>
      <point x="606" y="600"/>
      <point x="587" y="600" type="curve" smooth="yes"/>
      <point x="567" y="600"/>
      <point x="559" y="597"/>
      <point x="527" y="580" type="curve"/>
      <point x="529" y="566"/>
      <point x="529" y="541"/>
      <point x="529" y="525" type="curve" smooth="yes"/>
      <point x="529" y="12"/>
      <point x="214" y="-131"/>
      <point x="85" y="-131" type="curve" smooth="yes"/>
      <point x="6" y="-131"/>
      <point x="-23" y="-102"/>
      <point x="-44" y="-80" type="curve"/>
      <point x="-50" y="-93"/>
      <point x="-57" y="-112"/>
      <point x="-57" y="-127" type="curve" smooth="yes"/>
      <point x="-57" y="-169"/>
      <point x="-24" y="-200"/>
    </contour>
    <contour>
      <point x="339" y="-25" type="curve"/>
      <point x="394" y="12" type="line"/>
      <point x="121" y="12"/>
      <point x="365" y="600"/>
      <point x="141" y="600" type="curve" smooth="yes"/>
      <point x="121" y="600"/>
      <point x="103" y="594"/>
      <point x="85" y="580" type="curve"/>
      <point x="231" y="449"/>
      <point x="37" y="-25"/>
    </contour>
  </outline>
</glyph>
<glyph name="z" format="2">
  <advance width="599"/>
  <unicode hex="007A"/>
  <anchor x="244" y="0" name="bottom"/>
  <anchor x="345" y="575" name="top"/>
  <outline>
    <contour>
      <point x="205" y="72" type="line"/>
      <point x="498" y="507" type="line"/>
      <point x="385" y="482" type="line"/>
      <point x="121" y="89" type="line"/>
    </contour>
    <contour>
      <point x="407" y="-25" type="curve" smooth="yes"/>
      <point x="468" y="-25"/>
      <point x="519" y="7"/>
      <point x="519" y="52" type="curve" smooth="yes"/>
      <point x="519" y="72"/>
      <point x="510" y="89"/>
      <point x="498" y="106" type="curve"/>
      <point x="407" y="53" type="line"/>
      <point x="341" y="53"/>
      <point x="212" y="113"/>
      <point x="151" y="113" type="curve" smooth="yes"/>
      <point x="76" y="112"/>
      <point x="40" y="72"/>
      <point x="40" y="33" type="curve" smooth="yes"/>
      <point x="40" y="7"/>
      <point x="57" y="-18"/>
      <point x="89" y="-18" type="curve" smooth="yes"/>
      <point x="121" y="-18"/>
      <point x="145" y="-6"/>
      <point x="178" y="25" type="curve"/>
      <point x="255" y="-2"/>
      <point x="322" y="-25"/>
    </contour>
    <contour>
      <point x="322" y="465" type="curve" smooth="yes"/>
      <point x="504" y="465"/>
      <point x="554" y="504"/>
      <point x="554" y="551" type="curve" smooth="yes"/>
      <point x="554" y="584"/>
      <point x="529" y="600"/>
      <point x="494" y="600" type="curve" smooth="yes"/>
      <point x="457" y="600"/>
      <point x="420" y="573"/>
      <point x="402" y="530" type="curve"/>
      <point x="341" y="533"/>
      <point x="204" y="568"/>
      <point x="116" y="605" type="curve"/>
      <point x="108" y="581"/>
      <point x="105" y="569"/>
      <point x="105" y="559" type="curve" smooth="yes"/>
      <point x="105" y="488"/>
      <point x="171" y="467"/>
    </contour>
  </outline>
</glyph>
<glyph name="braceleft" format="2">
  <advance width="336"/>
  <unicode hex="007B"/>
  <outline>
    <contour>
      <point x="129" y="-156" type="curve" smooth="yes"/>
      <point x="210" y="-156"/>
      <point x="248" y="-135"/>
      <point x="248" y="-102" type="curve" smooth="yes"/>
      <point x="248" y="-96"/>
      <point x="246" y="-82"/>
      <point x="243" y="-71" type="curve"/>
      <point x="232" y="-75"/>
      <point x="170" y="-81"/>
      <point x="141" y="-81" type="curve"/>
      <point x="188" y="160"/>
      <point x="192" y="209"/>
      <point x="192" y="225" type="curve" smooth="yes"/>
      <point x="192" y="269"/>
      <point x="177" y="310"/>
      <point x="152" y="339" type="curve"/>
      <point x="207" y="395"/>
      <point x="239" y="463"/>
      <point x="268" y="722" type="curve"/>
      <point x="296" y="722"/>
      <point x="363" y="717"/>
      <point x="377" y="712" type="curve"/>
      <point x="378" y="725"/>
      <point x="378" y="732"/>
      <point x="378" y="740" type="curve" smooth="yes"/>
      <point x="378" y="780"/>
      <point x="338" y="800"/>
      <point x="280" y="800" type="curve" smooth="yes"/>
      <point x="212" y="800"/>
      <point x="141" y="787"/>
      <point x="141" y="591" type="curve" smooth="yes"/>
      <point x="141" y="528"/>
      <point x="138" y="426"/>
      <point x="132" y="367" type="curve"/>
      <point x="124" y="374"/>
      <point x="115" y="378"/>
      <point x="102" y="378" type="curve" smooth="yes"/>
      <point x="81" y="378"/>
      <point x="64" y="362"/>
      <point x="64" y="344" type="curve" smooth="yes"/>
      <point x="64" y="322"/>
      <point x="84" y="307"/>
      <point x="105" y="307" type="curve" smooth="yes"/>
      <point x="112" y="307"/>
      <point x="118" y="308"/>
      <point x="124" y="310" type="curve"/>
      <point x="65" y="182"/>
      <point x="40" y="39"/>
      <point x="40" y="-46" type="curve" smooth="yes"/>
      <point x="40" y="-119"/>
      <point x="69" y="-156"/>
    </contour>
  </outline>
</glyph>
<glyph name="asciitilde" format="2">
  <advance width="709"/>
  <unicode hex="007E"/>
  <outline>
    <contour>
      <point x="189" y="294" type="curve" smooth="yes"/>
      <point x="243" y="294"/>
      <point x="438" y="350"/>
      <point x="581" y="350" type="curve"/>
      <point x="591" y="374"/>
      <point x="597" y="393"/>
      <point x="597" y="407" type="curve" smooth="yes"/>
      <point x="597" y="447"/>
      <point x="584" y="453"/>
      <point x="547" y="453" type="curve" smooth="yes"/>
      <point x="494" y="453"/>
      <point x="299" y="397"/>
      <point x="155" y="397" type="curve"/>
      <point x="145" y="373"/>
      <point x="139" y="354"/>
      <point x="139" y="340" type="curve" smooth="yes"/>
      <point x="139" y="300"/>
      <point x="153" y="294"/>
    </contour>
  </outline>
</glyph>
<glyph name="cent" format="2">
  <advance width="567"/>
  <unicode hex="00A2"/>
  <anchor x="319" y="358" name="_center"/>
  <outline>
    <contour>
      <point x="290" y="74" type="curve" smooth="yes"/>
      <point x="398" y="74"/>
      <point x="488" y="138"/>
      <point x="488" y="214" type="curve" smooth="yes"/>
      <point x="488" y="250"/>
      <point x="462" y="263"/>
      <point x="422" y="263" type="curve"/>
      <point x="419" y="185"/>
      <point x="367" y="125"/>
      <point x="285" y="125" type="curve" smooth="yes"/>
      <point x="221" y="125"/>
      <point x="180" y="181"/>
      <point x="180" y="274" type="curve" smooth="yes"/>
      <point x="180" y="404"/>
      <point x="251" y="508"/>
      <point x="346" y="548" type="curve"/>
      <point x="370" y="503"/>
      <point x="410" y="490"/>
      <point x="448" y="490" type="curve" smooth="yes"/>
      <point x="487" y="490"/>
      <point x="515" y="514"/>
      <point x="515" y="546" type="curve" smooth="yes"/>
      <point x="515" y="583"/>
      <point x="473" y="605"/>
      <point x="404" y="605" type="curve" smooth="yes"/>
      <point x="229" y="605"/>
      <point x="85" y="466"/>
      <point x="85" y="280" type="curve" smooth="yes"/>
      <point x="85" y="151"/>
      <point x="162" y="74"/>
    </contour>
    <contour>
      <point x="240" y="-72" type="curve" smooth="yes"/>
      <point x="271" y="-71"/>
      <point x="289" y="-54"/>
      <point x="296" y="-19" type="curve" smooth="yes"/>
      <point x="302" y="22"/>
      <point x="310" y="63"/>
      <point x="318" y="103" type="curve"/>
      <point x="236" y="103" type="line"/>
      <point x="222" y="44"/>
      <point x="208" y="-10"/>
      <point x="195" y="-60" type="curve"/>
      <point x="211" y="-68"/>
      <point x="225" y="-72"/>
    </contour>
    <contour>
      <point x="340" y="578" type="curve"/>
      <point x="420" y="578" type="line"/>
      <point x="439" y="648"/>
      <point x="459" y="713"/>
      <point x="478" y="773" type="curve"/>
      <point x="464" y="782"/>
      <point x="449" y="786"/>
      <point x="435" y="786" type="curve" smooth="yes"/>
      <point x="404" y="786"/>
      <point x="385" y="771"/>
      <point x="377" y="737" type="curve" smooth="yes"/>
      <point x="364" y="681"/>
      <point x="352" y="628"/>
    </contour>
  </outline>
</glyph>
<glyph name="sterling" format="2">
  <advance width="593"/>
  <unicode hex="00A3"/>
  <outline>
    <contour>
      <point x="444" y="-30" type="curve" smooth="yes"/>
      <point x="514" y="-30"/>
      <point x="570" y="6"/>
      <point x="570" y="54" type="curve" smooth="yes"/>
      <point x="570" y="69"/>
      <point x="563" y="84"/>
      <point x="544" y="110" type="curve"/>
      <point x="444" y="51" type="line"/>
      <point x="368" y="51"/>
      <point x="205" y="118"/>
      <point x="149" y="118" type="curve" smooth="yes"/>
      <point x="82" y="118"/>
      <point x="35" y="81"/>
      <point x="35" y="30" type="curve" smooth="yes"/>
      <point x="35" y="1"/>
      <point x="59" y="-22"/>
      <point x="90" y="-22" type="curve" smooth="yes"/>
      <point x="124" y="-22"/>
      <point x="150" y="-7"/>
      <point x="188" y="34" type="curve"/>
      <point x="325" y="-21"/>
      <point x="380" y="-30"/>
    </contour>
    <contour>
      <point x="144" y="72" type="line"/>
      <point x="211" y="74" type="line"/>
      <point x="307" y="610" type="line"/>
      <point x="416" y="610"/>
      <point x="519" y="592"/>
      <point x="580" y="563" type="curve"/>
      <point x="585" y="587"/>
      <point x="587" y="597"/>
      <point x="587" y="606" type="curve" smooth="yes"/>
      <point x="587" y="669"/>
      <point x="519" y="698"/>
      <point x="413" y="698" type="curve" smooth="yes"/>
      <point x="272" y="698"/>
      <point x="197" y="639"/>
      <point x="181" y="469" type="curve" smooth="yes"/>
    </contour>
    <component base="strokeshortcomb" xScale="0.9" yScale="0.8" xOffset="-68" yOffset="53"/>
  </outline>
</glyph>
<glyph name="currency" format="2">
  <advance width="643"/>
  <unicode hex="00A4"/>
  <outline>
    <contour>
      <point x="307" y="132" type="curve"/>
      <point x="449" y="132"/>
      <point x="547" y="253"/>
      <point x="547" y="359" type="curve" smooth="yes"/>
      <point x="547" y="465"/>
      <point x="487" y="539"/>
      <point x="384" y="539" type="curve" smooth="yes"/>
      <point x="231" y="539"/>
      <point x="125" y="448"/>
      <point x="125" y="312" type="curve" smooth="yes"/>
      <point x="125" y="206"/>
      <point x="192" y="132"/>
    </contour>
    <contour>
      <point x="111" y="20" type="curve" smooth="yes"/>
      <point x="130" y="20"/>
      <point x="145" y="31"/>
      <point x="160" y="51" type="curve" smooth="yes"/>
      <point x="191" y="101"/>
      <point x="220" y="146"/>
      <point x="248" y="190" type="curve"/>
      <point x="197" y="251" type="line"/>
      <point x="148" y="179"/>
      <point x="98" y="113"/>
      <point x="52" y="53" type="curve"/>
      <point x="66" y="34"/>
      <point x="89" y="20"/>
    </contour>
    <contour>
      <point x="453" y="20" type="curve" smooth="yes"/>
      <point x="475" y="20"/>
      <point x="500" y="34"/>
      <point x="517" y="53" type="curve"/>
      <point x="487" y="103"/>
      <point x="455" y="158"/>
      <point x="423" y="217" type="curve"/>
      <point x="342" y="190" type="line"/>
      <point x="363" y="146"/>
      <point x="386" y="101"/>
      <point x="410" y="51" type="curve" smooth="yes"/>
      <point x="420" y="31"/>
      <point x="434" y="20"/>
    </contour>
    <contour>
      <point x="306" y="200" type="curve" smooth="yes"/>
      <point x="250" y="200"/>
      <point x="220" y="246"/>
      <point x="220" y="305" type="curve" smooth="yes"/>
      <point x="220" y="357"/>
      <point x="245" y="421"/>
      <point x="301" y="471" type="curve"/>
      <point x="316" y="471"/>
      <point x="328" y="472"/>
      <point x="342" y="472" type="curve" smooth="yes"/>
      <point x="432" y="472"/>
      <point x="452" y="432"/>
      <point x="452" y="382" type="curve" smooth="yes"/>
      <point x="452" y="290"/>
      <point x="407" y="200"/>
    </contour>
    <contour>
      <point x="244" y="450" type="curve"/>
      <point x="304" y="516" type="line"/>
      <point x="283" y="559"/>
      <point x="279" y="570"/>
      <point x="255" y="620" type="curve" smooth="yes"/>
      <point x="244" y="641"/>
      <point x="231" y="651"/>
      <point x="212" y="651" type="curve" smooth="yes"/>
      <point x="192" y="651"/>
      <point x="165" y="638"/>
      <point x="147" y="618" type="curve"/>
      <point x="185" y="555"/>
      <point x="204" y="525"/>
    </contour>
    <contour>
      <point x="486" y="454" type="line"/>
      <point x="527" y="513"/>
      <point x="568" y="568"/>
      <point x="606" y="618" type="curve"/>
      <point x="592" y="638"/>
      <point x="566" y="651"/>
      <point x="547" y="651" type="curve" smooth="yes"/>
      <point x="528" y="651"/>
      <point x="513" y="641"/>
      <point x="498" y="620" type="curve" smooth="yes"/>
      <point x="467" y="570"/>
      <point x="438" y="525"/>
      <point x="410" y="481" type="curve"/>
    </contour>
  </outline>
</glyph>
<glyph name="yen" format="2">
  <advance width="617"/>
  <unicode hex="00A5"/>
  <anchor x="308" y="369" name="_center"/>
  <outline>
    <contour>
      <point x="319" y="224" type="curve" smooth="yes"/>
      <point x="424" y="224"/>
      <point x="610" y="485"/>
      <point x="610" y="636" type="curve" smooth="yes"/>
      <point x="610" y="673"/>
      <point x="587" y="700"/>
      <point x="555" y="700" type="curve" smooth="yes"/>
      <point x="537" y="700"/>
      <point x="525" y="698"/>
      <point x="484" y="680" type="curve"/>
      <point x="504" y="658"/>
      <point x="512" y="637"/>
      <point x="512" y="607" type="curve" smooth="yes"/>
      <point x="512" y="527"/>
      <point x="433" y="383"/>
      <point x="345" y="302" type="curve"/>
      <point x="341" y="302" type="line"/>
      <point x="317" y="528"/>
      <point x="296" y="700"/>
      <point x="185" y="700" type="curve" smooth="yes"/>
      <point x="161" y="700"/>
      <point x="140" y="694"/>
      <point x="122" y="680" type="curve"/>
      <point x="199" y="618"/>
      <point x="218" y="496"/>
      <point x="231" y="370" type="curve" smooth="yes"/>
      <point x="242" y="259"/>
      <point x="260" y="224"/>
    </contour>
    <contour>
      <point x="149" y="181" type="curve" smooth="yes"/>
      <point x="197" y="181"/>
      <point x="246" y="190"/>
      <point x="291" y="196" type="curve"/>
      <point x="295" y="254" type="line"/>
      <point x="269" y="250"/>
      <point x="243" y="247"/>
      <point x="219" y="247" type="curve" smooth="yes"/>
      <point x="192" y="247"/>
      <point x="146" y="248"/>
      <point x="123" y="256" type="curve"/>
      <point x="109" y="240"/>
      <point x="107" y="225"/>
      <point x="107" y="214" type="curve" smooth="yes"/>
      <point x="107" y="193"/>
      <point x="117" y="181"/>
    </contour>
    <contour>
      <point x="285" y="-25" type="curve" smooth="yes"/>
      <point x="306" y="-25"/>
      <point x="328" y="-19"/>
      <point x="358" y="-3" type="curve" smooth="yes"/>
      <point x="348" y="11"/>
      <point x="344" y="28"/>
      <point x="344" y="54" type="curve" smooth="yes"/>
      <point x="344" y="108"/>
      <point x="363" y="179"/>
      <point x="393" y="303" type="curve"/>
      <point x="289" y="303" type="line"/>
      <point x="252" y="156"/>
      <point x="236" y="89"/>
      <point x="236" y="43" type="curve" smooth="yes"/>
      <point x="236" y="-5"/>
      <point x="251" y="-25"/>
    </contour>
    <contour>
      <point x="172" y="311" type="curve" smooth="yes"/>
      <point x="216" y="311"/>
      <point x="260" y="319"/>
      <point x="302" y="325" type="curve"/>
      <point x="307" y="382" type="line"/>
      <point x="285" y="380"/>
      <point x="263" y="377"/>
      <point x="242" y="377" type="curve" smooth="yes"/>
      <point x="215" y="377"/>
      <point x="169" y="378"/>
      <point x="146" y="386" type="curve"/>
      <point x="132" y="370"/>
      <point x="130" y="355"/>
      <point x="130" y="344" type="curve" smooth="yes"/>
      <point x="130" y="323"/>
      <point x="140" y="311"/>
    </contour>
    <contour>
      <point x="531" y="194" type="curve"/>
      <point x="545" y="208"/>
      <point x="548" y="222"/>
      <point x="548" y="235" type="curve" smooth="yes"/>
      <point x="548" y="253"/>
      <point x="538" y="269"/>
      <point x="505" y="269" type="curve" smooth="yes"/>
      <point x="450" y="269"/>
      <point x="397" y="260"/>
      <point x="345" y="254" type="curve"/>
      <point x="340" y="196" type="line"/>
      <point x="376" y="199"/>
      <point x="410" y="201"/>
      <point x="440" y="201" type="curve" smooth="yes"/>
      <point x="466" y="201"/>
      <point x="509" y="200"/>
    </contour>
    <contour>
      <point x="552" y="324" type="curve"/>
      <point x="566" y="338"/>
      <point x="569" y="352"/>
      <point x="569" y="365" type="curve" smooth="yes"/>
      <point x="569" y="383"/>
      <point x="559" y="399"/>
      <point x="526" y="399" type="curve" smooth="yes"/>
      <point x="493" y="399"/>
      <point x="459" y="394"/>
      <point x="426" y="388" type="curve"/>
      <point x="403" y="331" type="line"/>
      <point x="424" y="332"/>
      <point x="443" y="331"/>
      <point x="461" y="331" type="curve" smooth="yes"/>
      <point x="487" y="331"/>
      <point x="530" y="330"/>
    </contour>
  </outline>
</glyph>
<glyph name="brokenbar" format="2">
  <advance width="437"/>
  <unicode hex="00A6"/>
  <outline>
    <contour>
      <point x="207" y="465" type="line"/>
      <point x="301" y="465" type="line"/>
      <point x="382" y="826" type="line"/>
      <point x="382" y="866"/>
      <point x="369" y="880"/>
      <point x="339" y="880" type="curve" smooth="yes"/>
      <point x="320" y="880"/>
      <point x="291" y="873"/>
      <point x="272" y="858" type="curve"/>
      <point x="281" y="797" type="line"/>
    </contour>
    <contour>
      <point x="118" y="-180" type="curve" smooth="yes"/>
      <point x="137" y="-180"/>
      <point x="166" y="-173"/>
      <point x="185" y="-158" type="curve"/>
      <point x="176" y="-97" type="line"/>
      <point x="249" y="236" type="line"/>
      <point x="156" y="236" type="line"/>
      <point x="75" y="-126" type="line"/>
      <point x="75" y="-166"/>
      <point x="88" y="-180"/>
    </contour>
  </outline>
</glyph>
<glyph name="section" format="2">
  <advance width="704"/>
  <unicode hex="00A7"/>
  <outline>
    <contour>
      <point x="448" y="96" type="line"/>
      <point x="547" y="135"/>
      <point x="604" y="207"/>
      <point x="604" y="285" type="curve" smooth="yes"/>
      <point x="604" y="504"/>
      <point x="243" y="471"/>
      <point x="243" y="612" type="curve" smooth="yes"/>
      <point x="243" y="692"/>
      <point x="320" y="733"/>
      <point x="430" y="733" type="curve" smooth="yes"/>
      <point x="502" y="733"/>
      <point x="574" y="693"/>
      <point x="610" y="610" type="curve"/>
      <point x="634" y="624"/>
      <point x="649" y="648"/>
      <point x="649" y="675" type="curve" smooth="yes"/>
      <point x="649" y="754"/>
      <point x="551" y="795"/>
      <point x="424" y="795" type="curve" smooth="yes"/>
      <point x="227" y="795"/>
      <point x="139" y="694"/>
      <point x="139" y="593" type="curve" smooth="yes"/>
      <point x="139" y="379"/>
      <point x="499" y="402"/>
      <point x="499" y="274" type="curve" smooth="yes"/>
      <point x="499" y="217"/>
      <point x="450" y="172"/>
      <point x="360" y="147" type="curve"/>
    </contour>
    <contour>
      <point x="284" y="-187" type="curve" smooth="yes"/>
      <point x="481" y="-187"/>
      <point x="569" y="-86"/>
      <point x="569" y="15" type="curve" smooth="yes"/>
      <point x="569" y="229"/>
      <point x="209" y="207"/>
      <point x="209" y="335" type="curve" smooth="yes"/>
      <point x="209" y="389"/>
      <point x="255" y="434"/>
      <point x="342" y="459" type="curve"/>
      <point x="227" y="499" type="line"/>
      <point x="147" y="457"/>
      <point x="104" y="392"/>
      <point x="104" y="324" type="curve" smooth="yes"/>
      <point x="104" y="104"/>
      <point x="466" y="137"/>
      <point x="466" y="-4" type="curve" smooth="yes"/>
      <point x="466" y="-84"/>
      <point x="388" y="-125"/>
      <point x="279" y="-125" type="curve" smooth="yes"/>
      <point x="207" y="-125"/>
      <point x="135" y="-85"/>
      <point x="99" y="-2" type="curve"/>
      <point x="75" y="-16"/>
      <point x="59" y="-40"/>
      <point x="59" y="-67" type="curve" smooth="yes"/>
      <point x="59" y="-146"/>
      <point x="157" y="-187"/>
    </contour>
  </outline>
</glyph>
<glyph name="ordfeminine" format="2">
  <advance width="519"/>
  <unicode hex="00AA"/>
  <outline>
    <contour>
      <point x="205" y="333" type="curve" smooth="yes"/>
      <point x="266" y="333"/>
      <point x="322" y="371"/>
      <point x="358" y="436" type="curve"/>
      <point x="365" y="433" type="line"/>
      <point x="362" y="417"/>
      <point x="360" y="404"/>
      <point x="360" y="392" type="curve" smooth="yes"/>
      <point x="360" y="354"/>
      <point x="378" y="333"/>
      <point x="412" y="333" type="curve" smooth="yes"/>
      <point x="429" y="333"/>
      <point x="445" y="339"/>
      <point x="461" y="355" type="curve"/>
      <point x="452" y="361"/>
      <point x="449" y="376"/>
      <point x="449" y="392" type="curve" smooth="yes"/>
      <point x="449" y="525"/>
      <point x="502" y="660"/>
      <point x="502" y="719" type="curve" smooth="yes"/>
      <point x="502" y="741"/>
      <point x="487" y="753"/>
      <point x="463" y="753" type="curve" smooth="yes"/>
      <point x="444" y="753"/>
      <point x="427" y="745"/>
      <point x="414" y="730" type="curve"/>
      <point x="387" y="513"/>
      <point x="333" y="405"/>
      <point x="246" y="405" type="curve" smooth="yes"/>
      <point x="201" y="405"/>
      <point x="174" y="439"/>
      <point x="174" y="499" type="curve" smooth="yes"/>
      <point x="174" y="630"/>
      <point x="255" y="730"/>
      <point x="427" y="730" type="curve"/>
      <point x="427" y="742"/>
      <point x="424" y="754"/>
      <point x="419" y="764" type="curve"/>
      <point x="397" y="768"/>
      <point x="375" y="770"/>
      <point x="354" y="770" type="curve" smooth="yes"/>
      <point x="206" y="770"/>
      <point x="84" y="649"/>
      <point x="84" y="490" type="curve" smooth="yes"/>
      <point x="84" y="395"/>
      <point x="133" y="333"/>
    </contour>
  </outline>
</glyph>
<glyph name="guillemotleft" format="2">
  <advance width="616"/>
  <unicode hex="00AB"/>
  <outline>
    <contour>
      <point x="465" y="25" type="curve"/>
      <point x="499" y="25"/>
      <point x="517" y="37"/>
      <point x="517" y="78" type="curve" smooth="yes"/>
      <point x="517" y="137"/>
      <point x="461" y="187"/>
      <point x="348" y="300" type="curve"/>
      <point x="472" y="376"/>
      <point x="579" y="453"/>
      <point x="579" y="501" type="curve" smooth="yes"/>
      <point x="579" y="546"/>
      <point x="531" y="549"/>
      <point x="536" y="549" type="curve"/>
      <point x="330" y="377"/>
      <point x="301" y="353"/>
      <point x="301" y="288" type="curve" smooth="yes"/>
      <point x="301" y="238"/>
      <point x="396" y="111"/>
    </contour>
    <contour>
      <point x="225" y="25" type="curve"/>
      <point x="259" y="25"/>
      <point x="278" y="37"/>
      <point x="278" y="78" type="curve" smooth="yes"/>
      <point x="278" y="137"/>
      <point x="221" y="187"/>
      <point x="110" y="300" type="curve"/>
      <point x="232" y="376"/>
      <point x="339" y="453"/>
      <point x="339" y="501" type="curve" smooth="yes"/>
      <point x="339" y="546"/>
      <point x="292" y="549"/>
      <point x="296" y="549" type="curve"/>
      <point x="90" y="377"/>
      <point x="61" y="353"/>
      <point x="61" y="288" type="curve" smooth="yes"/>
      <point x="61" y="238"/>
      <point x="156" y="111"/>
    </contour>
  </outline>
</glyph>
<glyph name="logicalnot" format="2">
  <advance width="701"/>
  <unicode hex="00AC"/>
  <outline>
    <contour>
      <point x="472" y="86" type="curve" smooth="yes"/>
      <point x="489" y="86"/>
      <point x="512" y="92"/>
      <point x="542" y="102" type="curve"/>
      <point x="585" y="389" type="line"/>
      <point x="488" y="425" type="line"/>
      <point x="446" y="141" type="line" smooth="yes"/>
      <point x="439" y="100"/>
      <point x="445" y="86"/>
    </contour>
    <contour>
      <point x="197" y="321" type="curve" smooth="yes"/>
      <point x="569" y="321" type="line"/>
      <point x="585" y="389" type="line"/>
      <point x="585" y="416"/>
      <point x="572" y="424"/>
      <point x="531" y="424" type="curve" smooth="yes"/>
      <point x="158" y="424" type="line"/>
      <point x="148" y="396"/>
      <point x="142" y="374"/>
      <point x="142" y="357" type="curve" smooth="yes"/>
      <point x="142" y="330"/>
      <point x="156" y="321"/>
    </contour>
  </outline>
</glyph>
<glyph name="mu" format="2">
  <advance width="737"/>
  <unicode hex="00B5"/>
  <anchor x="572" y="-3" name="ogonek"/>
  <anchor x="420" y="575" name="top"/>
  <anchor x="717" y="575" name="topright"/>
  <outline>
    <contour>
      <point x="122" y="-200" type="curve" smooth="yes"/>
      <point x="148" y="-200"/>
      <point x="169" y="-192"/>
      <point x="185" y="-177" type="curve"/>
      <point x="162" y="-145"/>
      <point x="151" y="-89"/>
      <point x="171" y="34" type="curve"/>
      <point x="251" y="-65"/>
      <point x="411" y="-12"/>
      <point x="450" y="78" type="curve"/>
      <point x="480" y="62" type="line"/>
      <point x="493" y="212" type="line"/>
      <point x="453" y="103"/>
      <point x="380" y="37"/>
      <point x="297" y="37" type="curve" smooth="yes"/>
      <point x="230" y="37"/>
      <point x="194" y="71"/>
      <point x="194" y="137" type="curve" smooth="yes"/>
      <point x="194" y="218"/>
      <point x="271" y="494"/>
      <point x="271" y="549" type="curve" smooth="yes"/>
      <point x="271" y="586"/>
      <point x="259" y="600"/>
      <point x="227" y="600" type="curve" smooth="yes"/>
      <point x="196" y="600"/>
      <point x="154" y="585"/>
      <point x="130" y="565" type="curve"/>
      <point x="171" y="522" type="line"/>
      <point x="116" y="214"/>
      <point x="72" y="-75"/>
      <point x="72" y="-127" type="curve" smooth="yes"/>
      <point x="72" y="-176"/>
      <point x="91" y="-200"/>
    </contour>
    <contour>
      <point x="515" y="-25" type="curve" smooth="yes"/>
      <point x="537" y="-25"/>
      <point x="554" y="-19"/>
      <point x="571" y="-3" type="curve"/>
      <point x="562" y="5"/>
      <point x="557" y="19"/>
      <point x="557" y="40" type="curve" smooth="yes"/>
      <point x="557" y="201"/>
      <point x="652" y="529"/>
      <point x="652" y="550" type="curve" smooth="yes"/>
      <point x="652" y="587"/>
      <point x="638" y="600"/>
      <point x="602" y="600" type="curve" smooth="yes"/>
      <point x="569" y="600"/>
      <point x="520" y="582"/>
      <point x="510" y="566" type="curve"/>
      <point x="547" y="512" type="line"/>
      <point x="485" y="244"/>
      <point x="460" y="118"/>
      <point x="460" y="63" type="curve" smooth="yes"/>
      <point x="460" y="2"/>
      <point x="478" y="-25"/>
    </contour>
  </outline>
</glyph>
<glyph name="paragraph" format="2">
  <advance width="568"/>
  <unicode hex="00B6"/>
  <outline>
    <contour>
      <point x="336" y="-99" type="curve" smooth="yes"/>
      <point x="360" y="-99"/>
      <point x="391" y="-91"/>
      <point x="420" y="-72" type="curve"/>
      <point x="407" y="-62"/>
      <point x="402" y="-43"/>
      <point x="402" y="-22" type="curve" smooth="yes"/>
      <point x="402" y="194"/>
      <point x="519" y="428"/>
      <point x="519" y="559" type="curve" smooth="yes"/>
      <point x="519" y="702"/>
      <point x="401" y="734"/>
      <point x="332" y="734" type="curve" smooth="yes"/>
      <point x="175" y="734"/>
      <point x="97" y="608"/>
      <point x="97" y="501" type="curve" smooth="yes"/>
      <point x="97" y="420"/>
      <point x="143" y="349"/>
      <point x="237" y="349" type="curve" smooth="yes"/>
      <point x="305" y="349"/>
      <point x="359" y="386"/>
      <point x="403" y="463" type="curve"/>
      <point x="423" y="463" type="line"/>
      <point x="320" y="254"/>
      <point x="263" y="72"/>
      <point x="263" y="-13" type="curve" smooth="yes"/>
      <point x="263" y="-63"/>
      <point x="283" y="-99"/>
    </contour>
  </outline>
</glyph>
<glyph name="ordmasculine" format="2">
  <advance width="491"/>
  <unicode hex="00BA"/>
  <outline>
    <contour>
      <point x="262" y="333" type="curve" smooth="yes"/>
      <point x="401" y="333"/>
      <point x="489" y="450"/>
      <point x="489" y="610" type="curve" smooth="yes"/>
      <point x="489" y="681"/>
      <point x="459" y="725"/>
      <point x="421" y="725" type="curve" smooth="yes"/>
      <point x="402" y="725"/>
      <point x="384" y="716"/>
      <point x="373" y="700" type="curve"/>
      <point x="399" y="667"/>
      <point x="414" y="622"/>
      <point x="414" y="560" type="curve" smooth="yes"/>
      <point x="414" y="452"/>
      <point x="356" y="382"/>
      <point x="274" y="382" type="curve" smooth="yes"/>
      <point x="214" y="382"/>
      <point x="178" y="428"/>
      <point x="178" y="514" type="curve" smooth="yes"/>
      <point x="178" y="642"/>
      <point x="260" y="729"/>
      <point x="391" y="724" type="curve"/>
      <point x="390" y="740"/>
      <point x="389" y="755"/>
      <point x="385" y="766" type="curve"/>
      <point x="369" y="770"/>
      <point x="358" y="770"/>
      <point x="337" y="770" type="curve" smooth="yes"/>
      <point x="191" y="770"/>
      <point x="88" y="667"/>
      <point x="88" y="518" type="curve" smooth="yes"/>
      <point x="88" y="405"/>
      <point x="157" y="333"/>
    </contour>
  </outline>
</glyph>
<glyph name="AE" format="2">
  <advance width="832"/>
  <unicode hex="00C6"/>
  <anchor x="490" y="0" name="bottom"/>
  <anchor x="603" y="710" name="top"/>
  <outline>
    <contour>
      <point x="92" y="-29" type="curve" smooth="yes"/>
      <point x="113" y="-29"/>
      <point x="139" y="-28"/>
      <point x="164" y="-7" type="curve"/>
      <point x="148" y="14"/>
      <point x="148" y="40"/>
      <point x="148" y="68" type="curve" smooth="yes"/>
      <point x="148" y="169"/>
      <point x="238" y="348"/>
      <point x="454" y="644" type="curve"/>
      <point x="466" y="644" type="line"/>
      <point x="488" y="682" type="line"/>
      <point x="480" y="712"/>
      <point x="466" y="726"/>
      <point x="434" y="726" type="curve" smooth="yes"/>
      <point x="402" y="726"/>
      <point x="378" y="720"/>
      <point x="348" y="707" type="curve"/>
      <point x="378" y="676" type="line"/>
      <point x="164" y="384"/>
      <point x="48" y="153"/>
      <point x="48" y="42" type="curve" smooth="yes"/>
      <point x="48" y="-1"/>
      <point x="61" y="-29"/>
    </contour>
    <contour>
      <point x="138" y="194" type="line"/>
      <point x="466" y="194" type="line"/>
      <point x="477" y="253" type="line"/>
      <point x="151" y="253" type="line"/>
    </contour>
    <contour>
      <point x="651" y="-25" type="curve" smooth="yes"/>
      <point x="758" y="-25"/>
      <point x="803" y="-5"/>
      <point x="803" y="44" type="curve" smooth="yes"/>
      <point x="803" y="55"/>
      <point x="801" y="62"/>
      <point x="795" y="82" type="curve"/>
      <point x="765" y="71"/>
      <point x="736" y="64"/>
      <point x="696" y="60" type="curve"/>
      <point x="468" y="60" type="line"/>
      <point x="427" y="34" type="line"/>
      <point x="476" y="-1"/>
      <point x="568" y="-25"/>
    </contour>
    <contour>
      <point x="442" y="-26" type="curve" smooth="yes"/>
      <point x="471" y="-26"/>
      <point x="501" y="-15"/>
      <point x="537" y="10" type="curve"/>
      <point x="502" y="25"/>
      <point x="485" y="47"/>
      <point x="485" y="74" type="curve" smooth="yes"/>
      <point x="485" y="169"/>
      <point x="572" y="654"/>
      <point x="572" y="683" type="curve" smooth="yes"/>
      <point x="572" y="712"/>
      <point x="560" y="726"/>
      <point x="536" y="726" type="curve" smooth="yes"/>
      <point x="509" y="726"/>
      <point x="474" y="713"/>
      <point x="439" y="692" type="curve"/>
      <point x="466" y="644" type="line"/>
      <point x="403" y="256"/>
      <point x="384" y="123"/>
      <point x="384" y="42" type="curve" smooth="yes"/>
      <point x="384" y="-6"/>
      <point x="402" y="-26"/>
    </contour>
    <contour>
      <point x="621" y="288" type="curve" smooth="yes"/>
      <point x="677" y="288"/>
      <point x="707" y="313"/>
      <point x="707" y="358" type="curve" smooth="yes"/>
      <point x="707" y="363"/>
      <point x="707" y="370"/>
      <point x="707" y="377" type="curve"/>
      <point x="638" y="360" type="line"/>
      <point x="587" y="360"/>
      <point x="542" y="362"/>
      <point x="499" y="367" type="curve"/>
      <point x="486" y="309" type="line"/>
      <point x="541" y="294"/>
      <point x="580" y="288"/>
    </contour>
    <contour>
      <point x="748" y="604" type="curve" smooth="yes"/>
      <point x="799" y="604"/>
      <point x="856" y="621"/>
      <point x="856" y="683" type="curve" smooth="yes"/>
      <point x="856" y="693"/>
      <point x="856" y="704"/>
      <point x="851" y="720" type="curve"/>
      <point x="736" y="698"/>
      <point x="668" y="682"/>
      <point x="534" y="682" type="curve"/>
      <point x="507" y="640" type="line"/>
      <point x="591" y="612"/>
      <point x="663" y="604"/>
    </contour>
  </outline>
</glyph>
<glyph name="multiply" format="2">
  <advance width="663"/>
  <unicode hex="00D7"/>
  <outline>
    <contour>
      <point x="191" y="164" type="curve"/>
      <point x="537" y="481" type="line" smooth="yes"/>
      <point x="563" y="502"/>
      <point x="571" y="518"/>
      <point x="571" y="530" type="curve" smooth="yes"/>
      <point x="571" y="553"/>
      <point x="537" y="575"/>
      <point x="501" y="588" type="curve"/>
      <point x="154" y="270" type="line" smooth="yes"/>
      <point x="129" y="249"/>
      <point x="120" y="233"/>
      <point x="120" y="221" type="curve" smooth="yes"/>
      <point x="120" y="198"/>
      <point x="155" y="176"/>
    </contour>
    <contour>
      <point x="451" y="164" type="line"/>
      <point x="485" y="182"/>
      <point x="523" y="196"/>
      <point x="523" y="224" type="curve" smooth="yes"/>
      <point x="523" y="233"/>
      <point x="518" y="240"/>
      <point x="509" y="253" type="curve" smooth="yes"/>
      <point x="241" y="588" type="line"/>
      <point x="208" y="568"/>
      <point x="169" y="554"/>
      <point x="169" y="528" type="curve" smooth="yes"/>
      <point x="169" y="519"/>
      <point x="175" y="511"/>
      <point x="183" y="499" type="curve" smooth="yes"/>
    </contour>
  </outline>
</glyph>
<glyph name="Thorn" format="2">
  <advance width="702"/>
  <unicode hex="00DE"/>
  <outline>
    <contour>
      <point x="384" y="111" type="curve" smooth="yes"/>
      <point x="582" y="111"/>
      <point x="672" y="251"/>
      <point x="672" y="406" type="curve" smooth="yes"/>
      <point x="672" y="523"/>
      <point x="599" y="630"/>
      <point x="464" y="630" type="curve" smooth="yes"/>
      <point x="351" y="630"/>
      <point x="297" y="580"/>
      <point x="235" y="516" type="curve"/>
      <point x="235" y="489" type="line"/>
      <point x="297" y="535"/>
      <point x="352" y="562"/>
      <point x="408" y="562" type="curve" smooth="yes"/>
      <point x="531" y="562"/>
      <point x="569" y="481"/>
      <point x="569" y="392" type="curve" smooth="yes"/>
      <point x="569" y="268"/>
      <point x="487" y="176"/>
      <point x="345" y="176" type="curve" smooth="yes"/>
      <point x="301" y="176"/>
      <point x="255" y="187"/>
      <point x="220" y="212" type="curve"/>
      <point x="175" y="183" type="line"/>
      <point x="231" y="137"/>
      <point x="299" y="111"/>
    </contour>
    <contour>
      <point x="178" y="-26" type="curve" smooth="yes"/>
      <point x="199" y="-26"/>
      <point x="219" y="-20"/>
      <point x="243" y="-5" type="curve"/>
      <point x="229" y="13"/>
      <point x="221" y="41"/>
      <point x="221" y="74" type="curve" smooth="yes"/>
      <point x="221" y="169"/>
      <point x="308" y="654"/>
      <point x="308" y="683" type="curve" smooth="yes"/>
      <point x="308" y="712"/>
      <point x="296" y="726"/>
      <point x="272" y="726" type="curve" smooth="yes"/>
      <point x="245" y="726"/>
      <point x="210" y="713"/>
      <point x="175" y="692" type="curve"/>
      <point x="201" y="642" type="line"/>
      <point x="138" y="259"/>
      <point x="120" y="124"/>
      <point x="120" y="42" type="curve" smooth="yes"/>
      <point x="120" y="-6"/>
      <point x="138" y="-26"/>
    </contour>
  </outline>
</glyph>
<glyph name="germandbls" format="2">
  <advance width="681"/>
  <unicode hex="00DF"/>
  <outline>
    <contour>
      <point x="139" y="-210" type="curve" smooth="yes"/>
      <point x="163" y="-210"/>
      <point x="190" y="-201"/>
      <point x="204" y="-187" type="curve"/>
      <point x="191" y="-176"/>
      <point x="185" y="-156"/>
      <point x="185" y="-130" type="curve" smooth="yes"/>
      <point x="185" y="-77"/>
      <point x="216" y="132"/>
      <point x="272" y="442" type="curve" smooth="yes"/>
      <point x="308" y="619"/>
      <point x="351" y="676"/>
      <point x="449" y="676" type="curve" smooth="yes"/>
      <point x="516" y="676"/>
      <point x="563" y="627"/>
      <point x="563" y="557" type="curve" smooth="yes"/>
      <point x="563" y="486"/>
      <point x="514" y="416"/>
      <point x="439" y="379" type="curve"/>
      <point x="509" y="347"/>
      <point x="545" y="288"/>
      <point x="545" y="203" type="curve" smooth="yes"/>
      <point x="545" y="108"/>
      <point x="480" y="38"/>
      <point x="391" y="38" type="curve" smooth="yes"/>
      <point x="337" y="38"/>
      <point x="290" y="75"/>
      <point x="281" y="123" type="curve"/>
      <point x="256" y="105"/>
      <point x="240" y="80"/>
      <point x="240" y="58" type="curve" smooth="yes"/>
      <point x="240" y="6"/>
      <point x="294" y="-25"/>
      <point x="389" y="-25" type="curve" smooth="yes"/>
      <point x="547" y="-25"/>
      <point x="642" y="59"/>
      <point x="642" y="197" type="curve" smooth="yes"/>
      <point x="642" y="287"/>
      <point x="584" y="366"/>
      <point x="502" y="389" type="curve"/>
      <point x="604" y="435"/>
      <point x="656" y="498"/>
      <point x="656" y="579" type="curve" smooth="yes"/>
      <point x="656" y="666"/>
      <point x="572" y="725"/>
      <point x="449" y="725" type="curve" smooth="yes"/>
      <point x="303" y="725"/>
      <point x="210" y="642"/>
      <point x="183" y="485" type="curve" smooth="yes"/>
      <point x="126" y="155"/>
      <point x="90" y="-76"/>
      <point x="90" y="-129" type="curve" smooth="yes"/>
      <point x="90" y="-185"/>
      <point x="104" y="-210"/>
    </contour>
    <contour>
      <point x="112" y="329" type="curve" smooth="yes"/>
      <point x="148" y="329"/>
      <point x="212" y="338"/>
      <point x="238" y="347" type="curve"/>
      <point x="225" y="421" type="line"/>
      <point x="190" y="414"/>
      <point x="171" y="412"/>
      <point x="140" y="412" type="curve" smooth="yes"/>
      <point x="111" y="412"/>
      <point x="84" y="415"/>
      <point x="67" y="422" type="curve"/>
      <point x="56" y="406"/>
      <point x="50" y="390"/>
      <point x="50" y="371" type="curve" smooth="yes"/>
      <point x="50" y="343"/>
      <point x="71" y="329"/>
    </contour>
  </outline>
</glyph>
<glyph name="ae" format="2">
  <advance width="1024"/>
  <unicode hex="00E6"/>
  <anchor x="453" y="0" name="bottom"/>
  <anchor x="575" y="575" name="top"/>
  <anchor x="806" y="0" name="ogonek"/>
  <outline>
    <contour>
      <point x="265" y="-25" type="curve" smooth="yes"/>
      <point x="347" y="-25"/>
      <point x="422" y="28"/>
      <point x="471" y="121" type="curve"/>
      <point x="477" y="121" type="line"/>
      <point x="506" y="247" type="line"/>
      <point x="464" y="124"/>
      <point x="379" y="50"/>
      <point x="303" y="50" type="curve" smooth="yes"/>
      <point x="230" y="50"/>
      <point x="188" y="106"/>
      <point x="188" y="204" type="curve" smooth="yes"/>
      <point x="188" y="396"/>
      <point x="332" y="529"/>
      <point x="574" y="529" type="curve"/>
      <point x="574" y="544"/>
      <point x="570" y="556"/>
      <point x="562" y="567" type="curve"/>
      <point x="536" y="572"/>
      <point x="501" y="575"/>
      <point x="464" y="575" type="curve" smooth="yes"/>
      <point x="254" y="575"/>
      <point x="84" y="412"/>
      <point x="84" y="210" type="curve" smooth="yes"/>
      <point x="84" y="68"/>
      <point x="157" y="-25"/>
    </contour>
    <component base="e" xOffset="377"/>
  </outline>
</glyph>
<glyph name="eth" format="2">
  <advance width="701"/>
  <unicode hex="00F0"/>
  <outline>
    <contour>
      <point x="316" y="-25" type="curve" smooth="yes"/>
      <point x="502" y="-25"/>
      <point x="634" y="131"/>
      <point x="634" y="354" type="curve" smooth="yes"/>
      <point x="634" y="604"/>
      <point x="470" y="827"/>
      <point x="286" y="827" type="curve" smooth="yes"/>
      <point x="250" y="827"/>
      <point x="222" y="799"/>
      <point x="222" y="763" type="curve"/>
      <point x="400" y="763"/>
      <point x="545" y="584"/>
      <point x="545" y="306" type="curve" smooth="yes"/>
      <point x="545" y="140"/>
      <point x="464" y="33"/>
      <point x="340" y="33" type="curve" smooth="yes"/>
      <point x="249" y="33"/>
      <point x="195" y="107"/>
      <point x="195" y="230" type="curve" smooth="yes"/>
      <point x="195" y="431"/>
      <point x="316" y="554"/>
      <point x="510" y="554" type="curve"/>
      <point x="509" y="567"/>
      <point x="505" y="579"/>
      <point x="496" y="592" type="curve"/>
      <point x="476" y="598"/>
      <point x="454" y="600"/>
      <point x="418" y="600" type="curve" smooth="yes"/>
      <point x="226" y="600"/>
      <point x="90" y="449"/>
      <point x="90" y="235" type="curve" smooth="yes"/>
      <point x="90" y="77"/>
      <point x="178" y="-25"/>
    </contour>
    <component base="strokeshortcomb.Rhalf" xScale="0.94" xyScale="0.342" yxScale="-0.342" yScale="0.94" xOffset="569" yOffset="353"/>
  </outline>
</glyph>
<glyph name="thorn" format="2">
  <advance width="741"/>
  <unicode hex="00FE"/>
  <outline>
    <contour>
      <point x="278" y="0" type="curve" smooth="yes"/>
      <point x="488" y="0"/>
      <point x="657" y="163"/>
      <point x="657" y="365" type="curve" smooth="yes"/>
      <point x="657" y="507"/>
      <point x="585" y="600"/>
      <point x="476" y="600" type="curve" smooth="yes"/>
      <point x="392" y="600"/>
      <point x="315" y="540"/>
      <point x="265" y="434" type="curve"/>
      <point x="221" y="474" type="line"/>
      <point x="190" y="89" type="line"/>
      <point x="250" y="374"/>
      <point x="327" y="526"/>
      <point x="438" y="526" type="curve" smooth="yes"/>
      <point x="511" y="526"/>
      <point x="554" y="469"/>
      <point x="554" y="371" type="curve" smooth="yes"/>
      <point x="554" y="174"/>
      <point x="402" y="46"/>
      <point x="167" y="46" type="curve"/>
      <point x="167" y="33"/>
      <point x="171" y="21"/>
      <point x="179" y="8" type="curve"/>
      <point x="208" y="3"/>
      <point x="243" y="0"/>
    </contour>
    <contour>
      <point x="129" y="-200" type="curve" smooth="yes"/>
      <point x="157" y="-200"/>
      <point x="177" y="-190"/>
      <point x="192" y="-177" type="curve"/>
      <point x="180" y="-168"/>
      <point x="174" y="-142"/>
      <point x="174" y="-129" type="curve" smooth="yes"/>
      <point x="174" y="152"/>
      <point x="306" y="586"/>
      <point x="306" y="724" type="curve" smooth="yes"/>
      <point x="306" y="762"/>
      <point x="293" y="775"/>
      <point x="262" y="775" type="curve" smooth="yes"/>
      <point x="234" y="775"/>
      <point x="192" y="763"/>
      <point x="165" y="740" type="curve"/>
      <point x="206" y="697" type="line"/>
      <point x="151" y="395"/>
      <point x="79" y="-69"/>
      <point x="79" y="-137" type="curve" smooth="yes"/>
      <point x="79" y="-180"/>
      <point x="99" y="-200"/>
    </contour>
  </outline>
</glyph>
<glyph name="idotless" format="2">
  <advance width="388"/>
  <unicode hex="0131"/>
  <anchor x="143" y="0" name="bottom"/>
  <anchor x="224" y="-3" name="ogonek"/>
  <anchor x="245" y="575" name="top"/>
  <outline>
    <contour>
      <point x="168" y="-25" type="curve" smooth="yes"/>
      <point x="190" y="-25"/>
      <point x="207" y="-18"/>
      <point x="224" y="-3" type="curve"/>
      <point x="215" y="5"/>
      <point x="210" y="18"/>
      <point x="210" y="40" type="curve" smooth="yes"/>
      <point x="210" y="201"/>
      <point x="305" y="529"/>
      <point x="305" y="550" type="curve" smooth="yes"/>
      <point x="305" y="588"/>
      <point x="290" y="600"/>
      <point x="255" y="600" type="curve" smooth="yes"/>
      <point x="229" y="600"/>
      <point x="189" y="588"/>
      <point x="163" y="566" type="curve"/>
      <point x="204" y="525" type="line"/>
      <point x="132" y="200"/>
      <point x="113" y="85"/>
      <point x="113" y="33" type="curve" smooth="yes"/>
      <point x="113" y="-10"/>
      <point x="133" y="-25"/>
    </contour>
  </outline>
</glyph>
<glyph name="kgreenlandic" format="2">
  <advance width="651"/>
  <unicode hex="0138"/>
  <anchor x="348" y="0" name="bottom"/>
  <anchor x="417" y="575" name="top"/>
  <outline>
    <contour>
      <point x="197" y="159" type="line"/>
      <point x="413" y="303" type="line" smooth="yes"/>
      <point x="551" y="394"/>
      <point x="614" y="472"/>
      <point x="614" y="540" type="curve" smooth="yes"/>
      <point x="614" y="577"/>
      <point x="593" y="600"/>
      <point x="560" y="600" type="curve" smooth="yes"/>
      <point x="544" y="600"/>
      <point x="522" y="594"/>
      <point x="509" y="581" type="curve"/>
      <point x="511" y="571"/>
      <point x="513" y="561"/>
      <point x="513" y="551" type="curve" smooth="yes"/>
      <point x="513" y="475"/>
      <point x="440" y="395"/>
      <point x="362" y="331" type="curve" smooth="yes"/>
      <point x="209" y="210" type="line"/>
    </contour>
    <contour>
      <point x="194" y="-25" type="curve" smooth="yes"/>
      <point x="217" y="-25"/>
      <point x="236" y="-18"/>
      <point x="254" y="-3" type="curve"/>
      <point x="241" y="5"/>
      <point x="235" y="18"/>
      <point x="235" y="40" type="curve" smooth="yes"/>
      <point x="235" y="201"/>
      <point x="305" y="529"/>
      <point x="305" y="550" type="curve" smooth="yes"/>
      <point x="305" y="588"/>
      <point x="290" y="600"/>
      <point x="255" y="600" type="curve" smooth="yes"/>
      <point x="229" y="600"/>
      <point x="189" y="588"/>
      <point x="163" y="566" type="curve"/>
      <point x="204" y="525" type="line"/>
      <point x="150" y="197"/>
      <point x="138" y="85"/>
      <point x="138" y="33" type="curve" smooth="yes"/>
      <point x="138" y="-10"/>
      <point x="158" y="-25"/>
    </contour>
    <contour>
      <point x="559" y="-25" type="curve" smooth="yes"/>
      <point x="586" y="-25"/>
      <point x="618" y="-9"/>
      <point x="637" y="24" type="curve"/>
      <point x="568" y="50"/>
      <point x="542" y="90"/>
      <point x="508" y="146" type="curve" smooth="yes"/>
      <point x="402" y="339" type="line"/>
      <point x="328" y="278" type="line"/>
      <point x="441" y="75" type="line" smooth="yes"/>
      <point x="484" y="-4"/>
      <point x="513" y="-25"/>
    </contour>
  </outline>
</glyph>
<glyph name="Eng" format="2">
  <advance width="829"/>
  <unicode hex="014A"/>
  <outline>
    <contour>
      <point x="390" y="-240" type="curve" smooth="yes"/>
      <point x="578" y="-240"/>
      <point x="665" y="-79"/>
      <point x="708" y="222" type="curve" smooth="yes"/>
      <point x="735" y="402"/>
      <point x="779" y="662"/>
      <point x="779" y="683" type="curve" smooth="yes"/>
      <point x="779" y="711"/>
      <point x="766" y="726"/>
      <point x="742" y="726" type="curve" smooth="yes"/>
      <point x="714" y="726"/>
      <point x="678" y="713"/>
      <point x="641" y="692" type="curve"/>
      <point x="672" y="642" type="line"/>
      <point x="623" y="281" type="line" smooth="yes"/>
      <point x="569" y="-82"/>
      <point x="503" y="-174"/>
      <point x="296" y="-174" type="curve"/>
      <point x="296" y="-207"/>
      <point x="336" y="-240"/>
    </contour>
    <contour>
      <point x="178" y="-26" type="curve" smooth="yes"/>
      <point x="199" y="-26"/>
      <point x="219" y="-20"/>
      <point x="243" y="-5" type="curve"/>
      <point x="229" y="13"/>
      <point x="221" y="41"/>
      <point x="221" y="74" type="curve" smooth="yes"/>
      <point x="221" y="169"/>
      <point x="308" y="654"/>
      <point x="308" y="683" type="curve" smooth="yes"/>
      <point x="308" y="712"/>
      <point x="296" y="726"/>
      <point x="272" y="726" type="curve" smooth="yes"/>
      <point x="245" y="726"/>
      <point x="210" y="713"/>
      <point x="175" y="692" type="curve"/>
      <point x="201" y="642" type="line"/>
      <point x="138" y="259"/>
      <point x="120" y="124"/>
      <point x="120" y="42" type="curve" smooth="yes"/>
      <point x="120" y="-6"/>
      <point x="138" y="-26"/>
    </contour>
    <contour>
      <point x="640" y="-27" type="curve"/>
      <point x="645" y="83" type="line"/>
      <point x="577" y="84" type="line"/>
      <point x="394" y="656"/>
      <point x="362" y="726"/>
      <point x="271" y="726" type="curve"/>
      <point x="263" y="624" type="line"/>
      <point x="305" y="624" type="line"/>
      <point x="494" y="29"/>
      <point x="522" y="-26"/>
    </contour>
  </outline>
</glyph>
<glyph name="eng" format="2">
  <advance width="784"/>
  <unicode hex="014B"/>
  <outline>
    <contour>
      <point x="300" y="-240" type="curve" smooth="yes"/>
      <point x="488" y="-240"/>
      <point x="677" y="119"/>
      <point x="677" y="454" type="curve" smooth="yes"/>
      <point x="677" y="554"/>
      <point x="637" y="600"/>
      <point x="552" y="600" type="curve" smooth="yes"/>
      <point x="440" y="600"/>
      <point x="353" y="532"/>
      <point x="287" y="417" type="curve"/>
      <point x="277" y="422" type="line"/>
      <point x="298" y="463"/>
      <point x="310" y="512"/>
      <point x="310" y="547" type="curve" smooth="yes"/>
      <point x="310" y="586"/>
      <point x="299" y="596"/>
      <point x="264" y="596" type="curve" smooth="yes"/>
      <point x="239" y="596"/>
      <point x="194" y="580"/>
      <point x="166" y="552" type="curve"/>
      <point x="209" y="509" type="line"/>
      <point x="159" y="315"/>
      <point x="116" y="92"/>
      <point x="116" y="33" type="curve" smooth="yes"/>
      <point x="116" y="-8"/>
      <point x="136" y="-25"/>
      <point x="172" y="-25" type="curve" smooth="yes"/>
      <point x="191" y="-25"/>
      <point x="208" y="-17"/>
      <point x="223" y="-2" type="curve"/>
      <point x="216" y="6"/>
      <point x="213" y="21"/>
      <point x="213" y="40" type="curve" smooth="yes"/>
      <point x="213" y="273"/>
      <point x="350" y="533"/>
      <point x="511" y="533" type="curve" smooth="yes"/>
      <point x="550" y="533"/>
      <point x="572" y="493"/>
      <point x="572" y="407" type="curve" smooth="yes"/>
      <point x="572" y="157"/>
      <point x="431" y="-174"/>
      <point x="221" y="-174" type="curve"/>
      <point x="221" y="-222"/>
      <point x="254" y="-240"/>
    </contour>
  </outline>
</glyph>
<glyph name="OE" format="2">
  <advance width="1086"/>
  <unicode hex="0152"/>
  <anchor x="485" y="0" name="bottom"/>
  <anchor x="598" y="710" name="top"/>
  <outline>
    <contour>
      <point x="933" y="604" type="curve" smooth="yes"/>
      <point x="984" y="604"/>
      <point x="1041" y="621"/>
      <point x="1041" y="683" type="curve" smooth="yes"/>
      <point x="1041" y="693"/>
      <point x="1041" y="704"/>
      <point x="1036" y="720" type="curve"/>
      <point x="939" y="704"/>
      <point x="897" y="692"/>
      <point x="799" y="692" type="curve" smooth="yes"/>
      <point x="682" y="692"/>
      <point x="583" y="726"/>
      <point x="478" y="726" type="curve"/>
      <point x="331" y="608" type="line"/>
      <point x="542" y="752"/>
      <point x="686" y="604"/>
    </contour>
    <contour>
      <point x="806" y="-27" type="curve" smooth="yes"/>
      <point x="924" y="-27"/>
      <point x="977" y="-6"/>
      <point x="977" y="44" type="curve" smooth="yes"/>
      <point x="977" y="55"/>
      <point x="976" y="62"/>
      <point x="969" y="82" type="curve"/>
      <point x="939" y="71"/>
      <point x="911" y="64"/>
      <point x="871" y="60" type="curve"/>
      <point x="523" y="60" type="line"/>
      <point x="473" y="26" type="line"/>
      <point x="550" y="-2"/>
      <point x="674" y="-27"/>
    </contour>
    <contour>
      <point x="821" y="288" type="curve" smooth="yes"/>
      <point x="877" y="288"/>
      <point x="907" y="313"/>
      <point x="907" y="358" type="curve" smooth="yes"/>
      <point x="907" y="363"/>
      <point x="907" y="370"/>
      <point x="907" y="377" type="curve"/>
      <point x="838" y="360" type="line"/>
      <point x="784" y="360"/>
      <point x="734" y="362"/>
      <point x="689" y="367" type="curve"/>
      <point x="676" y="309" type="line"/>
      <point x="734" y="294"/>
      <point x="776" y="288"/>
    </contour>
    <component base="O.alt"/>
  </outline>
</glyph>
<glyph name="oe" format="2">
  <advance width="1102"/>
  <unicode hex="0153"/>
  <anchor x="484" y="0" name="bottom"/>
  <anchor x="576" y="575" name="top"/>
  <anchor x="884" y="0" name="ogonek"/>
  <outline>
    <contour>
      <point x="320" y="-25" type="curve" smooth="yes"/>
      <point x="509" y="-25"/>
      <point x="633" y="140"/>
      <point x="633" y="390" type="curve" smooth="yes"/>
      <point x="633" y="483"/>
      <point x="598" y="537"/>
      <point x="538" y="537" type="curve" smooth="yes"/>
      <point x="519" y="537"/>
      <point x="505" y="529"/>
      <point x="491" y="514" type="curve"/>
      <point x="523" y="467"/>
      <point x="544" y="389"/>
      <point x="544" y="311" type="curve" smooth="yes"/>
      <point x="544" y="142"/>
      <point x="463" y="33"/>
      <point x="339" y="33" type="curve" smooth="yes"/>
      <point x="248" y="33"/>
      <point x="194" y="107"/>
      <point x="194" y="230" type="curve" smooth="yes"/>
      <point x="194" y="416"/>
      <point x="315" y="554"/>
      <point x="509" y="554" type="curve"/>
      <point x="508" y="568"/>
      <point x="504" y="580"/>
      <point x="495" y="592" type="curve"/>
      <point x="473" y="598"/>
      <point x="450" y="600"/>
      <point x="417" y="600" type="curve" smooth="yes"/>
      <point x="225" y="600"/>
      <point x="89" y="436"/>
      <point x="89" y="235" type="curve" smooth="yes"/>
      <point x="89" y="77"/>
      <point x="179" y="-25"/>
    </contour>
    <component base="e" xOffset="455"/>
  </outline>
</glyph>
<glyph name="florin" format="2">
  <advance width="522"/>
  <unicode hex="0192"/>
  <outline>
    <contour>
      <point x="139" y="-210" type="curve" smooth="yes"/>
      <point x="209" y="-210"/>
      <point x="220" y="-152"/>
      <point x="239" y="5" type="curve" smooth="yes"/>
      <point x="266" y="288" type="line"/>
      <point x="280" y="599" type="line"/>
      <point x="368" y="599"/>
      <point x="446" y="584"/>
      <point x="493" y="555" type="curve"/>
      <point x="500" y="572"/>
      <point x="506" y="590"/>
      <point x="506" y="606" type="curve" smooth="yes"/>
      <point x="506" y="671"/>
      <point x="448" y="700"/>
      <point x="363" y="700" type="curve" smooth="yes"/>
      <point x="200" y="700"/>
      <point x="175" y="515"/>
      <point x="175" y="334" type="curve" smooth="yes"/>
      <point x="175" y="158"/>
      <point x="138" y="-66"/>
      <point x="72" y="-180" type="curve"/>
      <point x="88" y="-199"/>
      <point x="111" y="-210"/>
    </contour>
    <component base="strokeshortcomb" xScale="0.897" xyScale="0.078" yxScale="-0.07" yScale="0.797" xOffset="-76" yOffset="-32"/>
  </outline>
</glyph>
<glyph name="jdotless" format="2">
  <advance width="397"/>
  <unicode hex="0237"/>
  <anchor x="153" y="0" name="bottom"/>
  <anchor x="245" y="575" name="top"/>
  <outline>
    <contour>
      <point x="49" y="-210" type="curve" smooth="yes"/>
      <point x="117" y="-210"/>
      <point x="161" y="-161"/>
      <point x="183" y="-58" type="curve" smooth="yes"/>
      <point x="224" y="152"/>
      <point x="301" y="527"/>
      <point x="301" y="550" type="curve" smooth="yes"/>
      <point x="301" y="588"/>
      <point x="287" y="600"/>
      <point x="252" y="600" type="curve" smooth="yes"/>
      <point x="225" y="600"/>
      <point x="185" y="588"/>
      <point x="160" y="566" type="curve"/>
      <point x="201" y="525" type="line"/>
      <point x="165" y="288"/>
      <point x="111" y="50"/>
      <point x="111" y="-21" type="curve" smooth="yes"/>
      <point x="111" y="-60"/>
      <point x="118" y="-86"/>
      <point x="133" y="-102" type="curve"/>
      <point x="124" y="-117" type="line"/>
      <point x="111" y="-107"/>
      <point x="88" y="-89"/>
      <point x="58" y="-89" type="curve" smooth="yes"/>
      <point x="15" y="-89"/>
      <point x="-13" y="-112"/>
      <point x="-13" y="-149" type="curve" smooth="yes"/>
      <point x="-13" y="-182"/>
      <point x="7" y="-210"/>
    </contour>
  </outline>
</glyph>
<glyph name="gravecomb" format="2">
  <unicode hex="0300"/>
  <anchor x="188" y="575" name="_top"/>
  <anchor x="188" y="864" name="top"/>
  <outline>
    <contour>
      <point x="300" y="676" type="curve" smooth="yes"/>
      <point x="315" y="676"/>
      <point x="326" y="690"/>
      <point x="332" y="720" type="curve"/>
      <point x="192" y="775"/>
      <point x="159" y="846"/>
      <point x="93" y="846" type="curve" smooth="yes"/>
      <point x="58" y="846"/>
      <point x="42" y="828"/>
      <point x="42" y="791" type="curve" smooth="yes"/>
      <point x="42" y="770"/>
      <point x="45" y="753"/>
      <point x="51" y="742" type="curve"/>
      <point x="160" y="742"/>
      <point x="265" y="676"/>
    </contour>
  </outline>
</glyph>
<glyph name="acutecomb" format="2">
  <unicode hex="0301"/>
  <anchor x="206" y="575" name="_top"/>
  <anchor x="259" y="885" name="top"/>
  <outline>
    <contour>
      <point x="126" y="675" type="curve" smooth="yes"/>
      <point x="161" y="675"/>
      <point x="266" y="741"/>
      <point x="375" y="741" type="curve"/>
      <point x="381" y="752"/>
      <point x="384" y="769"/>
      <point x="384" y="790" type="curve" smooth="yes"/>
      <point x="384" y="827"/>
      <point x="368" y="845"/>
      <point x="333" y="845" type="curve" smooth="yes"/>
      <point x="267" y="845"/>
      <point x="234" y="774"/>
      <point x="94" y="719" type="curve"/>
      <point x="100" y="689"/>
      <point x="111" y="675"/>
    </contour>
  </outline>
</glyph>
